<?xml version="1.0" encoding="UTF-8" standalone="no"?>
<svg
   xmlns:dc="http://purl.org/dc/elements/1.1/"
   xmlns:cc="http://creativecommons.org/ns#"
   xmlns:rdf="http://www.w3.org/1999/02/22-rdf-syntax-ns#"
   xmlns:svg="http://www.w3.org/2000/svg"
   xmlns="http://www.w3.org/2000/svg"
   xmlns:sodipodi="http://sodipodi.sourceforge.net/DTD/sodipodi-0.dtd"
   xmlns:inkscape="http://www.inkscape.org/namespaces/inkscape"
   viewBox="0 0 899.81746 269.46405"
   height="269.46405"
   width="899.8175"
   xml:space="preserve"
   id="svg2"
   version="1.1"
   sodipodi:docname="comm_patt.svg"
   inkscape:version="0.92.2 (5c3e80d, 2017-08-06)"><sodipodi:namedview
     pagecolor="#ffffff"
     bordercolor="#666666"
     borderopacity="1"
     objecttolerance="10"
     gridtolerance="10"
     guidetolerance="10"
     inkscape:pageopacity="0"
     inkscape:pageshadow="2"
     inkscape:window-width="1920"
     inkscape:window-height="1043"
     id="namedview217"
     showgrid="false"
     fit-margin-top="0"
     fit-margin-left="0"
     fit-margin-right="0"
     fit-margin-bottom="0"
     inkscape:zoom="0.58942061"
     inkscape:cx="245.00547"
     inkscape:cy="228.65808"
     inkscape:window-x="0"
     inkscape:window-y="0"
     inkscape:window-maximized="1"
     inkscape:current-layer="g14" /><metadata
     id="metadata8"><rdf:RDF><cc:Work
         rdf:about=""><dc:format>image/svg+xml</dc:format><dc:type
           rdf:resource="http://purl.org/dc/dcmitype/StillImage" /><dc:title></dc:title></cc:Work></rdf:RDF></metadata><defs
     id="defs6"><clipPath
       id="clipPath18"
       clipPathUnits="userSpaceOnUse"><path
         style="clip-rule:evenodd"
         id="path16"
         d="M 0,-0.4 H 793.6 V 446 H 0 Z"
         inkscape:connector-curvature="0" /></clipPath><clipPath
       id="clipPath80"
       clipPathUnits="userSpaceOnUse"><path
         id="path78"
         d="m 126.4,301.7 h 91.7 v 6.2 h -91.7 z"
         inkscape:connector-curvature="0" /></clipPath><clipPath
       id="clipPath104"
       clipPathUnits="userSpaceOnUse"><path
         id="path102"
         d="m 127.4,284.7 h 86.1 v 6.2 h -86.1 z"
         inkscape:connector-curvature="0" /></clipPath><clipPath
       id="clipPath148"
       clipPathUnits="userSpaceOnUse"><path
         id="path146"
         d="M 320.3,302.5 H 412 v 6.2 h -91.7 z"
         inkscape:connector-curvature="0" /></clipPath><clipPath
       id="clipPath172"
       clipPathUnits="userSpaceOnUse"><path
         id="path170"
         d="m 321.3,285.5 h 86.1 v 6.2 h -86.1 z"
         inkscape:connector-curvature="0" /></clipPath><clipPath
       id="clipPath216"
       clipPathUnits="userSpaceOnUse"><path
         id="path214"
         d="m 507.4,302.5 h 91.8 v 6.2 h -91.8 z"
         inkscape:connector-curvature="0" /></clipPath><clipPath
       id="clipPath240"
       clipPathUnits="userSpaceOnUse"><path
         id="path238"
         d="m 508.4,285.5 h 86.1 v 6.2 h -86.1 z"
         inkscape:connector-curvature="0" /></clipPath><clipPath
       id="clipPath344"
       clipPathUnits="userSpaceOnUse"><path
         id="path342"
         d="M 91.5,141.6 H 650.7 V 165 H 91.5 Z"
         inkscape:connector-curvature="0" /></clipPath><clipPath
       id="clipPath368"
       clipPathUnits="userSpaceOnUse"><path
         id="path366"
         d="M 143.4,180.3 H 221 v 6.2 h -77.6 z"
         inkscape:connector-curvature="0" /></clipPath><clipPath
       id="clipPath392"
       clipPathUnits="userSpaceOnUse"><path
         id="path390"
         d="m 316.7,180.3 h 95.1 v 6.2 h -95.1 z"
         inkscape:connector-curvature="0" /></clipPath><clipPath
       id="clipPath416"
       clipPathUnits="userSpaceOnUse"><path
         id="path414"
         d="M 509.6,180.2 H 601 v 6.2 h -91.4 z"
         inkscape:connector-curvature="0" /></clipPath></defs><g
     transform="matrix(1.3333333,0,0,-1.3333333,-33.509466,458.26405)"
     id="g10"><g
       id="g12"><g
         clip-path="url(#clipPath18)"
         id="g14"><path
           id="path22"
           style="fill:#f2f2f2;fill-opacity:1;fill-rule:evenodd;stroke:none"
           d="m 25.5,310.4 v 0 0.3 0.4 l 0.1,0.3 0.1,0.3 v 0.4 l 0.1,0.3 0.1,0.3 0.2,0.3 0.1,0.3 0.2,0.3 0.2,0.3 0.2,0.3 0.2,0.2 0.2,0.3 0.2,0.3 0.2,0.2 0.3,0.2 0.3,0.2 0.3,0.2 0.2,0.2 0.3,0.1 0.3,0.2 0.4,0.1 0.3,0.1 0.3,0.1 0.3,0.1 0.4,0.1 h 0.3 l 0.3,0.1 h 0.4 86.7 v 0 h 0.3 l 0.4,-0.1 h 0.3 l 0.3,-0.1 0.4,-0.1 0.3,-0.1 0.3,-0.1 0.3,-0.1 0.3,-0.2 0.3,-0.1 0.3,-0.2 0.3,-0.2 0.2,-0.2 0.3,-0.2 0.3,-0.2 0.2,-0.3 0.2,-0.3 0.2,-0.2 0.2,-0.3 0.2,-0.3 0.1,-0.3 0.2,-0.3 0.1,-0.3 0.1,-0.3 0.1,-0.3 0.1,-0.4 0.1,-0.3 v -0.3 -0.4 -0.3 l 0.1,-25.9 h -0.1 v -0.4 -0.3 -0.3 l -0.1,-0.4 -0.1,-0.3 -0.1,-0.3 -0.1,-0.3 -0.1,-0.3 -0.2,-0.3 -0.1,-0.3 -0.2,-0.3 -0.2,-0.3 -0.2,-0.3 -0.2,-0.2 -0.2,-0.3 -0.3,-0.2 -0.2,-0.2 -0.3,-0.2 -0.3,-0.2 -0.3,-0.2 -0.3,-0.2 -0.3,-0.1 -0.3,-0.2 -0.3,-0.1 -0.3,-0.1 H 120 l -0.3,-0.1 -0.3,-0.1 H 119.1 118.7 32 v 0 h -0.4 -0.3 l -0.3,0.1 -0.4,0.1 h -0.3 l -0.3,0.1 -0.3,0.1 -0.3,0.2 -0.3,0.1 -0.4,0.2 -0.2,0.2 -0.3,0.1 -0.3,0.3 -0.2,0.2 -0.3,0.2 -0.2,0.2 -0.2,0.3 -0.2,0.3 -0.2,0.2 -0.2,0.3 -0.2,0.3 -0.1,0.3 -0.2,0.4 -0.1,0.3 -0.1,0.3 v 0.3 l -0.1,0.3 -0.1,0.4 v 0.3 0.4 z m 0,6.5 z M 125.2,278 Z"
           inkscape:connector-curvature="0" /><g
           id="g24"><path
             id="path26"
             style="fill:none;stroke:#000000;stroke-width:0.73580003;stroke-linecap:butt;stroke-linejoin:round;stroke-miterlimit:10;stroke-dasharray:none;stroke-opacity:1"
             d="m 25.5,310.4 v 0 0.3 0.4 l 0.1,0.3 0.1,0.3 v 0.4 l 0.1,0.3 0.1,0.3 0.2,0.3 0.1,0.3 0.2,0.3 0.2,0.3 0.2,0.3 0.2,0.2 0.2,0.3 0.2,0.3 0.2,0.2 0.3,0.2 0.3,0.2 0.3,0.2 0.2,0.2 0.3,0.1 0.3,0.2 0.4,0.1 0.3,0.1 0.3,0.1 0.3,0.1 0.4,0.1 h 0.3 l 0.3,0.1 h 0.4 86.7 v 0 h 0.3 l 0.4,-0.1 h 0.3 l 0.3,-0.1 0.4,-0.1 0.3,-0.1 0.3,-0.1 0.3,-0.1 0.3,-0.2 0.3,-0.1 0.3,-0.2 0.3,-0.2 0.2,-0.2 0.3,-0.2 0.3,-0.2 0.2,-0.3 0.2,-0.3 0.2,-0.2 0.2,-0.3 0.2,-0.3 0.1,-0.3 0.2,-0.3 0.1,-0.3 0.1,-0.3 0.1,-0.3 0.1,-0.4 0.1,-0.3 v -0.3 -0.4 -0.3 l 0.1,-25.9 h -0.1 v -0.4 -0.3 -0.3 l -0.1,-0.4 -0.1,-0.3 -0.1,-0.3 -0.1,-0.3 -0.1,-0.3 -0.2,-0.3 -0.1,-0.3 -0.2,-0.3 -0.2,-0.3 -0.2,-0.3 -0.2,-0.2 -0.2,-0.3 -0.3,-0.2 -0.2,-0.2 -0.3,-0.2 -0.3,-0.2 -0.3,-0.2 -0.3,-0.2 -0.3,-0.1 -0.3,-0.2 -0.3,-0.1 -0.3,-0.1 H 120 l -0.3,-0.1 -0.3,-0.1 H 119.1 118.7 32 v 0 h -0.4 -0.3 l -0.3,0.1 -0.4,0.1 h -0.3 l -0.3,0.1 -0.3,0.1 -0.3,0.2 -0.3,0.1 -0.4,0.2 -0.2,0.2 -0.3,0.1 -0.3,0.3 -0.2,0.2 -0.3,0.2 -0.2,0.2 -0.2,0.3 -0.2,0.3 -0.2,0.2 -0.2,0.3 -0.2,0.3 -0.1,0.3 -0.2,0.4 -0.1,0.3 -0.1,0.3 v 0.3 l -0.1,0.3 -0.1,0.4 v 0.3 0.4 z"
             inkscape:connector-curvature="0" /></g><g
           id="g28"><path
             id="path30"
             style="fill:none;stroke:#000000;stroke-width:0.73580003;stroke-linecap:butt;stroke-linejoin:round;stroke-miterlimit:10;stroke-dasharray:none;stroke-opacity:1"
             d="M 25.5,316.9 Z"
             inkscape:connector-curvature="0" /></g><g
           id="g32"><path
             id="path34"
             style="fill:none;stroke:#000000;stroke-width:0.73580003;stroke-linecap:butt;stroke-linejoin:round;stroke-miterlimit:10;stroke-dasharray:none;stroke-opacity:1"
             d="M 125.2,278 Z"
             inkscape:connector-curvature="0" /></g><g
           id="g36"><text
             id="text40"
             style="font-variant:normal;font-weight:normal;font-size:18px;font-family:Carlito;-inkscape-font-specification:Carlito;writing-mode:lr-tb;fill:#000000;fill-opacity:1;fill-rule:nonzero;stroke:none"
             transform="matrix(1,0,0,-1,41.1,290.2)"><tspan
               id="tspan38"
               y="0"
               x="0 9.198 15.192 24.677999 32.273998 41.166 48.240002 55.313999 59.400002">Process 0</tspan></text>
</g><path
           id="path42"
           style="fill:#f2f2f2;fill-opacity:1;fill-rule:evenodd;stroke:none"
           d="m 216.9,310.4 v 0 0.3 0.4 l 0.1,0.3 v 0.3 l 0.1,0.4 0.1,0.3 0.1,0.3 0.1,0.3 0.2,0.3 0.2,0.3 0.1,0.3 0.2,0.3 0.2,0.2 0.3,0.3 0.2,0.3 0.2,0.2 0.3,0.2 0.2,0.2 0.3,0.2 0.3,0.2 0.3,0.1 0.3,0.2 0.3,0.1 0.4,0.1 0.3,0.1 0.3,0.1 0.3,0.1 h 0.4 l 0.3,0.1 h 0.3 86.8 v 0 h 0.3 l 0.3,-0.1 h 0.4 l 0.3,-0.1 0.3,-0.1 0.3,-0.1 0.4,-0.1 0.3,-0.1 0.3,-0.2 0.3,-0.1 0.3,-0.2 0.3,-0.2 0.2,-0.2 0.3,-0.2 0.2,-0.2 0.2,-0.3 0.3,-0.3 0.2,-0.2 0.2,-0.3 0.1,-0.3 0.2,-0.3 0.1,-0.3 0.2,-0.3 0.1,-0.3 0.1,-0.3 0.1,-0.4 v -0.3 l 0.1,-0.3 v -0.4 -0.3 -25.9 0 -0.4 -0.3 l -0.1,-0.3 v -0.4 l -0.1,-0.3 -0.1,-0.3 -0.1,-0.3 -0.2,-0.3 -0.1,-0.3 -0.1,-0.3 -0.2,-0.3 -0.2,-0.3 -0.2,-0.3 -0.2,-0.2 -0.3,-0.3 -0.2,-0.2 -0.3,-0.2 -0.2,-0.2 -0.3,-0.2 -0.3,-0.2 -0.3,-0.2 -0.3,-0.1 -0.3,-0.2 -0.3,-0.1 -0.3,-0.1 h -0.4 l -0.3,-0.1 -0.3,-0.1 h -0.4 -0.3 -86.8 v 0 h -0.3 -0.3 l -0.4,0.1 -0.3,0.1 h -0.3 l -0.3,0.1 -0.4,0.1 -0.3,0.2 -0.3,0.1 -0.3,0.2 -0.3,0.2 -0.3,0.1 -0.2,0.3 -0.3,0.2 -0.2,0.2 -0.2,0.2 -0.3,0.3 -0.2,0.3 -0.2,0.2 -0.1,0.3 -0.2,0.3 -0.2,0.3 -0.1,0.4 -0.1,0.3 -0.1,0.3 -0.1,0.3 v 0.3 l -0.1,0.4 v 0.3 0.4 z m 0,6.5 z M 316.5,278 Z"
           inkscape:connector-curvature="0" /><g
           id="g44"><path
             id="path46"
             style="fill:none;stroke:#000000;stroke-width:0.99049997;stroke-linecap:butt;stroke-linejoin:round;stroke-miterlimit:10;stroke-dasharray:none;stroke-opacity:1"
             d="m 216.9,310.4 v 0 0.3 0.4 l 0.1,0.3 v 0.3 l 0.1,0.4 0.1,0.3 0.1,0.3 0.1,0.3 0.2,0.3 0.2,0.3 0.1,0.3 0.2,0.3 0.2,0.2 0.3,0.3 0.2,0.3 0.2,0.2 0.3,0.2 0.2,0.2 0.3,0.2 0.3,0.2 0.3,0.1 0.3,0.2 0.3,0.1 0.4,0.1 0.3,0.1 0.3,0.1 0.3,0.1 h 0.4 l 0.3,0.1 h 0.3 86.8 v 0 h 0.3 l 0.3,-0.1 h 0.4 l 0.3,-0.1 0.3,-0.1 0.3,-0.1 0.4,-0.1 0.3,-0.1 0.3,-0.2 0.3,-0.1 0.3,-0.2 0.3,-0.2 0.2,-0.2 0.3,-0.2 0.2,-0.2 0.2,-0.3 0.3,-0.3 0.2,-0.2 0.2,-0.3 0.1,-0.3 0.2,-0.3 0.1,-0.3 0.2,-0.3 0.1,-0.3 0.1,-0.3 0.1,-0.4 v -0.3 l 0.1,-0.3 v -0.4 -0.3 -25.9 0 -0.4 -0.3 l -0.1,-0.3 v -0.4 l -0.1,-0.3 -0.1,-0.3 -0.1,-0.3 -0.2,-0.3 -0.1,-0.3 -0.1,-0.3 -0.2,-0.3 -0.2,-0.3 -0.2,-0.3 -0.2,-0.2 -0.3,-0.3 -0.2,-0.2 -0.3,-0.2 -0.2,-0.2 -0.3,-0.2 -0.3,-0.2 -0.3,-0.2 -0.3,-0.1 -0.3,-0.2 -0.3,-0.1 -0.3,-0.1 h -0.4 l -0.3,-0.1 -0.3,-0.1 h -0.4 -0.3 -86.8 v 0 h -0.3 -0.3 l -0.4,0.1 -0.3,0.1 h -0.3 l -0.3,0.1 -0.4,0.1 -0.3,0.2 -0.3,0.1 -0.3,0.2 -0.3,0.2 -0.3,0.1 -0.2,0.3 -0.3,0.2 -0.2,0.2 -0.2,0.2 -0.3,0.3 -0.2,0.3 -0.2,0.2 -0.1,0.3 -0.2,0.3 -0.2,0.3 -0.1,0.4 -0.1,0.3 -0.1,0.3 -0.1,0.3 v 0.3 l -0.1,0.4 v 0.3 0.4 z"
             inkscape:connector-curvature="0" /></g><g
           id="g48"><path
             id="path50"
             style="fill:none;stroke:#000000;stroke-width:0.99049997;stroke-linecap:butt;stroke-linejoin:round;stroke-miterlimit:10;stroke-dasharray:none;stroke-opacity:1"
             d="M 216.9,316.9 Z"
             inkscape:connector-curvature="0" /></g><g
           id="g52"><path
             id="path54"
             style="fill:none;stroke:#000000;stroke-width:0.99049997;stroke-linecap:butt;stroke-linejoin:round;stroke-miterlimit:10;stroke-dasharray:none;stroke-opacity:1"
             d="M 316.5,278 Z"
             inkscape:connector-curvature="0" /></g><g
           id="g56"><text
             id="text60"
             style="font-variant:normal;font-weight:normal;font-size:18px;font-family:Carlito;-inkscape-font-specification:Carlito;writing-mode:lr-tb;fill:#000000;fill-opacity:1;fill-rule:nonzero;stroke:none"
             transform="matrix(1,0,0,-1,232.4,290.2)"><tspan
               id="tspan58"
               y="0"
               x="0 9.2880001 15.282 24.768 32.273998 41.256001 48.330002 55.403999 59.490002">Process 1</tspan></text>
</g><g
           id="g62"><text
             id="text66"
             style="font-variant:normal;font-weight:normal;font-size:18px;font-family:Carlito;-inkscape-font-specification:Carlito;writing-mode:lr-tb;fill:#000000;fill-opacity:1;fill-rule:nonzero;stroke:none"
             transform="matrix(1,0,0,-1,46.5,223.5)"><tspan
               id="tspan64"
               y="0"
               x="0 9.198 13.302 22.788 31.77 36.161999 40.248001 48.852001 52.938 59.220001 63.216 72.702003 81.18 85.265999 94.751999 100.242 104.328 113.814 119.808 129.29401 136.8 145.782 152.856 159.92999 168.912 175.98599 180.07201 188.67599 196.07401 203.67 213.15601 221.75999 231.246 239.724 243.828 253.314 261.79199 265.87799 275.27399 283.76999 289.47601">Pipe, a ring of processes exchanging data</tspan></text>
</g><g
           id="g68"><text
             id="text72"
             style="font-variant:normal;font-weight:normal;font-size:18px;font-family:Carlito;-inkscape-font-specification:Carlito;writing-mode:lr-tb;fill:#000000;fill-opacity:1;fill-rule:nonzero;stroke:none"
             transform="matrix(1,0,0,-1,45.5,331.2)"><tspan
               id="tspan70"
               y="0"
               x="0 8.8920002 17.496 21.6 27.99 40.787998 44.891998 51.966 60.948002 65.033997 73.638 81.143997 88.650002 98.136002 106.74 116.226 124.524">Pairwise exchange</tspan></text>
</g><g
           id="g74"><g
             id="g76" /><g
             id="g90"><g
               style="opacity:0.38999999"
               id="g88"
               clip-path="url(#clipPath80)"><g
                 id="g84"><path
                   id="path82"
                   style="fill:none;stroke:#000000;stroke-width:2.00929999;stroke-linecap:butt;stroke-linejoin:round;stroke-miterlimit:10;stroke-dasharray:none;stroke-opacity:1"
                   d="m 127.4,304.7 h 85"
                   inkscape:connector-curvature="0" /></g><path
                 id="path86"
                 style="fill:#000000;fill-opacity:1;fill-rule:evenodd;stroke:none"
                 d="m 218.1,304.7 -6.1,-3 v 6.1 z"
                 inkscape:connector-curvature="0" /></g></g></g><g
           id="g92"><path
             id="path94"
             style="fill:none;stroke:#525e66;stroke-width:2.00929999;stroke-linecap:butt;stroke-linejoin:round;stroke-miterlimit:10;stroke-dasharray:none;stroke-opacity:1"
             d="m 127.4,306.3 h 85"
             inkscape:connector-curvature="0" /></g><path
           id="path96"
           style="fill:#525e66;fill-opacity:1;fill-rule:evenodd;stroke:none"
           d="m 218.1,306.3 -6.1,-3 v 6 z"
           inkscape:connector-curvature="0" /><g
           id="g98"><g
             id="g100" /><g
             id="g114"><g
               style="opacity:0.38999999"
               id="g112"
               clip-path="url(#clipPath104)"><g
                 id="g108"><path
                   id="path106"
                   style="fill:none;stroke:#000000;stroke-width:2.00929999;stroke-linecap:butt;stroke-linejoin:round;stroke-miterlimit:10;stroke-dasharray:none;stroke-opacity:1"
                   d="M 212.4,287.7 H 133"
                   inkscape:connector-curvature="0" /></g><path
                 id="path110"
                 style="fill:#000000;fill-opacity:1;fill-rule:evenodd;stroke:none"
                 d="m 127.4,287.7 6,3 v -6 z"
                 inkscape:connector-curvature="0" /></g></g></g><g
           id="g116"><path
             id="path118"
             style="fill:none;stroke:#525e66;stroke-width:2.00929999;stroke-linecap:butt;stroke-linejoin:round;stroke-miterlimit:10;stroke-dasharray:none;stroke-opacity:1"
             d="M 212.4,289.3 H 133"
             inkscape:connector-curvature="0" /></g><path
           id="path120"
           style="fill:#525e66;fill-opacity:1;fill-rule:evenodd;stroke:none"
           d="m 127.4,289.3 6,3 v -6 z"
           inkscape:connector-curvature="0" /><path
           id="path122"
           style="fill:#f2f2f2;fill-opacity:1;fill-rule:evenodd;stroke:none"
           d="m 410.8,311.2 v 0 0.4 l 0.1,0.3 v 0.3 l 0.1,0.3 0.1,0.4 v 0.3 l 0.2,0.3 0.1,0.3 0.1,0.4 0.2,0.2 0.2,0.3 0.2,0.3 0.2,0.3 0.2,0.2 0.2,0.3 0.3,0.2 0.2,0.2 0.3,0.2 0.3,0.2 0.3,0.2 0.2,0.2 0.4,0.1 0.3,0.2 0.3,0.1 h 0.3 l 0.4,0.1 0.3,0.1 h 0.3 l 0.3,0.1 h 0.4 86.7 v 0 h 0.3 l 0.4,-0.1 h 0.3 l 0.3,-0.1 0.4,-0.1 h 0.3 l 0.3,-0.1 0.3,-0.2 0.3,-0.1 0.3,-0.2 0.3,-0.2 0.3,-0.2 0.3,-0.2 0.2,-0.2 0.3,-0.2 0.2,-0.3 0.2,-0.2 0.2,-0.3 0.2,-0.3 0.2,-0.3 0.2,-0.2 0.1,-0.4 0.1,-0.3 0.2,-0.3 v -0.3 l 0.1,-0.4 0.1,-0.3 v -0.3 l 0.1,-0.3 v -0.4 -25.9 0 -0.3 l -0.1,-0.4 v -0.3 l -0.1,-0.3 -0.1,-0.4 v -0.3 l -0.2,-0.3 -0.1,-0.3 -0.1,-0.3 -0.2,-0.3 -0.2,-0.3 -0.2,-0.3 -0.2,-0.2 -0.2,-0.3 -0.2,-0.3 -0.3,-0.2 -0.2,-0.2 -0.3,-0.2 -0.3,-0.2 -0.2,-0.2 -0.4,-0.2 -0.3,-0.1 -0.3,-0.1 -0.3,-0.1 -0.3,-0.1 -0.3,-0.1 -0.4,-0.1 h -0.3 l -0.3,-0.1 H 504 417.3 v 0 h -0.4 l -0.3,0.1 h -0.3 l -0.3,0.1 -0.4,0.1 -0.3,0.1 -0.3,0.1 -0.3,0.1 -0.3,0.1 -0.3,0.2 -0.3,0.2 -0.3,0.2 -0.3,0.2 -0.2,0.2 -0.3,0.2 -0.2,0.3 -0.2,0.2 -0.2,0.3 -0.2,0.3 -0.2,0.2 -0.2,0.4 -0.1,0.3 -0.1,0.3 -0.2,0.3 v 0.3 l -0.1,0.3 -0.1,0.4 v 0.3 l -0.1,0.3 v 0.4 z m 0,6.5 z m 99.7,-38.9 z"
           inkscape:connector-curvature="0" /><g
           id="g124"><path
             id="path126"
             style="fill:none;stroke:#000000;stroke-width:0.99049997;stroke-linecap:butt;stroke-linejoin:round;stroke-miterlimit:10;stroke-dasharray:none;stroke-opacity:1"
             d="m 410.8,311.2 v 0 0.4 l 0.1,0.3 v 0.3 l 0.1,0.3 0.1,0.4 v 0.3 l 0.2,0.3 0.1,0.3 0.1,0.4 0.2,0.2 0.2,0.3 0.2,0.3 0.2,0.3 0.2,0.2 0.2,0.3 0.3,0.2 0.2,0.2 0.3,0.2 0.3,0.2 0.3,0.2 0.2,0.2 0.4,0.1 0.3,0.2 0.3,0.1 h 0.3 l 0.4,0.1 0.3,0.1 h 0.3 l 0.3,0.1 h 0.4 86.7 v 0 h 0.3 l 0.4,-0.1 h 0.3 l 0.3,-0.1 0.4,-0.1 h 0.3 l 0.3,-0.1 0.3,-0.2 0.3,-0.1 0.3,-0.2 0.3,-0.2 0.3,-0.2 0.3,-0.2 0.2,-0.2 0.3,-0.2 0.2,-0.3 0.2,-0.2 0.2,-0.3 0.2,-0.3 0.2,-0.3 0.2,-0.2 0.1,-0.4 0.1,-0.3 0.2,-0.3 v -0.3 l 0.1,-0.4 0.1,-0.3 v -0.3 l 0.1,-0.3 v -0.4 -25.9 0 -0.3 l -0.1,-0.4 v -0.3 l -0.1,-0.3 -0.1,-0.4 v -0.3 l -0.2,-0.3 -0.1,-0.3 -0.1,-0.3 -0.2,-0.3 -0.2,-0.3 -0.2,-0.3 -0.2,-0.2 -0.2,-0.3 -0.2,-0.3 -0.3,-0.2 -0.2,-0.2 -0.3,-0.2 -0.3,-0.2 -0.2,-0.2 -0.4,-0.2 -0.3,-0.1 -0.3,-0.1 -0.3,-0.1 -0.3,-0.1 -0.3,-0.1 -0.4,-0.1 h -0.3 l -0.3,-0.1 H 504 417.3 v 0 h -0.4 l -0.3,0.1 h -0.3 l -0.3,0.1 -0.4,0.1 -0.3,0.1 -0.3,0.1 -0.3,0.1 -0.3,0.1 -0.3,0.2 -0.3,0.2 -0.3,0.2 -0.3,0.2 -0.2,0.2 -0.3,0.2 -0.2,0.3 -0.2,0.2 -0.2,0.3 -0.2,0.3 -0.2,0.2 -0.2,0.4 -0.1,0.3 -0.1,0.3 -0.2,0.3 v 0.3 l -0.1,0.3 -0.1,0.4 v 0.3 l -0.1,0.3 v 0.4 z"
             inkscape:connector-curvature="0" /></g><g
           id="g128"><path
             id="path130"
             style="fill:none;stroke:#000000;stroke-width:0.99049997;stroke-linecap:butt;stroke-linejoin:round;stroke-miterlimit:10;stroke-dasharray:none;stroke-opacity:1"
             d="M 410.8,317.7 Z"
             inkscape:connector-curvature="0" /></g><g
           id="g132"><path
             id="path134"
             style="fill:none;stroke:#000000;stroke-width:0.99049997;stroke-linecap:butt;stroke-linejoin:round;stroke-miterlimit:10;stroke-dasharray:none;stroke-opacity:1"
             d="M 510.5,278.8 Z"
             inkscape:connector-curvature="0" /></g><g
           id="g136"><text
             id="text140"
             style="font-variant:normal;font-weight:normal;font-size:18px;font-family:Carlito;-inkscape-font-specification:Carlito;writing-mode:lr-tb;fill:#000000;fill-opacity:1;fill-rule:nonzero;stroke:none"
             transform="matrix(1,0,0,-1,426.4,291)"><tspan
               id="tspan138"
               y="0"
               x="0 9.198 15.192 24.677999 32.273998 41.256001 48.257999 55.332001 59.417999">Process 2</tspan></text>
</g><g
           id="g142"><g
             id="g144" /><g
             id="g158"><g
               style="opacity:0.38999999"
               id="g156"
               clip-path="url(#clipPath148)"><g
                 id="g152"><path
                   id="path150"
                   style="fill:none;stroke:#000000;stroke-width:2.00929999;stroke-linecap:butt;stroke-linejoin:round;stroke-miterlimit:10;stroke-dasharray:none;stroke-opacity:1"
                   d="m 321.3,305.6 h 85.1"
                   inkscape:connector-curvature="0" /></g><path
                 id="path154"
                 style="fill:#000000;fill-opacity:1;fill-rule:evenodd;stroke:none"
                 d="m 412,305.6 -6,-3.1 v 6.1 z"
                 inkscape:connector-curvature="0" /></g></g></g><g
           id="g160"><path
             id="path162"
             style="fill:none;stroke:#525e66;stroke-width:2.00929999;stroke-linecap:butt;stroke-linejoin:round;stroke-miterlimit:10;stroke-dasharray:none;stroke-opacity:1"
             d="m 321.3,307.2 h 85.1"
             inkscape:connector-curvature="0" /></g><path
           id="path164"
           style="fill:#525e66;fill-opacity:1;fill-rule:evenodd;stroke:none"
           d="m 412,307.2 -6,-3.1 v 6.1 z"
           inkscape:connector-curvature="0" /><g
           id="g166"><g
             id="g168" /><g
             id="g182"><g
               style="opacity:0.38999999"
               id="g180"
               clip-path="url(#clipPath172)"><g
                 id="g176"><path
                   id="path174"
                   style="fill:none;stroke:#000000;stroke-width:2.00929999;stroke-linecap:butt;stroke-linejoin:round;stroke-miterlimit:10;stroke-dasharray:none;stroke-opacity:1"
                   d="M 406.3,288.6 H 326.9"
                   inkscape:connector-curvature="0" /></g><path
                 id="path178"
                 style="fill:#000000;fill-opacity:1;fill-rule:evenodd;stroke:none"
                 d="m 321.3,288.6 6,3 v -6.1 z"
                 inkscape:connector-curvature="0" /></g></g></g><g
           id="g184"><path
             id="path186"
             style="fill:none;stroke:#525e66;stroke-width:2.00929999;stroke-linecap:butt;stroke-linejoin:round;stroke-miterlimit:10;stroke-dasharray:none;stroke-opacity:1"
             d="M 406.3,290.2 H 326.9"
             inkscape:connector-curvature="0" /></g><path
           id="path188"
           style="fill:#525e66;fill-opacity:1;fill-rule:evenodd;stroke:none"
           d="m 321.3,290.2 6,3 v -6.1 z"
           inkscape:connector-curvature="0" /><path
           id="path190"
           style="fill:#f2f2f2;fill-opacity:1;fill-rule:evenodd;stroke:none"
           d="m 597.9,311.2 v 0 0.4 l 0.1,0.3 v 0.3 l 0.1,0.3 0.1,0.4 0.1,0.3 0.1,0.3 0.1,0.3 0.1,0.4 0.2,0.2 0.2,0.3 0.2,0.3 0.2,0.3 0.2,0.2 0.2,0.3 0.3,0.2 0.2,0.2 0.3,0.2 0.3,0.2 0.3,0.2 0.3,0.2 0.3,0.1 0.3,0.2 0.3,0.1 h 0.3 l 0.4,0.1 0.3,0.1 h 0.3 l 0.4,0.1 h 0.3 86.7 v 0 h 0.4 l 0.3,-0.1 h 0.3 l 0.3,-0.1 0.4,-0.1 h 0.3 l 0.3,-0.1 0.4,-0.2 0.3,-0.1 0.2,-0.2 0.3,-0.2 0.3,-0.2 0.3,-0.2 0.3,-0.2 0.2,-0.2 0.2,-0.3 0.2,-0.2 0.2,-0.3 0.2,-0.3 0.2,-0.3 0.2,-0.2 0.1,-0.4 0.2,-0.3 0.1,-0.3 0.1,-0.3 v -0.4 l 0.1,-0.3 v -0.3 l 0.1,-0.3 v -0.4 -25.9 0 -0.3 l -0.1,-0.4 v -0.3 l -0.1,-0.3 v -0.4 l -0.1,-0.3 -0.1,-0.3 -0.2,-0.3 -0.1,-0.3 -0.2,-0.3 -0.2,-0.3 -0.1,-0.3 -0.3,-0.2 -0.2,-0.3 -0.2,-0.3 -0.2,-0.2 -0.3,-0.2 -0.3,-0.2 -0.2,-0.2 -0.3,-0.2 -0.3,-0.2 -0.3,-0.1 -0.4,-0.1 -0.3,-0.1 -0.3,-0.1 -0.3,-0.1 -0.3,-0.1 h -0.4 l -0.3,-0.1 h -0.4 -86.7 v 0 h -0.3 l -0.4,0.1 h -0.3 l -0.3,0.1 -0.4,0.1 -0.3,0.1 -0.3,0.1 -0.3,0.1 -0.3,0.1 -0.3,0.2 -0.3,0.2 -0.3,0.2 -0.3,0.2 -0.2,0.2 -0.3,0.2 -0.2,0.3 -0.2,0.2 -0.2,0.3 -0.2,0.3 -0.2,0.2 -0.2,0.4 -0.1,0.3 -0.1,0.3 -0.1,0.3 -0.1,0.3 -0.1,0.3 -0.1,0.4 v 0.3 l -0.1,0.3 v 0.4 z m 0,6.5 z m 99.7,-38.9 z"
           inkscape:connector-curvature="0" /><g
           id="g192"><path
             id="path194"
             style="fill:none;stroke:#000000;stroke-width:0.99049997;stroke-linecap:butt;stroke-linejoin:round;stroke-miterlimit:10;stroke-dasharray:none;stroke-opacity:1"
             d="m 597.9,311.2 v 0 0.4 l 0.1,0.3 v 0.3 l 0.1,0.3 0.1,0.4 0.1,0.3 0.1,0.3 0.1,0.3 0.1,0.4 0.2,0.2 0.2,0.3 0.2,0.3 0.2,0.3 0.2,0.2 0.2,0.3 0.3,0.2 0.2,0.2 0.3,0.2 0.3,0.2 0.3,0.2 0.3,0.2 0.3,0.1 0.3,0.2 0.3,0.1 h 0.3 l 0.4,0.1 0.3,0.1 h 0.3 l 0.4,0.1 h 0.3 86.7 v 0 h 0.4 l 0.3,-0.1 h 0.3 l 0.3,-0.1 0.4,-0.1 h 0.3 l 0.3,-0.1 0.4,-0.2 0.3,-0.1 0.2,-0.2 0.3,-0.2 0.3,-0.2 0.3,-0.2 0.3,-0.2 0.2,-0.2 0.2,-0.3 0.2,-0.2 0.2,-0.3 0.2,-0.3 0.2,-0.3 0.2,-0.2 0.1,-0.4 0.2,-0.3 0.1,-0.3 0.1,-0.3 v -0.4 l 0.1,-0.3 v -0.3 l 0.1,-0.3 v -0.4 -25.9 0 -0.3 l -0.1,-0.4 v -0.3 l -0.1,-0.3 v -0.4 l -0.1,-0.3 -0.1,-0.3 -0.2,-0.3 -0.1,-0.3 -0.2,-0.3 -0.2,-0.3 -0.1,-0.3 -0.3,-0.2 -0.2,-0.3 -0.2,-0.3 -0.2,-0.2 -0.3,-0.2 -0.3,-0.2 -0.2,-0.2 -0.3,-0.2 -0.3,-0.2 -0.3,-0.1 -0.4,-0.1 -0.3,-0.1 -0.3,-0.1 -0.3,-0.1 -0.3,-0.1 h -0.4 l -0.3,-0.1 h -0.4 -86.7 v 0 h -0.3 l -0.4,0.1 h -0.3 l -0.3,0.1 -0.4,0.1 -0.3,0.1 -0.3,0.1 -0.3,0.1 -0.3,0.1 -0.3,0.2 -0.3,0.2 -0.3,0.2 -0.3,0.2 -0.2,0.2 -0.3,0.2 -0.2,0.3 -0.2,0.2 -0.2,0.3 -0.2,0.3 -0.2,0.2 -0.2,0.4 -0.1,0.3 -0.1,0.3 -0.1,0.3 -0.1,0.3 -0.1,0.3 -0.1,0.4 v 0.3 l -0.1,0.3 v 0.4 z"
             inkscape:connector-curvature="0" /></g><g
           id="g196"><path
             id="path198"
             style="fill:none;stroke:#000000;stroke-width:0.99049997;stroke-linecap:butt;stroke-linejoin:round;stroke-miterlimit:10;stroke-dasharray:none;stroke-opacity:1"
             d="M 597.9,317.7 Z"
             inkscape:connector-curvature="0" /></g><g
           id="g200"><path
             id="path202"
             style="fill:none;stroke:#000000;stroke-width:0.99049997;stroke-linecap:butt;stroke-linejoin:round;stroke-miterlimit:10;stroke-dasharray:none;stroke-opacity:1"
             d="M 697.6,278.8 Z"
             inkscape:connector-curvature="0" /></g><g
           id="g204"><text
             id="text208"
             style="font-variant:normal;font-weight:normal;font-size:18px;font-family:Carlito;-inkscape-font-specification:Carlito;writing-mode:lr-tb;fill:#000000;fill-opacity:1;fill-rule:nonzero;stroke:none"
             transform="matrix(1,0,0,-1,613.5,291)"><tspan
               id="tspan206"
               y="0"
               x="0 9.198 15.3 24.695999 32.292 41.273998 48.348 55.349998 59.436001">Process 3</tspan></text>
</g><g
           id="g210"><g
             id="g212" /><g
             id="g226"><g
               style="opacity:0.38999999"
               id="g224"
               clip-path="url(#clipPath216)"><g
                 id="g220"><path
                   id="path218"
                   style="fill:none;stroke:#000000;stroke-width:2.00929999;stroke-linecap:butt;stroke-linejoin:round;stroke-miterlimit:10;stroke-dasharray:none;stroke-opacity:1"
                   d="m 508.4,305.6 h 85.1"
                   inkscape:connector-curvature="0" /></g><path
                 id="path222"
                 style="fill:#000000;fill-opacity:1;fill-rule:evenodd;stroke:none"
                 d="m 599.1,305.6 -6,-3.1 v 6.1 z"
                 inkscape:connector-curvature="0" /></g></g></g><g
           id="g228"><path
             id="path230"
             style="fill:none;stroke:#525e66;stroke-width:2.00929999;stroke-linecap:butt;stroke-linejoin:round;stroke-miterlimit:10;stroke-dasharray:none;stroke-opacity:1"
             d="m 508.4,307.2 h 85.1"
             inkscape:connector-curvature="0" /></g><path
           id="path232"
           style="fill:#525e66;fill-opacity:1;fill-rule:evenodd;stroke:none"
           d="m 599.1,307.2 -6,-3.1 v 6.1 z"
           inkscape:connector-curvature="0" /><g
           id="g234"><g
             id="g236" /><g
             id="g250"><g
               style="opacity:0.38999999"
               id="g248"
               clip-path="url(#clipPath240)"><g
                 id="g244"><path
                   id="path242"
                   style="fill:none;stroke:#000000;stroke-width:2.00929999;stroke-linecap:butt;stroke-linejoin:round;stroke-miterlimit:10;stroke-dasharray:none;stroke-opacity:1"
                   d="M 593.5,288.6 H 514"
                   inkscape:connector-curvature="0" /></g><path
                 id="path246"
                 style="fill:#000000;fill-opacity:1;fill-rule:evenodd;stroke:none"
                 d="m 508.4,288.6 6,3 v -6.1 z"
                 inkscape:connector-curvature="0" /></g></g></g><g
           id="g252"><path
             id="path254"
             style="fill:none;stroke:#525e66;stroke-width:2.00929999;stroke-linecap:butt;stroke-linejoin:round;stroke-miterlimit:10;stroke-dasharray:none;stroke-opacity:1"
             d="M 593.5,290.2 H 514"
             inkscape:connector-curvature="0" /></g><path
           id="path256"
           style="fill:#525e66;fill-opacity:1;fill-rule:evenodd;stroke:none"
           d="m 508.4,290.2 6,3 v -6.1 z"
           inkscape:connector-curvature="0" /><path
           id="path258"
           style="fill:#f2f2f2;fill-opacity:1;fill-rule:evenodd;stroke:none"
           d="m 44.7,197.8 v 0 0.3 0.4 l 0.1,0.3 v 0.3 l 0.1,0.4 0.1,0.3 0.1,0.3 0.1,0.3 0.2,0.3 0.2,0.3 0.1,0.3 0.2,0.3 0.2,0.3 0.2,0.2 0.3,0.3 0.2,0.2 0.3,0.2 0.2,0.2 0.3,0.2 0.3,0.2 0.3,0.2 0.3,0.1 0.3,0.1 0.4,0.1 0.3,0.1 0.3,0.1 0.3,0.1 h 0.4 l 0.3,0.1 h 0.3 86.7 v 0 h 0.4 l 0.3,-0.1 h 0.4 l 0.3,-0.1 0.3,-0.1 0.3,-0.1 0.4,-0.1 0.3,-0.1 0.3,-0.1 0.3,-0.2 0.3,-0.2 0.2,-0.2 0.3,-0.2 0.3,-0.2 0.2,-0.2 0.2,-0.3 0.3,-0.2 0.2,-0.3 0.2,-0.3 0.1,-0.3 0.2,-0.3 0.1,-0.3 0.2,-0.3 0.1,-0.3 0.1,-0.3 0.1,-0.4 v -0.3 l 0.1,-0.3 v -0.4 -0.3 -25.9 0 -0.4 -0.3 l -0.1,-0.3 v -0.3 l -0.1,-0.4 -0.1,-0.3 -0.1,-0.3 -0.2,-0.3 -0.1,-0.3 -0.1,-0.3 -0.2,-0.3 -0.2,-0.3 -0.2,-0.3 -0.2,-0.2 -0.3,-0.3 -0.2,-0.2 -0.3,-0.2 -0.3,-0.2 -0.2,-0.2 -0.3,-0.2 -0.3,-0.2 -0.3,-0.1 -0.3,-0.1 -0.3,-0.2 h -0.4 l -0.3,-0.1 -0.3,-0.1 h -0.3 l -0.4,-0.1 h -0.3 -86.8 v 0 h -0.3 l -0.3,0.1 h -0.4 l -0.3,0.1 -0.3,0.1 h -0.3 l -0.4,0.2 -0.3,0.1 -0.3,0.1 -0.3,0.2 -0.3,0.2 -0.3,0.1 -0.2,0.3 -0.3,0.2 -0.2,0.2 -0.3,0.3 -0.2,0.2 -0.2,0.3 -0.2,0.2 -0.1,0.3 -0.2,0.3 -0.2,0.4 -0.1,0.3 -0.1,0.3 -0.1,0.3 -0.1,0.3 v 0.3 l -0.1,0.4 v 0.3 0.4 z m 0,6.5 z m 99.6,-38.9 z"
           inkscape:connector-curvature="0" /><g
           id="g260"><path
             id="path262"
             style="fill:none;stroke:#000000;stroke-width:0.73580003;stroke-linecap:butt;stroke-linejoin:round;stroke-miterlimit:10;stroke-dasharray:none;stroke-opacity:1"
             d="m 44.7,197.8 v 0 0.3 0.4 l 0.1,0.3 v 0.3 l 0.1,0.4 0.1,0.3 0.1,0.3 0.1,0.3 0.2,0.3 0.2,0.3 0.1,0.3 0.2,0.3 0.2,0.3 0.2,0.2 0.3,0.3 0.2,0.2 0.3,0.2 0.2,0.2 0.3,0.2 0.3,0.2 0.3,0.2 0.3,0.1 0.3,0.1 0.4,0.1 0.3,0.1 0.3,0.1 0.3,0.1 h 0.4 l 0.3,0.1 h 0.3 86.7 v 0 h 0.4 l 0.3,-0.1 h 0.4 l 0.3,-0.1 0.3,-0.1 0.3,-0.1 0.4,-0.1 0.3,-0.1 0.3,-0.1 0.3,-0.2 0.3,-0.2 0.2,-0.2 0.3,-0.2 0.3,-0.2 0.2,-0.2 0.2,-0.3 0.3,-0.2 0.2,-0.3 0.2,-0.3 0.1,-0.3 0.2,-0.3 0.1,-0.3 0.2,-0.3 0.1,-0.3 0.1,-0.3 0.1,-0.4 v -0.3 l 0.1,-0.3 v -0.4 -0.3 -25.9 0 -0.4 -0.3 l -0.1,-0.3 v -0.3 l -0.1,-0.4 -0.1,-0.3 -0.1,-0.3 -0.2,-0.3 -0.1,-0.3 -0.1,-0.3 -0.2,-0.3 -0.2,-0.3 -0.2,-0.3 -0.2,-0.2 -0.3,-0.3 -0.2,-0.2 -0.3,-0.2 -0.3,-0.2 -0.2,-0.2 -0.3,-0.2 -0.3,-0.2 -0.3,-0.1 -0.3,-0.1 -0.3,-0.2 h -0.4 l -0.3,-0.1 -0.3,-0.1 h -0.3 l -0.4,-0.1 h -0.3 -86.8 v 0 h -0.3 l -0.3,0.1 h -0.4 l -0.3,0.1 -0.3,0.1 h -0.3 l -0.4,0.2 -0.3,0.1 -0.3,0.1 -0.3,0.2 -0.3,0.2 -0.3,0.1 -0.2,0.3 -0.3,0.2 -0.2,0.2 -0.3,0.3 -0.2,0.2 -0.2,0.3 -0.2,0.2 -0.1,0.3 -0.2,0.3 -0.2,0.4 -0.1,0.3 -0.1,0.3 -0.1,0.3 -0.1,0.3 v 0.3 l -0.1,0.4 v 0.3 0.4 z"
             inkscape:connector-curvature="0" /></g><g
           id="g264"><path
             id="path266"
             style="fill:none;stroke:#000000;stroke-width:0.73580003;stroke-linecap:butt;stroke-linejoin:round;stroke-miterlimit:10;stroke-dasharray:none;stroke-opacity:1"
             d="M 44.7,204.3 Z"
             inkscape:connector-curvature="0" /></g><g
           id="g268"><path
             id="path270"
             style="fill:none;stroke:#000000;stroke-width:0.73580003;stroke-linecap:butt;stroke-linejoin:round;stroke-miterlimit:10;stroke-dasharray:none;stroke-opacity:1"
             d="M 144.3,165.4 Z"
             inkscape:connector-curvature="0" /></g><g
           id="g272"><text
             id="text276"
             style="font-variant:normal;font-weight:normal;font-size:18px;font-family:Carlito;-inkscape-font-specification:Carlito;writing-mode:lr-tb;fill:#000000;fill-opacity:1;fill-rule:nonzero;stroke:none"
             transform="matrix(1,0,0,-1,60.2,177.6)"><tspan
               id="tspan274"
               y="0"
               x="0 9.2880001 15.282 24.768 32.273998 41.256001 48.330002 55.403999 59.490002">Process 0</tspan></text>
</g><path
           id="path278"
           style="fill:#f2f2f2;fill-opacity:1;fill-rule:evenodd;stroke:none"
           d="m 218,197.8 v 0 0.3 l 0.1,0.4 v 0.3 l 0.1,0.3 0.1,0.4 0.1,0.3 0.1,0.3 0.1,0.3 0.1,0.3 0.2,0.3 0.2,0.3 0.2,0.3 0.2,0.3 0.2,0.2 0.2,0.3 0.3,0.2 0.3,0.2 0.2,0.2 0.3,0.2 0.3,0.2 0.3,0.2 0.3,0.1 0.3,0.1 0.3,0.1 0.3,0.1 0.4,0.1 0.3,0.1 h 0.3 l 0.4,0.1 h 0.3 86.7 v 0 h 0.4 l 0.3,-0.1 h 0.3 l 0.3,-0.1 0.4,-0.1 0.3,-0.1 0.3,-0.1 0.4,-0.1 0.3,-0.1 0.2,-0.2 0.3,-0.2 0.3,-0.2 0.3,-0.2 0.3,-0.2 0.2,-0.2 0.2,-0.3 0.2,-0.2 0.2,-0.3 0.2,-0.3 0.2,-0.3 0.2,-0.3 0.1,-0.3 0.2,-0.3 0.1,-0.3 0.1,-0.3 v -0.4 l 0.1,-0.3 0.1,-0.3 v -0.4 -0.3 -25.9 0 -0.4 -0.3 l -0.1,-0.3 -0.1,-0.3 v -0.4 l -0.1,-0.3 -0.1,-0.3 -0.2,-0.3 -0.1,-0.3 -0.2,-0.3 -0.2,-0.3 -0.1,-0.3 -0.3,-0.3 -0.2,-0.2 -0.2,-0.3 -0.2,-0.2 -0.3,-0.2 -0.3,-0.2 -0.2,-0.2 -0.3,-0.2 -0.3,-0.2 -0.3,-0.1 -0.4,-0.1 -0.3,-0.2 h -0.3 l -0.3,-0.1 -0.3,-0.1 h -0.4 l -0.3,-0.1 h -0.4 -86.7 v 0 h -0.3 l -0.4,0.1 h -0.3 l -0.3,0.1 -0.4,0.1 h -0.3 l -0.3,0.2 -0.3,0.1 -0.3,0.1 -0.3,0.2 -0.3,0.2 -0.3,0.1 -0.2,0.3 -0.3,0.2 -0.3,0.2 -0.2,0.3 -0.2,0.2 -0.2,0.3 -0.2,0.2 -0.2,0.3 -0.2,0.3 -0.1,0.4 -0.1,0.3 -0.1,0.3 -0.1,0.3 -0.1,0.3 -0.1,0.3 v 0.4 l -0.1,0.3 v 0.4 z m 0,6.5 z m 99.7,-38.9 z"
           inkscape:connector-curvature="0" /><g
           id="g280"><path
             id="path282"
             style="fill:none;stroke:#000000;stroke-width:0.99049997;stroke-linecap:butt;stroke-linejoin:round;stroke-miterlimit:10;stroke-dasharray:none;stroke-opacity:1"
             d="m 218,197.8 v 0 0.3 l 0.1,0.4 v 0.3 l 0.1,0.3 0.1,0.4 0.1,0.3 0.1,0.3 0.1,0.3 0.1,0.3 0.2,0.3 0.2,0.3 0.2,0.3 0.2,0.3 0.2,0.2 0.2,0.3 0.3,0.2 0.3,0.2 0.2,0.2 0.3,0.2 0.3,0.2 0.3,0.2 0.3,0.1 0.3,0.1 0.3,0.1 0.3,0.1 0.4,0.1 0.3,0.1 h 0.3 l 0.4,0.1 h 0.3 86.7 v 0 h 0.4 l 0.3,-0.1 h 0.3 l 0.3,-0.1 0.4,-0.1 0.3,-0.1 0.3,-0.1 0.4,-0.1 0.3,-0.1 0.2,-0.2 0.3,-0.2 0.3,-0.2 0.3,-0.2 0.3,-0.2 0.2,-0.2 0.2,-0.3 0.2,-0.2 0.2,-0.3 0.2,-0.3 0.2,-0.3 0.2,-0.3 0.1,-0.3 0.2,-0.3 0.1,-0.3 0.1,-0.3 v -0.4 l 0.1,-0.3 0.1,-0.3 v -0.4 -0.3 -25.9 0 -0.4 -0.3 l -0.1,-0.3 -0.1,-0.3 v -0.4 l -0.1,-0.3 -0.1,-0.3 -0.2,-0.3 -0.1,-0.3 -0.2,-0.3 -0.2,-0.3 -0.1,-0.3 -0.3,-0.3 -0.2,-0.2 -0.2,-0.3 -0.2,-0.2 -0.3,-0.2 -0.3,-0.2 -0.2,-0.2 -0.3,-0.2 -0.3,-0.2 -0.3,-0.1 -0.4,-0.1 -0.3,-0.2 h -0.3 l -0.3,-0.1 -0.3,-0.1 h -0.4 l -0.3,-0.1 h -0.4 -86.7 v 0 h -0.3 l -0.4,0.1 h -0.3 l -0.3,0.1 -0.4,0.1 h -0.3 l -0.3,0.2 -0.3,0.1 -0.3,0.1 -0.3,0.2 -0.3,0.2 -0.3,0.1 -0.2,0.3 -0.3,0.2 -0.3,0.2 -0.2,0.3 -0.2,0.2 -0.2,0.3 -0.2,0.2 -0.2,0.3 -0.2,0.3 -0.1,0.4 -0.1,0.3 -0.1,0.3 -0.1,0.3 -0.1,0.3 -0.1,0.3 v 0.4 l -0.1,0.3 v 0.4 z"
             inkscape:connector-curvature="0" /></g><g
           id="g284"><path
             id="path286"
             style="fill:none;stroke:#000000;stroke-width:0.99049997;stroke-linecap:butt;stroke-linejoin:round;stroke-miterlimit:10;stroke-dasharray:none;stroke-opacity:1"
             d="M 218,204.3 Z"
             inkscape:connector-curvature="0" /></g><g
           id="g288"><path
             id="path290"
             style="fill:none;stroke:#000000;stroke-width:0.99049997;stroke-linecap:butt;stroke-linejoin:round;stroke-miterlimit:10;stroke-dasharray:none;stroke-opacity:1"
             d="M 317.7,165.4 Z"
             inkscape:connector-curvature="0" /></g><g
           id="g292"><text
             id="text296"
             style="font-variant:normal;font-weight:normal;font-size:18px;font-family:Carlito;-inkscape-font-specification:Carlito;writing-mode:lr-tb;fill:#000000;fill-opacity:1;fill-rule:nonzero;stroke:none"
             transform="matrix(1,0,0,-1,233.6,177.6)"><tspan
               id="tspan294"
               y="0"
               x="0 9.198 15.3 24.695999 32.292 41.273998 48.348 55.349998 59.436001">Process 1</tspan></text>
</g><path
           id="path298"
           style="fill:#f2f2f2;fill-opacity:1;fill-rule:evenodd;stroke:none"
           d="m 410.8,197.9 v 0 0.3 l 0.1,0.3 v 0.4 l 0.1,0.3 0.1,0.3 v 0.3 l 0.2,0.4 0.1,0.3 0.1,0.3 0.2,0.3 0.2,0.3 0.2,0.3 0.2,0.2 0.2,0.3 0.2,0.2 0.3,0.2 0.2,0.3 0.3,0.2 0.3,0.2 0.3,0.1 0.2,0.2 0.4,0.2 0.3,0.1 0.3,0.1 0.3,0.1 0.4,0.1 h 0.3 l 0.3,0.1 h 0.3 0.4 86.7 v 0 h 0.3 0.4 l 0.3,-0.1 h 0.3 l 0.4,-0.1 0.3,-0.1 0.3,-0.1 0.3,-0.1 0.3,-0.2 0.3,-0.2 0.3,-0.1 0.3,-0.2 0.3,-0.2 0.2,-0.3 0.3,-0.2 0.2,-0.2 0.2,-0.3 0.2,-0.2 0.2,-0.3 0.2,-0.3 0.2,-0.3 0.1,-0.3 0.1,-0.3 0.2,-0.4 v -0.3 l 0.1,-0.3 0.1,-0.3 v -0.4 l 0.1,-0.3 v -0.3 -26 0 -0.3 l -0.1,-0.3 v -0.4 l -0.1,-0.3 -0.1,-0.3 V 170 l -0.2,-0.3 -0.1,-0.4 -0.1,-0.3 -0.2,-0.3 -0.2,-0.3 -0.2,-0.3 -0.2,-0.2 -0.2,-0.3 -0.2,-0.2 -0.3,-0.2 -0.2,-0.3 -0.3,-0.2 -0.3,-0.2 -0.2,-0.1 -0.4,-0.2 -0.3,-0.1 -0.3,-0.2 -0.3,-0.1 -0.3,-0.1 -0.3,-0.1 H 505 l -0.3,-0.1 h -0.3 -0.4 -86.7 v 0 h -0.4 -0.3 l -0.3,0.1 H 416 l -0.4,0.1 -0.3,0.1 -0.3,0.1 -0.3,0.2 -0.3,0.1 -0.3,0.1 -0.3,0.2 -0.3,0.2 -0.3,0.2 -0.2,0.2 -0.3,0.3 -0.2,0.2 -0.2,0.3 -0.2,0.2 -0.2,0.3 -0.2,0.3 -0.2,0.3 -0.1,0.3 -0.1,0.3 -0.2,0.3 v 0.3 l -0.1,0.4 -0.1,0.3 v 0.3 l -0.1,0.4 v 0.3 z m 0,6.4 z m 99.7,-38.8 z"
           inkscape:connector-curvature="0" /><g
           id="g300"><path
             id="path302"
             style="fill:none;stroke:#000000;stroke-width:0.99049997;stroke-linecap:butt;stroke-linejoin:round;stroke-miterlimit:10;stroke-dasharray:none;stroke-opacity:1"
             d="m 410.8,197.9 v 0 0.3 l 0.1,0.3 v 0.4 l 0.1,0.3 0.1,0.3 v 0.3 l 0.2,0.4 0.1,0.3 0.1,0.3 0.2,0.3 0.2,0.3 0.2,0.3 0.2,0.2 0.2,0.3 0.2,0.2 0.3,0.2 0.2,0.3 0.3,0.2 0.3,0.2 0.3,0.1 0.2,0.2 0.4,0.2 0.3,0.1 0.3,0.1 0.3,0.1 0.4,0.1 h 0.3 l 0.3,0.1 h 0.3 0.4 86.7 v 0 h 0.3 0.4 l 0.3,-0.1 h 0.3 l 0.4,-0.1 0.3,-0.1 0.3,-0.1 0.3,-0.1 0.3,-0.2 0.3,-0.2 0.3,-0.1 0.3,-0.2 0.3,-0.2 0.2,-0.3 0.3,-0.2 0.2,-0.2 0.2,-0.3 0.2,-0.2 0.2,-0.3 0.2,-0.3 0.2,-0.3 0.1,-0.3 0.1,-0.3 0.2,-0.4 v -0.3 l 0.1,-0.3 0.1,-0.3 v -0.4 l 0.1,-0.3 v -0.3 -26 0 -0.3 l -0.1,-0.3 v -0.4 l -0.1,-0.3 -0.1,-0.3 V 170 l -0.2,-0.3 -0.1,-0.4 -0.1,-0.3 -0.2,-0.3 -0.2,-0.3 -0.2,-0.3 -0.2,-0.2 -0.2,-0.3 -0.2,-0.2 -0.3,-0.2 -0.2,-0.3 -0.3,-0.2 -0.3,-0.2 -0.2,-0.1 -0.4,-0.2 -0.3,-0.1 -0.3,-0.2 -0.3,-0.1 -0.3,-0.1 -0.3,-0.1 H 505 l -0.3,-0.1 h -0.3 -0.4 -86.7 v 0 h -0.4 -0.3 l -0.3,0.1 H 416 l -0.4,0.1 -0.3,0.1 -0.3,0.1 -0.3,0.2 -0.3,0.1 -0.3,0.1 -0.3,0.2 -0.3,0.2 -0.3,0.2 -0.2,0.2 -0.3,0.3 -0.2,0.2 -0.2,0.3 -0.2,0.2 -0.2,0.3 -0.2,0.3 -0.2,0.3 -0.1,0.3 -0.1,0.3 -0.2,0.3 v 0.3 l -0.1,0.4 -0.1,0.3 v 0.3 l -0.1,0.4 v 0.3 z"
             inkscape:connector-curvature="0" /></g><g
           id="g304"><path
             id="path306"
             style="fill:none;stroke:#000000;stroke-width:0.99049997;stroke-linecap:butt;stroke-linejoin:round;stroke-miterlimit:10;stroke-dasharray:none;stroke-opacity:1"
             d="M 410.8,204.3 Z"
             inkscape:connector-curvature="0" /></g><g
           id="g308"><path
             id="path310"
             style="fill:none;stroke:#000000;stroke-width:0.99049997;stroke-linecap:butt;stroke-linejoin:round;stroke-miterlimit:10;stroke-dasharray:none;stroke-opacity:1"
             d="M 510.5,165.5 Z"
             inkscape:connector-curvature="0" /></g><g
           id="g312"><text
             id="text316"
             style="font-variant:normal;font-weight:normal;font-size:18px;font-family:Carlito;-inkscape-font-specification:Carlito;writing-mode:lr-tb;fill:#000000;fill-opacity:1;fill-rule:nonzero;stroke:none"
             transform="matrix(1,0,0,-1,426.4,177.6)"><tspan
               id="tspan314"
               y="0"
               x="0 9.198 15.192 24.677999 32.273998 41.256001 48.257999 55.332001 59.417999">Process 2</tspan></text>
</g><path
           id="path318"
           style="fill:#f2f2f2;fill-opacity:1;fill-rule:evenodd;stroke:none"
           d="m 599.8,197.9 v 0 0.3 l 0.1,0.3 v 0.4 l 0.1,0.3 0.1,0.3 0.1,0.3 0.1,0.4 0.1,0.3 0.1,0.3 0.2,0.3 0.2,0.3 0.2,0.3 0.2,0.2 0.2,0.3 0.2,0.2 0.3,0.2 0.2,0.3 0.3,0.2 0.3,0.2 0.3,0.1 0.3,0.2 0.3,0.2 0.3,0.1 0.3,0.1 0.3,0.1 0.4,0.1 h 0.3 l 0.3,0.1 h 0.4 0.3 86.7 v 0 h 0.4 0.3 l 0.3,-0.1 h 0.3 l 0.4,-0.1 0.3,-0.1 0.3,-0.1 0.4,-0.1 0.3,-0.2 0.2,-0.2 0.3,-0.1 0.3,-0.2 0.3,-0.2 0.3,-0.3 0.2,-0.2 0.2,-0.2 0.2,-0.3 0.2,-0.2 0.2,-0.3 0.2,-0.3 0.2,-0.3 0.1,-0.3 0.2,-0.3 0.1,-0.4 0.1,-0.3 v -0.3 l 0.1,-0.3 v -0.4 l 0.1,-0.3 v -0.3 -26 0 -0.3 l -0.1,-0.3 v -0.4 l -0.1,-0.3 v -0.3 l -0.1,-0.3 -0.1,-0.3 -0.2,-0.4 -0.1,-0.3 -0.2,-0.3 -0.2,-0.3 -0.1,-0.3 -0.3,-0.2 -0.2,-0.3 -0.2,-0.2 -0.2,-0.2 -0.3,-0.3 -0.3,-0.2 -0.2,-0.2 -0.3,-0.1 -0.3,-0.2 -0.3,-0.1 -0.4,-0.2 -0.3,-0.1 -0.3,-0.1 -0.3,-0.1 h -0.3 l -0.4,-0.1 h -0.3 -0.4 -86.7 v 0 h -0.3 -0.4 l -0.3,0.1 H 605 l -0.4,0.1 -0.3,0.1 -0.3,0.1 -0.3,0.2 -0.3,0.1 -0.3,0.1 -0.3,0.2 -0.3,0.2 -0.3,0.2 -0.2,0.2 -0.3,0.3 -0.2,0.2 -0.2,0.3 -0.2,0.2 -0.2,0.3 -0.2,0.3 -0.2,0.3 -0.1,0.3 -0.1,0.3 -0.1,0.3 -0.1,0.3 -0.1,0.4 -0.1,0.3 v 0.3 l -0.1,0.4 v 0.3 z m 0,6.4 z m 99.7,-38.8 z"
           inkscape:connector-curvature="0" /><g
           id="g320"><path
             id="path322"
             style="fill:none;stroke:#000000;stroke-width:0.99049997;stroke-linecap:butt;stroke-linejoin:round;stroke-miterlimit:10;stroke-dasharray:none;stroke-opacity:1"
             d="m 599.8,197.9 v 0 0.3 l 0.1,0.3 v 0.4 l 0.1,0.3 0.1,0.3 0.1,0.3 0.1,0.4 0.1,0.3 0.1,0.3 0.2,0.3 0.2,0.3 0.2,0.3 0.2,0.2 0.2,0.3 0.2,0.2 0.3,0.2 0.2,0.3 0.3,0.2 0.3,0.2 0.3,0.1 0.3,0.2 0.3,0.2 0.3,0.1 0.3,0.1 0.3,0.1 0.4,0.1 h 0.3 l 0.3,0.1 h 0.4 0.3 86.7 v 0 h 0.4 0.3 l 0.3,-0.1 h 0.3 l 0.4,-0.1 0.3,-0.1 0.3,-0.1 0.4,-0.1 0.3,-0.2 0.2,-0.2 0.3,-0.1 0.3,-0.2 0.3,-0.2 0.3,-0.3 0.2,-0.2 0.2,-0.2 0.2,-0.3 0.2,-0.2 0.2,-0.3 0.2,-0.3 0.2,-0.3 0.1,-0.3 0.2,-0.3 0.1,-0.4 0.1,-0.3 v -0.3 l 0.1,-0.3 v -0.4 l 0.1,-0.3 v -0.3 -26 0 -0.3 l -0.1,-0.3 v -0.4 l -0.1,-0.3 v -0.3 l -0.1,-0.3 -0.1,-0.3 -0.2,-0.4 -0.1,-0.3 -0.2,-0.3 -0.2,-0.3 -0.1,-0.3 -0.3,-0.2 -0.2,-0.3 -0.2,-0.2 -0.2,-0.2 -0.3,-0.3 -0.3,-0.2 -0.2,-0.2 -0.3,-0.1 -0.3,-0.2 -0.3,-0.1 -0.4,-0.2 -0.3,-0.1 -0.3,-0.1 -0.3,-0.1 h -0.3 l -0.4,-0.1 h -0.3 -0.4 -86.7 v 0 h -0.3 -0.4 l -0.3,0.1 H 605 l -0.4,0.1 -0.3,0.1 -0.3,0.1 -0.3,0.2 -0.3,0.1 -0.3,0.1 -0.3,0.2 -0.3,0.2 -0.3,0.2 -0.2,0.2 -0.3,0.3 -0.2,0.2 -0.2,0.3 -0.2,0.2 -0.2,0.3 -0.2,0.3 -0.2,0.3 -0.1,0.3 -0.1,0.3 -0.1,0.3 -0.1,0.3 -0.1,0.4 -0.1,0.3 v 0.3 l -0.1,0.4 v 0.3 z"
             inkscape:connector-curvature="0" /></g><g
           id="g324"><path
             id="path326"
             style="fill:none;stroke:#000000;stroke-width:0.99049997;stroke-linecap:butt;stroke-linejoin:round;stroke-miterlimit:10;stroke-dasharray:none;stroke-opacity:1"
             d="M 599.8,204.3 Z"
             inkscape:connector-curvature="0" /></g><g
           id="g328"><path
             id="path330"
             style="fill:none;stroke:#000000;stroke-width:0.99049997;stroke-linecap:butt;stroke-linejoin:round;stroke-miterlimit:10;stroke-dasharray:none;stroke-opacity:1"
             d="M 699.5,165.5 Z"
             inkscape:connector-curvature="0" /></g><g
           id="g332"><text
             id="text336"
             style="font-variant:normal;font-weight:normal;font-size:18px;font-family:Carlito;-inkscape-font-specification:Carlito;writing-mode:lr-tb;fill:#000000;fill-opacity:1;fill-rule:nonzero;stroke:none"
             transform="matrix(1,0,0,-1,615.4,177.6)"><tspan
               id="tspan334"
               y="0"
               x="0 9.198 15.3 24.695999 32.292 41.273998 48.348 55.349998 59.436001">Process 3</tspan></text>
</g><g
           id="g338"><g
             id="g340" /><g
             id="g354"><g
               style="opacity:0.38999999"
               id="g352"
               clip-path="url(#clipPath344)"><g
                 id="g348"><path
                   id="path346"
                   style="fill:none;stroke:#000000;stroke-width:2.00929999;stroke-linecap:butt;stroke-linejoin:round;stroke-miterlimit:10;stroke-dasharray:none;stroke-opacity:1"
                   d="M 649.7,163.9 V 142.6 H 94.5 v 15.6"
                   inkscape:connector-curvature="0" /></g><path
                 id="path350"
                 style="fill:#000000;fill-opacity:1;fill-rule:evenodd;stroke:none"
                 d="m 94.5,163.8 3.1,-6 h -6.1 z"
                 inkscape:connector-curvature="0" /></g></g></g><g
           id="g356"><path
             id="path358"
             style="fill:none;stroke:#525e66;stroke-width:2.00929999;stroke-linecap:butt;stroke-linejoin:round;stroke-miterlimit:10;stroke-dasharray:none;stroke-opacity:1"
             d="M 649.7,165.5 V 144.2 H 94.5 v 15.6"
             inkscape:connector-curvature="0" /></g><path
           id="path360"
           style="fill:#525e66;fill-opacity:1;fill-rule:evenodd;stroke:none"
           d="m 94.5,165.4 3.1,-6 h -6.1 z"
           inkscape:connector-curvature="0" /><g
           id="g362"><g
             id="g364" /><g
             id="g378"><g
               style="opacity:0.38999999"
               id="g376"
               clip-path="url(#clipPath368)"><g
                 id="g372"><path
                   id="path370"
                   style="fill:none;stroke:#000000;stroke-width:2.00929999;stroke-linecap:butt;stroke-linejoin:round;stroke-miterlimit:10;stroke-dasharray:none;stroke-opacity:1"
                   d="m 144.4,183.2 h 37.8 v 0.1 h 32.1"
                   inkscape:connector-curvature="0" /></g><path
                 id="path374"
                 style="fill:#000000;fill-opacity:1;fill-rule:evenodd;stroke:none"
                 d="m 220,183.3 -6.1,-3 v 6 z"
                 inkscape:connector-curvature="0" /></g></g></g><g
           id="g380"><path
             id="path382"
             style="fill:none;stroke:#525e66;stroke-width:2.00929999;stroke-linecap:butt;stroke-linejoin:round;stroke-miterlimit:10;stroke-dasharray:none;stroke-opacity:1"
             d="m 144.4,184.8 h 37.8 v 0.1 h 32.1"
             inkscape:connector-curvature="0" /></g><path
           id="path384"
           style="fill:#525e66;fill-opacity:1;fill-rule:evenodd;stroke:none"
           d="m 220,184.9 -6.1,-3 v 6 z"
           inkscape:connector-curvature="0" /><g
           id="g386"><g
             id="g388" /><g
             id="g402"><g
               style="opacity:0.38999999"
               id="g400"
               clip-path="url(#clipPath392)"><g
                 id="g396"><path
                   id="path394"
                   style="fill:none;stroke:#000000;stroke-width:2.00929999;stroke-linecap:butt;stroke-linejoin:round;stroke-miterlimit:10;stroke-dasharray:none;stroke-opacity:1"
                   d="m 317.7,183.3 h 46.6 v 0 h 40.9"
                   inkscape:connector-curvature="0" /></g><path
                 id="path398"
                 style="fill:#000000;fill-opacity:1;fill-rule:evenodd;stroke:none"
                 d="m 410.8,183.3 -6,-3 v 6 z"
                 inkscape:connector-curvature="0" /></g></g></g><g
           id="g404"><path
             id="path406"
             style="fill:none;stroke:#525e66;stroke-width:2.00929999;stroke-linecap:butt;stroke-linejoin:round;stroke-miterlimit:10;stroke-dasharray:none;stroke-opacity:1"
             d="m 317.7,184.9 h 46.6 v 0 h 40.9"
             inkscape:connector-curvature="0" /></g><path
           id="path408"
           style="fill:#525e66;fill-opacity:1;fill-rule:evenodd;stroke:none"
           d="m 410.8,184.9 -6,-3 v 6 z"
           inkscape:connector-curvature="0" /><g
           id="g410"><g
             id="g412" /><g
             id="g426"><g
               style="opacity:0.38999999"
               id="g424"
               clip-path="url(#clipPath416)"><g
                 id="g420"><path
                   id="path418"
                   style="fill:none;stroke:#000000;stroke-width:2.00929999;stroke-linecap:butt;stroke-linejoin:round;stroke-miterlimit:10;stroke-dasharray:none;stroke-opacity:1"
                   d="m 510.5,183.3 h 44.7 v 0 h 39"
                   inkscape:connector-curvature="0" /></g><path
                 id="path422"
                 style="fill:#000000;fill-opacity:1;fill-rule:evenodd;stroke:none"
                 d="m 599.9,183.3 -6.1,-3.1 v 6.1 z"
                 inkscape:connector-curvature="0" /></g></g></g><g
           id="g428"><path
             id="path430"
             style="fill:none;stroke:#525e66;stroke-width:2.00929999;stroke-linecap:butt;stroke-linejoin:round;stroke-miterlimit:10;stroke-dasharray:none;stroke-opacity:1"
             d="m 510.5,184.9 h 44.7 v -0.1 h 39"
             inkscape:connector-curvature="0" /></g><path
           id="path432"
           style="fill:#525e66;fill-opacity:1;fill-rule:evenodd;stroke:none"
           d="m 599.9,184.8 -6.1,-3 v 6 z"
           inkscape:connector-curvature="0" /></g></g></g></svg>