<?xml version="1.0" encoding="UTF-8" standalone="no"?>
<svg
   xmlns:dc="http://purl.org/dc/elements/1.1/"
   xmlns:cc="http://creativecommons.org/ns#"
   xmlns:rdf="http://www.w3.org/1999/02/22-rdf-syntax-ns#"
   xmlns:svg="http://www.w3.org/2000/svg"
   xmlns="http://www.w3.org/2000/svg"
   xmlns:sodipodi="http://sodipodi.sourceforge.net/DTD/sodipodi-0.dtd"
   xmlns:inkscape="http://www.inkscape.org/namespaces/inkscape"
   viewBox="0 0 510.83278 249.23711"
   height="249.23712"
   width="510.83279"
   xml:space="preserve"
   id="svg2"
   version="1.1"
   sodipodi:docname="compp.svg"
   inkscape:version="0.92.2 (5c3e80d, 2017-08-06)"><sodipodi:namedview
     pagecolor="#ffffff"
     bordercolor="#666666"
     borderopacity="1"
     objecttolerance="10"
     gridtolerance="10"
     guidetolerance="10"
     inkscape:pageopacity="0"
     inkscape:pageshadow="2"
     inkscape:window-width="1920"
     inkscape:window-height="1125"
     id="namedview897"
     showgrid="false"
     fit-margin-top="0"
     fit-margin-left="0"
     fit-margin-right="0"
     fit-margin-bottom="0"
     inkscape:zoom="2.6623193"
     inkscape:cx="255.4164"
     inkscape:cy="124.61856"
     inkscape:window-x="0"
     inkscape:window-y="25"
     inkscape:window-maximized="1"
     inkscape:current-layer="g14" /><metadata
     id="metadata8"><rdf:RDF><cc:Work
         rdf:about=""><dc:format>image/svg+xml</dc:format><dc:type
           rdf:resource="http://purl.org/dc/dcmitype/StillImage" /></cc:Work></rdf:RDF></metadata><defs
     id="defs6"><clipPath
       id="clipPath18"
       clipPathUnits="userSpaceOnUse"><path
         style="clip-rule:evenodd"
         id="path16"
         d="M 0,-0.2 H 793.6 V 595 H 0 Z"
         inkscape:connector-curvature="0" /></clipPath></defs><g
     transform="matrix(1.3333333,0,0,-1.3333333,-227.85474,612.83092)"
     id="g10"><g
       id="g12"><g
         clip-path="url(#clipPath18)"
         id="g14"><g
           id="g22" /><g
           id="g24" /><path
           id="path64"
           style="fill:#b3b6b8;fill-opacity:1;fill-rule:evenodd;stroke:#ffffff;stroke-opacity:1"
           d="m 281.8,339.4 10.9,-8.5 3.9,4.9 1.2,-20.8 -20.5,-3.8 3.8,4.9 -10.8,8.6 z m 3.9,4.9 z m 2.4,-41.7 z"
           inkscape:connector-curvature="0" /><path
           id="path66"
           style="fill:#b3b6b8;fill-opacity:1;fill-rule:evenodd;stroke:#ffffff;stroke-opacity:1;stroke-width:0.99975002;stroke-miterlimit:4;stroke-dasharray:none"
           d="m 411.9,328.1 11.9,8.1 -3.5,5.1 20.7,-4.8 -3.1,-21 -3.5,5.1 -11.9,-8.1 z m -3.5,5.1 z m 41.4,-9.6 z"
           inkscape:connector-curvature="0" /><path
           id="path26"
           style="fill:#525e66;fill-opacity:1;fill-rule:evenodd;stroke:#ffffff;stroke-opacity:1;stroke-width:0.99975002;stroke-miterlimit:4;stroke-dasharray:none"
           d="m 317.29999,341.8 v 0 0.4 0.4 0.4 l 0.1,0.4 0.1,0.4 0.1,0.3 0.2,0.4 0.1,0.4 0.2,0.3 0.2,0.4 0.2,0.3 0.2,0.3 0.2,0.3 0.3,0.4 0.3,0.2 0.2,0.3 0.4,0.3 0.3,0.2 0.3,0.2 0.3,0.2 0.4,0.2 0.3,0.2 0.4,0.1 0.4,0.2 0.3,0.1 0.4,0.1 0.4,0.1 h 0.4 0.4 0.4 69.9 v 0 h 0.4 0.4 0.4 l 0.4,-0.1 0.4,-0.1 0.3,-0.1 0.4,-0.2 0.4,-0.1 0.4,-0.2 0.3,-0.2 0.3,-0.2 0.3,-0.2 0.4,-0.2 0.3,-0.3 0.3,-0.3 0.2,-0.2 0.3,-0.4 0.2,-0.3 0.2,-0.3 0.2,-0.3 0.2,-0.4 0.2,-0.3 0.2,-0.4 0.1,-0.4 0.1,-0.3 0.1,-0.4 0.1,-0.4 v -0.4 l 0.1,-0.4 v -0.4 -60.5 0 -0.4 l -0.1,-0.4 v -0.4 l -0.1,-0.4 -0.1,-0.4 -0.1,-0.4 -0.1,-0.3 -0.2,-0.4 -0.2,-0.3 -0.1,-0.4 -0.3,-0.3 -0.2,-0.4 -0.2,-0.3 -0.3,-0.3 -0.2,-0.3 -0.3,-0.2 -0.3,-0.3 -0.3,-0.2 -0.4,-0.3 -0.3,-0.2 -0.3,-0.2 -0.4,-0.1 -0.4,-0.2 -0.3,-0.1 -0.4,-0.1 -0.4,-0.1 -0.4,-0.1 h -0.4 l -0.4,-0.1 h -0.3 -70 v 0 h -0.4 -0.4 l -0.4,0.1 -0.4,0.1 -0.4,0.1 -0.3,0.1 -0.4,0.1 -0.4,0.2 -0.3,0.1 -0.4,0.2 -0.3,0.2 -0.3,0.3 -0.3,0.2 -0.4,0.2 -0.2,0.3 -0.3,0.3 -0.2,0.3 -0.3,0.3 -0.2,0.4 -0.2,0.3 -0.2,0.3 -0.2,0.4 -0.1,0.3 -0.2,0.4 -0.1,0.4 -0.1,0.4 -0.1,0.3 v 0.4 0.4 0.4 z m 0,7.5 z m 85,-75.6 z"
           inkscape:connector-curvature="0" /><path
           inkscape:connector-curvature="0"
           d="M 317.29999,349.3 Z"
           style="fill:none;stroke:#ffffff;stroke-width:2.00929999;stroke-linecap:butt;stroke-linejoin:round;stroke-miterlimit:10;stroke-dasharray:none;stroke-opacity:1"
           id="path34" /><path
           inkscape:connector-curvature="0"
           d="M 402.29999,273.7 Z"
           style="fill:none;stroke:#ffffff;stroke-width:2.00929999;stroke-linecap:butt;stroke-linejoin:round;stroke-miterlimit:10;stroke-dasharray:none;stroke-opacity:1"
           id="path38" /><text
           transform="scale(1,-1)"
           style="font-variant:normal;font-weight:normal;font-size:18px;font-family:Carlito;-inkscape-font-specification:Carlito;writing-mode:lr-tb;fill:#ffffff;fill-opacity:1;fill-rule:nonzero;stroke:none"
           id="text44"
           x="332.09998"
           y="-323.70001"><tspan
             x="332.09998 341.298 347.29199 356.77798 364.37399 373.35599 380.358 387.43198"
             y="-323.70001"
             id="tspan42">Process </tspan></text>
<text
           transform="scale(1,-1)"
           style="font-variant:normal;font-weight:normal;font-size:18px;font-family:Carlito;-inkscape-font-specification:Carlito;writing-mode:lr-tb;fill:#ffffff;fill-opacity:1;fill-rule:nonzero;stroke:none"
           id="text50"
           x="332"
           y="-304.29999"><tspan
             x="332 339.07401 348.56 357.866 363.66199 372.26599 379.34 387.53"
             y="-304.29999"
             id="tspan48">subtask </tspan></text>
<text
           transform="scale(1,-1)"
           style="font-variant:normal;font-weight:normal;font-size:18px;font-family:Carlito;-inkscape-font-specification:Carlito;writing-mode:lr-tb;fill:#ffffff;fill-opacity:1;fill-rule:nonzero;stroke:none"
           id="text56"
           x="349.5"
           y="-284.89999"><tspan
             x="349.5 358.48199"
             y="-284.89999"
             id="tspan54">#N</tspan></text>
<text
           transform="scale(1,-1)"
           style="font-variant:normal;font-weight:bold;font-size:18px;font-family:Carlito;-inkscape-font-specification:Carlito-Bold;writing-mode:lr-tb;fill:#000000;fill-opacity:1;fill-rule:nonzero;stroke:none"
           id="text62"
           x="352.59018"
           y="-367.5"><tspan
             x="352.59018 357.39618 362.20218"
             y="-367.5"
             id="tspan60">...</tspan></text>
<path
           inkscape:connector-curvature="0"
           d="m 317.29999,451.11855 v 0 0.4 0.4 0.4 l 0.1,0.4 0.1,0.4 0.1,0.3 0.2,0.4 0.1,0.4 0.2,0.3 0.2,0.4 0.2,0.3 0.2,0.3 0.2,0.3 0.3,0.4 0.3,0.2 0.2,0.3 0.4,0.3 0.3,0.2 0.3,0.2 0.3,0.2 0.4,0.2 0.3,0.2 0.4,0.1 0.4,0.2 0.3,0.1 0.4,0.1 0.4,0.1 h 0.4 0.4 0.4 69.9 v 0 h 0.4 0.4 0.4 l 0.4,-0.1 0.4,-0.1 0.3,-0.1 0.4,-0.2 0.4,-0.1 0.4,-0.2 0.3,-0.2 0.3,-0.2 0.3,-0.2 0.4,-0.2 0.3,-0.3 0.3,-0.3 0.2,-0.2 0.3,-0.4 0.2,-0.3 0.2,-0.3 0.2,-0.3 0.2,-0.4 0.2,-0.3 0.2,-0.4 0.1,-0.4 0.1,-0.3 0.1,-0.4 0.1,-0.4 v -0.4 l 0.1,-0.4 v -0.4 -60.5 0 -0.4 l -0.1,-0.4 v -0.4 l -0.1,-0.4 -0.1,-0.4 -0.1,-0.4 -0.1,-0.3 -0.2,-0.4 -0.2,-0.3 -0.1,-0.4 -0.3,-0.3 -0.2,-0.4 -0.2,-0.3 -0.3,-0.3 -0.2,-0.3 -0.3,-0.2 -0.3,-0.3 -0.3,-0.2 -0.4,-0.3 -0.3,-0.2 -0.3,-0.2 -0.4,-0.1 -0.4,-0.2 -0.3,-0.1 -0.4,-0.1 -0.4,-0.1 -0.4,-0.1 h -0.4 l -0.4,-0.1 h -0.3 -70 v 0 h -0.4 -0.4 l -0.4,0.1 -0.4,0.1 -0.4,0.1 -0.3,0.1 -0.4,0.1 -0.4,0.2 -0.3,0.1 -0.4,0.2 -0.3,0.2 -0.3,0.3 -0.3,0.2 -0.4,0.2 -0.2,0.3 -0.3,0.3 -0.2,0.3 -0.3,0.3 -0.2,0.4 -0.2,0.3 -0.2,0.3 -0.2,0.4 -0.1,0.3 -0.2,0.4 -0.1,0.4 -0.1,0.4 -0.1,0.3 v 0.4 0.4 0.4 z m 0,7.5 z m 85,-75.6 z"
           style="fill:#525e66;fill-opacity:1;fill-rule:evenodd;stroke:#ffffff;stroke-opacity:1;stroke-width:0.99975002;stroke-miterlimit:4;stroke-dasharray:none"
           id="path841" /><path
           id="path847"
           style="fill:none;stroke:#ffffff;stroke-width:2.00929999;stroke-linecap:butt;stroke-linejoin:round;stroke-miterlimit:10;stroke-dasharray:none;stroke-opacity:1"
           d="M 317.29999,458.61855 Z"
           inkscape:connector-curvature="0" /><path
           id="path851"
           style="fill:none;stroke:#ffffff;stroke-width:2.00929999;stroke-linecap:butt;stroke-linejoin:round;stroke-miterlimit:10;stroke-dasharray:none;stroke-opacity:1"
           d="M 402.29999,383.01855 Z"
           inkscape:connector-curvature="0" /><text
           id="text857"
           style="font-variant:normal;font-weight:normal;font-size:18px;font-family:Carlito;-inkscape-font-specification:Carlito;writing-mode:lr-tb;fill:#ffffff;fill-opacity:1;fill-rule:nonzero;stroke:none"
           transform="scale(1,-1)"
           x="332.09998"
           y="-433.01855"><tspan
             id="tspan855"
             y="-433.01855"
             x="332.09998 341.298 347.29199 356.77798 364.37399 373.35599 380.358 387.43198">Process </tspan></text>
<text
           id="text863"
           style="font-variant:normal;font-weight:normal;font-size:18px;font-family:Carlito;-inkscape-font-specification:Carlito;writing-mode:lr-tb;fill:#ffffff;fill-opacity:1;fill-rule:nonzero;stroke:none"
           transform="scale(1,-1)"
           x="332"
           y="-413.61856"><tspan
             id="tspan861"
             y="-413.61856"
             x="332 339.07401 348.56 357.866 363.66199 372.26599 379.34 387.53">subtask </tspan></text>
<text
           id="text869"
           style="font-style:normal;font-variant:normal;font-weight:normal;font-stretch:normal;font-size:18px;font-family:Carlito;-inkscape-font-specification:'Carlito, Normal';font-variant-ligatures:normal;font-variant-caps:normal;font-variant-numeric:normal;font-feature-settings:normal;text-align:start;writing-mode:lr-tb;text-anchor:start;fill:#ffffff;fill-opacity:1;fill-rule:nonzero;stroke:none"
           transform="scale(1,-1)"
           x="349.5"
           y="-394.21854"><tspan
             sodipodi:role="line"
             id="tspan881"
             x="349.5"
             y="-394.21854">#1</tspan></text>
<path
           inkscape:connector-curvature="0"
           d="m 181.44782,387.52628 v 0 0.28207 0.28207 0.28207 l 0.1,0.28208 0.1,0.28207 0.1,0.21155 0.2,0.28208 0.1,0.28207 0.2,0.21155 0.2,0.28208 0.2,0.21155 0.2,0.21156 0.2,0.21155 0.3,0.28207 0.3,0.14104 0.2,0.21155 0.4,0.21156 0.3,0.14104 0.3,0.14103 0.3,0.14104 0.4,0.14103 0.3,0.14104 0.4,0.0705 0.4,0.14104 0.3,0.0705 0.4,0.0705 0.4,0.0705 h 0.4 0.4 0.4 69.9 v 0 h 0.4 0.4 0.4 l 0.4,-0.0705 0.4,-0.0705 0.3,-0.0705 0.4,-0.14104 0.4,-0.0705 0.4,-0.14104 0.3,-0.14103 0.3,-0.14104 0.3,-0.14103 0.4,-0.14104 0.3,-0.21156 0.3,-0.21155 0.2,-0.14104 0.3,-0.28207 0.2,-0.21155 0.2,-0.21156 0.2,-0.21155 0.2,-0.28208 0.2,-0.21155 0.2,-0.28207 0.1,-0.28208 0.1,-0.21155 0.1,-0.28207 0.1,-0.28208 v -0.28207 l 0.1,-0.28207 v -0.28207 -42.66351 0 -0.28207 l -0.1,-0.28207 v -0.28208 l -0.1,-0.28207 -0.1,-0.28207 -0.1,-0.28208 -0.1,-0.21155 -0.2,-0.28207 -0.2,-0.21156 -0.1,-0.28207 -0.3,-0.21155 -0.2,-0.28208 -0.2,-0.21155 -0.3,-0.21156 -0.2,-0.21155 -0.3,-0.14104 -0.3,-0.21155 -0.3,-0.14104 -0.4,-0.21155 -0.3,-0.14104 -0.3,-0.14104 -0.4,-0.0705 -0.4,-0.14104 -0.3,-0.0705 -0.4,-0.0705 -0.4,-0.0705 -0.4,-0.0705 h -0.4 l -0.4,-0.0705 h -0.3 -70 v 0 h -0.4 -0.4 l -0.4,0.0705 -0.4,0.0705 -0.4,0.0705 -0.3,0.0705 -0.4,0.0705 -0.4,0.14104 -0.3,0.0705 -0.4,0.14104 -0.3,0.14104 -0.3,0.21155 -0.3,0.14104 -0.4,0.14103 -0.2,0.21156 -0.3,0.21155 -0.2,0.21156 -0.3,0.21155 -0.2,0.28208 -0.2,0.21155 -0.2,0.21155 -0.2,0.28208 -0.1,0.21155 -0.2,0.28207 -0.1,0.28208 -0.1,0.28207 -0.1,0.21155 v 0.28208 0.28207 0.28207 z m 0,5.28886 z m 85,-53.31175 z"
           style="fill:#525e66;fill-opacity:1;fill-rule:evenodd;stroke:#ffffff;stroke-width:0.99975002;stroke-opacity:1;stroke-miterlimit:4;stroke-dasharray:none"
           id="path883" /><g
           id="g891"
           transform="translate(-135.85218,60.496674)"><path
             inkscape:connector-curvature="0"
             d="M 317.3,349.3 Z"
             style="fill:none;stroke:#ffffff;stroke-width:2.00929999;stroke-linecap:butt;stroke-linejoin:round;stroke-miterlimit:10;stroke-dasharray:none;stroke-opacity:1"
             id="path889" /></g><g
           id="g895"
           transform="translate(-135.85218,60.496674)"><path
             inkscape:connector-curvature="0"
             d="M 402.3,273.7 Z"
             style="fill:none;stroke:#ffffff;stroke-width:2.00929999;stroke-linecap:butt;stroke-linejoin:round;stroke-miterlimit:10;stroke-dasharray:none;stroke-opacity:1"
             id="path893" /></g><g
           id="g901"
           transform="translate(-128.19564,38.135046)"><text
             transform="matrix(1,0,0,-1,332.1,323.7)"
             style="font-style:normal;font-variant:normal;font-weight:normal;font-stretch:normal;font-size:18px;font-family:Carlito;-inkscape-font-specification:'Carlito, Normal';font-variant-ligatures:normal;font-variant-caps:normal;font-variant-numeric:normal;font-feature-settings:normal;text-align:start;writing-mode:lr-tb;text-anchor:start;fill:#ffffff;fill-opacity:1;fill-rule:nonzero;stroke:none"
             id="text899"><tspan
               sodipodi:role="line"
               id="tspan959"
               x="0"
               y="0">Input</tspan></text>
</g><path
           id="path961"
           style="fill:#525e66;fill-opacity:1;fill-rule:evenodd;stroke:#ffffff;stroke-width:0.99975002;stroke-opacity:1;stroke-miterlimit:4;stroke-dasharray:none"
           d="m 453.15218,387.52628 v 0 0.28207 0.28207 0.28207 l 0.1,0.28208 0.1,0.28207 0.1,0.21155 0.2,0.28208 0.1,0.28207 0.2,0.21155 0.2,0.28208 0.2,0.21155 0.2,0.21156 0.2,0.21155 0.3,0.28207 0.3,0.14104 0.2,0.21155 0.4,0.21156 0.3,0.14104 0.3,0.14103 0.3,0.14104 0.4,0.14103 0.3,0.14104 0.4,0.0705 0.4,0.14104 0.3,0.0705 0.4,0.0705 0.4,0.0705 h 0.4 0.4 0.4 69.9 v 0 h 0.4 0.4 0.4 l 0.4,-0.0705 0.4,-0.0705 0.3,-0.0705 0.4,-0.14104 0.4,-0.0705 0.4,-0.14104 0.3,-0.14103 0.3,-0.14104 0.3,-0.14103 0.4,-0.14104 0.3,-0.21156 0.3,-0.21155 0.2,-0.14104 0.3,-0.28207 0.2,-0.21155 0.2,-0.21156 0.2,-0.21155 0.2,-0.28208 0.2,-0.21155 0.2,-0.28207 0.1,-0.28208 0.1,-0.21155 0.1,-0.28207 0.1,-0.28208 v -0.28207 l 0.1,-0.28207 v -0.28207 -42.66351 0 -0.28207 l -0.1,-0.28207 v -0.28208 l -0.1,-0.28207 -0.1,-0.28207 -0.1,-0.28208 -0.1,-0.21155 -0.2,-0.28207 -0.2,-0.21156 -0.1,-0.28207 -0.3,-0.21155 -0.2,-0.28208 -0.2,-0.21155 -0.3,-0.21156 -0.2,-0.21155 -0.3,-0.14104 -0.3,-0.21155 -0.3,-0.14104 -0.4,-0.21155 -0.3,-0.14104 -0.3,-0.14104 -0.4,-0.0705 -0.4,-0.14104 -0.3,-0.0705 -0.4,-0.0705 -0.4,-0.0705 -0.4,-0.0705 h -0.4 l -0.4,-0.0705 h -0.3 -70 v 0 h -0.4 -0.4 l -0.4,0.0705 -0.4,0.0705 -0.4,0.0705 -0.3,0.0705 -0.4,0.0705 -0.4,0.14104 -0.3,0.0705 -0.4,0.14104 -0.3,0.14104 -0.3,0.21155 -0.3,0.14104 -0.4,0.14103 -0.2,0.21156 -0.3,0.21155 -0.2,0.21156 -0.3,0.21155 -0.2,0.28208 -0.2,0.21155 -0.2,0.21155 -0.2,0.28208 -0.1,0.21155 -0.2,0.28207 -0.1,0.28208 -0.1,0.28207 -0.1,0.21155 v 0.28208 0.28207 0.28207 z m 0,5.28886 z m 85,-53.31175 z"
           inkscape:connector-curvature="0" /><g
           transform="translate(135.85218,60.496674)"
           id="g965"><path
             id="path963"
             style="fill:none;stroke:#ffffff;stroke-width:2.00929999;stroke-linecap:butt;stroke-linejoin:round;stroke-miterlimit:10;stroke-dasharray:none;stroke-opacity:1"
             d="M 402.3,273.7 Z"
             inkscape:connector-curvature="0" /></g><g
           transform="translate(140.52044,36.27616)"
           id="g971"><text
             id="text969"
             style="font-style:normal;font-variant:normal;font-weight:normal;font-stretch:normal;font-size:18px;font-family:Carlito;-inkscape-font-specification:'Carlito, Normal';font-variant-ligatures:normal;font-variant-caps:normal;font-variant-numeric:normal;font-feature-settings:normal;text-align:start;writing-mode:lr-tb;text-anchor:start;fill:#ffffff;fill-opacity:1;fill-rule:nonzero;stroke:none"
             transform="matrix(1,0,0,-1,332.1,323.7)"><tspan
               y="0"
               x="0"
               sodipodi:role="line"
               id="tspan973">Result</tspan></text>
</g><path
           inkscape:connector-curvature="0"
           d="m 269.75956,401.82959 10.41326,9.08978 -4.07126,4.75865 20.64999,-2.76727 -0.15757,-20.84862 -4.09023,4.66047 -10.49248,-8.97262 z m -4.07126,4.75866 z m 41.39816,-5.55351 z"
           style="fill:#b3b6b8;fill-opacity:1;fill-rule:evenodd;stroke:#ffffff;stroke-opacity:1"
           id="path1104" /><path
           inkscape:connector-curvature="0"
           d="m 425.70338,423.40482 10.96155,-9.33083 3.99136,4.72536 0.85173,-21.23216 -21.07137,-2.57049 3.99137,4.72536 -10.96155,9.33083 z m 3.99136,4.72536 z m 1.70346,-42.46431 z"
           style="fill:#b3b6b8;fill-opacity:1;fill-rule:evenodd;stroke:#ffffff;stroke-opacity:1"
           id="path1106" /></g></g></g></svg>