<?xml version="1.0" encoding="UTF-8" standalone="no"?>
<svg
   xmlns:dc="http://purl.org/dc/elements/1.1/"
   xmlns:cc="http://creativecommons.org/ns#"
   xmlns:rdf="http://www.w3.org/1999/02/22-rdf-syntax-ns#"
   xmlns:svg="http://www.w3.org/2000/svg"
   xmlns="http://www.w3.org/2000/svg"
   xmlns:sodipodi="http://sodipodi.sourceforge.net/DTD/sodipodi-0.dtd"
   xmlns:inkscape="http://www.inkscape.org/namespaces/inkscape"
   viewBox="0 0 1400 184.46761"
   height="184.46761"
   width="1400"
   xml:space="preserve"
   id="svg2"
   version="1.1"
   sodipodi:docname="processes-threads.svg"
   inkscape:version="0.92.3 (2405546, 2018-03-11)"
   inkscape:export-filename="/home/jenkovaa/kurssit/Adv-par-prog-2018/git/docs/img/processes-threads.png"
   inkscape:export-xdpi="96"
   inkscape:export-ydpi="96"><sodipodi:namedview
     pagecolor="#ffffff"
     bordercolor="#666666"
     borderopacity="1"
     objecttolerance="10"
     gridtolerance="10"
     guidetolerance="10"
     inkscape:pageopacity="0"
     inkscape:pageshadow="2"
     inkscape:window-width="1853"
     inkscape:window-height="1025"
     id="namedview21"
     showgrid="false"
     units="px"
     inkscape:zoom="1.2014286"
     inkscape:cx="711.55957"
     inkscape:cy="92.233803"
     inkscape:window-x="67"
     inkscape:window-y="27"
     inkscape:window-maximized="1"
     inkscape:current-layer="g10"
     fit-margin-top="0"
     fit-margin-left="0"
     fit-margin-right="0"
     fit-margin-bottom="0" /><metadata
     id="metadata8"><rdf:RDF><cc:Work
         rdf:about=""><dc:format>image/svg+xml</dc:format><dc:type
           rdf:resource="http://purl.org/dc/dcmitype/StillImage" /><dc:title></dc:title></cc:Work></rdf:RDF></metadata><defs
     id="defs6"><clipPath
   id="clipPath18"
   clipPathUnits="userSpaceOnUse"><path
     style="clip-rule:evenodd"
     id="path16"
     d="M 0,1.2207e-4 H 720 V 450.00012 H 0 Z"
     inkscape:connector-curvature="0" /></clipPath><clipPath
   id="clipPath28"
   clipPathUnits="userSpaceOnUse"><path
     style="clip-rule:evenodd"
     id="path26"
     d="M 1.0729e-5,0 H 720.00001 V 450 H 1.0729e-5 Z"
     inkscape:connector-curvature="0" /></clipPath><clipPath
   clipPathUnits="userSpaceOnUse"
   id="clipPath18-5"><path
     inkscape:connector-curvature="0"
     d="M 0,1.2207e-4 H 720 V 450.00012 H 0 Z"
     id="path16-0"
     style="clip-rule:evenodd" /></clipPath><clipPath
   clipPathUnits="userSpaceOnUse"
   id="clipPath28-8"><path
     inkscape:connector-curvature="0"
     d="M 1.0729e-5,0 H 720.00001 V 450 H 1.0729e-5 Z"
     id="path26-5"
     style="clip-rule:evenodd" /></clipPath><clipPath
   clipPathUnits="userSpaceOnUse"
   id="clipPath40"><path
     inkscape:connector-curvature="0"
     d="M 1.0729e-5,0 H 720.00001 V 450 H 1.0729e-5 Z"
     id="path38-3"
     style="clip-rule:evenodd" /></clipPath><clipPath
   clipPathUnits="userSpaceOnUse"
   id="clipPath80"><path
     inkscape:connector-curvature="0"
     d="M 1.0729e-5,0 H 720.00001 V 450 H 1.0729e-5 Z"
     id="path78"
     style="clip-rule:evenodd" /></clipPath><clipPath
   clipPathUnits="userSpaceOnUse"
   id="clipPath92"><path
     inkscape:connector-curvature="0"
     d="M 1.0729e-5,0 H 720.00001 V 450 H 1.0729e-5 Z"
     id="path90"
     style="clip-rule:evenodd" /></clipPath><clipPath
   clipPathUnits="userSpaceOnUse"
   id="clipPath104"><path
     inkscape:connector-curvature="0"
     d="M 1.0729e-5,0 H 720.00001 V 450 H 1.0729e-5 Z"
     id="path102"
     style="clip-rule:evenodd" /></clipPath><clipPath
   clipPathUnits="userSpaceOnUse"
   id="clipPath116"><path
     inkscape:connector-curvature="0"
     d="M 1.0729e-5,0 H 720.00001 V 450 H 1.0729e-5 Z"
     id="path114"
     style="clip-rule:evenodd" /></clipPath><clipPath
   clipPathUnits="userSpaceOnUse"
   id="clipPath154"><path
     inkscape:connector-curvature="0"
     d="M 1.0729e-5,0 H 720.00001 V 450 H 1.0729e-5 Z"
     id="path152"
     style="clip-rule:evenodd" /></clipPath><clipPath
   clipPathUnits="userSpaceOnUse"
   id="clipPath166"><path
     inkscape:connector-curvature="0"
     d="M 1.0729e-5,0 H 720.00001 V 450 H 1.0729e-5 Z"
     id="path164"
     style="clip-rule:evenodd" /></clipPath><clipPath
   clipPathUnits="userSpaceOnUse"
   id="clipPath28-8-7"><path
     inkscape:connector-curvature="0"
     d="M 1.0729e-5,0 H 720.00001 V 450 H 1.0729e-5 Z"
     id="path26-5-4"
     style="clip-rule:evenodd" /></clipPath>


</defs><g
     transform="matrix(1.3333333,0,0,-1.3333333,-198.0488,553.59601)"
     id="g10"><path
       id="path34"
       style="fill:#000000;fill-opacity:1;fill-rule:nonzero;stroke:none;stroke-width:1.56637669"
       d="m 204.71972,309.24096 h 198.99252 v -3.52435 H 204.71972 Z m 197.23817,3.52435 10.57304,-5.29435 -10.57304,-5.27871 z"
       inkscape:connector-curvature="0" /><path
       id="path36"
       style="fill:#000000;fill-opacity:1;fill-rule:nonzero;stroke:none;stroke-width:1.56637669"
       d="m 204.71972,336.26096 h 198.99252 v -3.52435 H 204.71972 Z m 197.23817,3.52435 10.57304,-5.29436 -10.57304,-5.27869 z"
       inkscape:connector-curvature="0" /><path
       id="path38"
       style="fill:#000000;fill-opacity:1;fill-rule:nonzero;stroke:none;stroke-width:1.56637669"
       d="m 204.71972,363.28095 h 198.99252 v -3.52434 H 204.71972 Z m 197.23817,3.52436 10.57304,-5.29436 -10.57304,-5.2787 z"
       inkscape:connector-curvature="0" /><path
       id="path40"
       style="fill:#000000;fill-opacity:1;fill-rule:nonzero;stroke:none;stroke-width:1.56637669"
       d="m 204.71972,389.12618 h 198.99252 v -3.52436 H 204.71972 Z m 197.23817,3.52434 10.57304,-5.29435 -10.57304,-5.2787 z"
       inkscape:connector-curvature="0" /><text
       transform="scale(1,-1)"
       style="font-style:normal;font-variant:normal;font-weight:normal;font-stretch:normal;font-size:20.72500038px;font-family:'Noto Sans';-inkscape-font-specification:'Noto Sans, Normal';font-variant-ligatures:normal;font-variant-caps:normal;font-variant-numeric:normal;font-feature-settings:normal;text-align:start;writing-mode:lr-tb;text-anchor:start;fill:#000000;fill-opacity:1;fill-rule:nonzero;stroke:none;stroke-width:1.31381774"
       id="text32-9"
       x="786.11542"
       y="-282.76395"><tspan
         sodipodi:role="line"
         id="tspan3939"
         x="786.11542"
         y="-282.76395">Parallel region</tspan></text>
<path
       inkscape:connector-curvature="0"
       d="m 723.77475,351.28538 h 64.1143 v -2.95609 h -64.1143 z m 55.98177,4.96623 11.06236,-6.45084 -11.06236,-6.43771 c -0.69632,-0.42041 -1.60286,-0.18393 -2.02327,0.52553 -0.40729,0.70946 -0.1708,1.616 0.53866,2.02328 l 8.86827,5.17644 v -2.56195 l -8.86827,5.17645 c -0.70946,0.40728 -0.94595,1.31382 -0.53866,2.02327 0.42041,0.70947 1.32695,0.94596 2.02327,0.52553 z"
       style="fill:#000000;fill-opacity:1;fill-rule:nonzero;stroke:none;stroke-width:1.31381762"
       id="path46" /><path
       inkscape:connector-curvature="0"
       d="m 792.00131,349.15699 22.7159,34.08044 -2.45683,1.64227 -22.71591,-34.08043 z m 24.35818,31.21631 1.23499,9.8405 -8.61865,-4.92681 z"
       style="fill:#000000;fill-opacity:1;fill-rule:nonzero;stroke:none;stroke-width:1.31381762"
       id="path48" /><path
       inkscape:connector-curvature="0"
       d="m 791.43636,348.86796 20.20652,10.10325 -1.32696,2.65392 -20.2065,-10.10326 z m 20.20652,6.80558 5.9516,7.92232 h -9.91933 z"
       style="fill:#5173c9;fill-opacity:1;fill-rule:nonzero;stroke:none;stroke-width:1.31381762"
       id="path50" /><path
       inkscape:connector-curvature="0"
       d="m 791.43636,351.12772 20.20652,-10.10325 -1.32696,-2.64077 -20.2065,10.10325 z m 20.20652,-6.79243 5.9516,-7.93546 h -9.91933 z"
       style="fill:#5173c9;fill-opacity:1;fill-rule:nonzero;stroke:none;stroke-width:1.31381762"
       id="path52" /><path
       inkscape:connector-curvature="0"
       d="m 792.00131,350.62848 22.7159,-34.08044 -2.45683,-1.64227 -22.71591,34.08044 z m 24.35818,-31.20318 1.23499,-9.84049 -8.61865,4.91367 z"
       style="fill:#5173c9;fill-opacity:1;fill-rule:nonzero;stroke:none;stroke-width:1.31381762"
       id="path54" /><path
       inkscape:connector-curvature="0"
       d="m 817.37112,310.88548 h 49.59663 v -2.95608 h -49.59663 z m 48.12515,2.95609 8.86827,-4.44069 -8.86827,-4.42758 z"
       style="fill:#5173c9;fill-opacity:1;fill-rule:nonzero;stroke:none;stroke-width:1.31381762"
       id="path56" /><path
       inkscape:connector-curvature="0"
       d="m 817.37112,337.49029 h 49.59663 v -2.95608 h -49.59663 z m 48.12515,2.9561 8.86827,-4.44071 -8.86827,-4.42756 z"
       style="fill:#5173c9;fill-opacity:1;fill-rule:nonzero;stroke:none;stroke-width:1.31381762"
       id="path58" /><path
       inkscape:connector-curvature="0"
       d="m 817.37112,365.08047 h 49.59663 v -2.95609 h -49.59663 z m 48.12515,2.95609 8.86827,-4.4407 -8.86827,-4.42757 z"
       style="fill:#5173c9;fill-opacity:1;fill-rule:nonzero;stroke:none;stroke-width:1.31381762"
       id="path60" /><path
       inkscape:connector-curvature="0"
       d="m 817.37112,391.68528 h 49.59663 v -2.95609 h -49.59663 z m 48.12515,2.95608 8.86827,-4.4407 -8.86827,-4.42756 z"
       style="fill:#000000;fill-opacity:1;fill-rule:nonzero;stroke:none;stroke-width:1.31381762"
       id="path62" /><path
       inkscape:connector-curvature="0"
       d="m 875.75719,391.02836 22.71591,-34.08042 -2.45684,-1.64227 -22.71591,34.08043 z m 24.35818,-31.20316 1.23499,-9.8405 -8.61865,4.91368 z"
       style="fill:#000000;fill-opacity:1;fill-rule:nonzero;stroke:none;stroke-width:1.31381762"
       id="path64" /><path
       inkscape:connector-curvature="0"
       d="m 875.19224,364.92281 20.20652,-10.10326 -1.32695,-2.64077 -20.20652,10.10326 z m 20.20652,-6.79243 5.9516,-7.93546 h -9.91933 z"
       style="fill:#5173c9;fill-opacity:1;fill-rule:nonzero;stroke:none;stroke-width:1.31381762"
       id="path66" /><path
       inkscape:connector-curvature="0"
       d="m 875.19224,335.07287 20.20652,10.10326 -1.32695,2.65391 -20.20652,-10.10326 z m 20.20652,6.80558 5.9516,7.92232 h -9.91933 z"
       style="fill:#5173c9;fill-opacity:1;fill-rule:nonzero;stroke:none;stroke-width:1.31381762"
       id="path68" /><path
       inkscape:connector-curvature="0"
       d="m 875.75719,308.7571 22.71591,34.08044 -2.45684,1.64227 -22.71591,-34.08043 z m 24.35818,31.21631 1.23499,9.82736 -8.61865,-4.91368 z"
       style="fill:#5173c9;fill-opacity:1;fill-rule:nonzero;stroke:none;stroke-width:1.31381762"
       id="path70" /><path
       inkscape:connector-curvature="0"
       d="m 901.12701,351.28538 h 37.29928 v -2.95609 h -37.29928 z m 29.17989,4.96623 11.04921,-6.45084 -11.04921,-6.43771 c -0.70947,-0.42041 -1.616,-0.18393 -2.02328,0.52553 -0.40728,0.70946 -0.17079,1.616 0.52552,2.02328 v 0 l 8.86827,5.17644 v -2.56195 l -8.86827,5.17645 c -0.69631,0.40728 -0.9328,1.31382 -0.52552,2.02327 0.40728,0.70947 1.31381,0.94596 2.02328,0.52553 z"
       style="fill:#000000;fill-opacity:1;fill-rule:nonzero;stroke:none;stroke-width:1.31381762"
       id="path72" /><text
       transform="scale(1,-1)"
       style="font-style:normal;font-variant:normal;font-weight:normal;font-stretch:normal;font-size:20.72500038px;font-family:'Noto Sans';-inkscape-font-specification:'Noto Sans, Normal';font-variant-ligatures:normal;font-variant-caps:normal;font-variant-numeric:normal;font-feature-settings:normal;text-align:start;writing-mode:lr-tb;text-anchor:start;fill:#000000;fill-opacity:1;fill-rule:nonzero;stroke:none;stroke-width:1.31381774"
       id="text84"
       x="717.20569"
       y="-325.27182"><tspan
         sodipodi:role="line"
         id="tspan3807"
         x="717.20569"
         y="-325.27182">Serial</tspan><tspan
         sodipodi:role="line"
         id="tspan3809"
         x="717.20569"
         y="-299.36557">region</tspan></text>
<path
       inkscape:connector-curvature="0"
       d="m 943.74725,349.15699 22.71592,34.08044 -2.45685,1.64227 -22.71591,-34.08043 z m 24.35818,31.21631 1.235,9.8405 -8.61865,-4.92681 z"
       style="fill:#5173c9;fill-opacity:1;fill-rule:nonzero;stroke:none;stroke-width:1.31381762"
       id="path122" /><path
       inkscape:connector-curvature="0"
       d="m 943.18231,348.86796 20.20652,10.10325 -1.32696,2.65392 -20.20652,-10.10326 z m 20.20652,6.80558 5.9516,7.92232 h -9.91933 z"
       style="fill:#5173c9;fill-opacity:1;fill-rule:nonzero;stroke:none;stroke-width:1.31381762"
       id="path124" /><path
       inkscape:connector-curvature="0"
       d="m 943.18231,351.12772 20.20652,-10.10325 -1.32696,-2.64077 -20.20652,10.10325 z m 20.20652,-6.79243 5.9516,-7.93546 h -9.91933 z"
       style="fill:#000000;fill-opacity:1;fill-rule:nonzero;stroke:none;stroke-width:1.31381762"
       id="path126" /><path
       inkscape:connector-curvature="0"
       d="m 943.74725,350.62848 22.71592,-34.08044 -2.45685,-1.64227 -22.71591,34.08044 z m 24.35818,-31.20318 1.235,-9.84049 -8.61865,4.91367 z"
       style="fill:#5173c9;fill-opacity:1;fill-rule:nonzero;stroke:none;stroke-width:1.31381762"
       id="path128" /><path
       inkscape:connector-curvature="0"
       d="m 969.11707,310.88548 h 49.59663 v -2.95608 h -49.59663 z m 48.12513,2.95609 8.8683,-4.44069 -8.8683,-4.42758 z"
       style="fill:#5173c9;fill-opacity:1;fill-rule:nonzero;stroke:none;stroke-width:1.31381762"
       id="path130" /><path
       inkscape:connector-curvature="0"
       d="m 969.11707,338.47566 h 49.59663 v -2.95609 h -49.59663 z m 48.12513,2.95609 8.8683,-4.4407 -8.8683,-4.42757 z"
       style="fill:#000000;fill-opacity:1;fill-rule:nonzero;stroke:none;stroke-width:1.31381762"
       id="path132" /><path
       inkscape:connector-curvature="0"
       d="m 969.11707,365.08047 h 49.59663 v -2.95609 h -49.59663 z m 48.12513,2.95609 8.8683,-4.4407 -8.8683,-4.42757 z"
       style="fill:#5173c9;fill-opacity:1;fill-rule:nonzero;stroke:none;stroke-width:1.31381762"
       id="path134" /><path
       inkscape:connector-curvature="0"
       d="m 969.11707,391.68528 h 49.59663 v -2.95609 h -49.59663 z m 48.12513,2.95608 8.8683,-4.4407 -8.8683,-4.42756 z"
       style="fill:#5173c9;fill-opacity:1;fill-rule:nonzero;stroke:none;stroke-width:1.31381762"
       id="path136" /><path
       inkscape:connector-curvature="0"
       d="m 1027.5031,391.02836 22.7159,-34.08042 -2.4568,-1.64227 -22.7159,34.08043 z m 24.3582,-31.20316 1.235,-9.8405 -8.6186,4.91368 z"
       style="fill:#5173c9;fill-opacity:1;fill-rule:nonzero;stroke:none;stroke-width:1.31381762"
       id="path138" /><path
       inkscape:connector-curvature="0"
       d="m 1026.9382,364.92281 20.2065,-10.10326 -1.3269,-2.64077 -20.2066,10.10326 z m 20.2065,-6.79243 5.9516,-7.93546 h -9.9193 z"
       style="fill:#5173c9;fill-opacity:1;fill-rule:nonzero;stroke:none;stroke-width:1.31381762"
       id="path140" /><path
       inkscape:connector-curvature="0"
       d="m 1026.9382,335.07287 20.2065,10.10326 -1.3269,2.65391 -20.2066,-10.10326 z m 20.2065,6.80558 5.9516,7.92232 h -9.9193 z"
       style="fill:#000000;fill-opacity:1;fill-rule:nonzero;stroke:none;stroke-width:1.31381762"
       id="path142" /><path
       inkscape:connector-curvature="0"
       d="m 1027.5031,308.7571 22.7159,34.08044 -2.4568,1.64227 -22.7159,-34.08043 z m 24.3582,31.21631 1.235,9.82736 -8.6186,-4.91368 z"
       style="fill:#5173c9;fill-opacity:1;fill-rule:nonzero;stroke:none;stroke-width:1.31381762"
       id="path144" /><path
       inkscape:connector-curvature="0"
       d="m 1052.873,351.28538 h 64.1274 v -2.95609 h -64.1274 z m 55.9949,4.96623 11.0623,-6.45084 -11.0623,-6.43771 c -0.6963,-0.42041 -1.6028,-0.18393 -2.0232,0.52553 -0.4074,0.70946 -0.1708,1.616 0.5385,2.02328 l 8.8684,5.17644 v -2.56195 l -8.8684,5.17645 c -0.7093,0.40728 -0.9459,1.31382 -0.5385,2.02327 0.4204,0.70947 1.3269,0.94596 2.0232,0.52553 z"
       style="fill:#000000;fill-opacity:1;fill-rule:nonzero;stroke:none;stroke-width:1.31381762"
       id="path146" /><text
       y="-281.82031"
       x="214.09639"
       transform="scale(1,-1)"
       style="font-style:normal;font-variant:normal;font-weight:normal;font-stretch:normal;font-size:20.72500229px;font-family:'Noto Sans';-inkscape-font-specification:'Noto Sans, Normal';font-variant-ligatures:normal;font-variant-caps:normal;font-variant-numeric:normal;font-feature-settings:normal;text-align:start;writing-mode:lr-tb;text-anchor:start;fill:#000000;fill-opacity:1;fill-rule:nonzero;stroke:none;stroke-width:1.31381774"
       id="text32-9-9"><tspan
         y="-281.82031"
         x="214.09639"
         id="tspan129"
         sodipodi:role="line"
         style="stroke-width:1.31381774">Parallel processes</tspan></text>
<text
       y="-399.44601"
       x="891.37341"
       id="text3821"
       style="font-style:normal;font-variant:normal;font-weight:normal;font-stretch:normal;font-size:20.72500038px;font-family:'Noto Sans';-inkscape-font-specification:'Noto Sans, Normal';font-variant-ligatures:normal;font-variant-caps:normal;font-variant-numeric:normal;font-feature-settings:normal;text-align:start;writing-mode:lr-tb;text-anchor:start;fill:#000000;fill-opacity:1;fill-rule:nonzero;stroke:none;stroke-width:1.31381774"
       transform="scale(1,-1)"><tspan
         id="tspan3817"
         sodipodi:role="line"
         x="891.37341"
         y="-399.44601">Serial</tspan><tspan
         id="tspan3819"
         sodipodi:role="line"
         x="891.37341"
         y="-373.53976">region</tspan></text>
<text
       y="-326.60406"
       x="1073.9818"
       id="text3821-4"
       style="font-style:normal;font-variant:normal;font-weight:normal;font-stretch:normal;font-size:20.72500038px;font-family:'Noto Sans';-inkscape-font-specification:'Noto Sans, Normal';font-variant-ligatures:normal;font-variant-caps:normal;font-variant-numeric:normal;font-feature-settings:normal;text-align:start;writing-mode:lr-tb;text-anchor:start;fill:#000000;fill-opacity:1;fill-rule:nonzero;stroke:none;stroke-width:1.31381774"
       transform="scale(1,-1)"><tspan
         style="stroke-width:1.31381774"
         id="tspan3817-3"
         sodipodi:role="line"
         x="1073.9818"
         y="-326.60406">Serial</tspan><tspan
         style="stroke-width:1.31381774"
         id="tspan3819-0"
         sodipodi:role="line"
         x="1073.9818"
         y="-300.69781">region</tspan></text>
<text
       y="-282.76395"
       x="940.93109"
       id="text3943"
       style="font-style:normal;font-variant:normal;font-weight:normal;font-stretch:normal;font-size:20.72500038px;font-family:'Noto Sans';-inkscape-font-specification:'Noto Sans, Normal';font-variant-ligatures:normal;font-variant-caps:normal;font-variant-numeric:normal;font-feature-settings:normal;text-align:start;writing-mode:lr-tb;text-anchor:start;fill:#000000;fill-opacity:1;fill-rule:nonzero;stroke:none;stroke-width:1.31381774"
       transform="scale(1,-1)"><tspan
         id="tspan3941"
         sodipodi:role="line"
         x="940.93109"
         y="-282.76395">Parallel region</tspan></text>
</g></svg>