<?xml version="1.0" encoding="UTF-8" standalone="no"?>
<svg
   xmlns:dc="http://purl.org/dc/elements/1.1/"
   xmlns:cc="http://creativecommons.org/ns#"
   xmlns:rdf="http://www.w3.org/1999/02/22-rdf-syntax-ns#"
   xmlns:svg="http://www.w3.org/2000/svg"
   xmlns="http://www.w3.org/2000/svg"
   xmlns:sodipodi="http://sodipodi.sourceforge.net/DTD/sodipodi-0.dtd"
   xmlns:inkscape="http://www.inkscape.org/namespaces/inkscape"
   viewBox="0 0 758.14566 225.74573"
   height="225.74573"
   width="758.14569"
   xml:space="preserve"
   id="svg2"
   version="1.1"
   sodipodi:docname="farm.svg"
   inkscape:version="0.92.2 (5c3e80d, 2017-08-06)"><sodipodi:namedview
     pagecolor="#ffffff"
     bordercolor="#666666"
     borderopacity="1"
     objecttolerance="10"
     gridtolerance="10"
     guidetolerance="10"
     inkscape:pageopacity="0"
     inkscape:pageshadow="2"
     inkscape:window-width="640"
     inkscape:window-height="480"
     id="namedview2006"
     showgrid="false"
     fit-margin-top="0"
     fit-margin-left="0"
     fit-margin-right="0"
     fit-margin-bottom="0"
     inkscape:zoom="0.594958"
     inkscape:cx="469.65357"
     inkscape:cy="120.43182"
     inkscape:window-x="0"
     inkscape:window-y="0"
     inkscape:window-maximized="0"
     inkscape:current-layer="g14" /><metadata
     id="metadata8"><rdf:RDF><cc:Work
         rdf:about=""><dc:format>image/svg+xml</dc:format><dc:type
           rdf:resource="http://purl.org/dc/dcmitype/StillImage" /></cc:Work></rdf:RDF></metadata><defs
     id="defs6"><clipPath
       id="clipPath18"
       clipPathUnits="userSpaceOnUse"><path
         style="clip-rule:evenodd"
         id="path16"
         d="M 0,-0.2 H 793.6 V 595 H 0 Z"
         inkscape:connector-curvature="0" /></clipPath><clipPath
       id="clipPath32"
       clipPathUnits="userSpaceOnUse"><path
         id="path30"
         d="m 284.1,336.4 h 202.1 v 42.1 H 284.1 Z"
         inkscape:connector-curvature="0" /></clipPath><clipPath
       id="clipPath84"
       clipPathUnits="userSpaceOnUse"><path
         id="path82"
         d="M 87.5,210.8 H 184 v 73.5 H 87.5 Z"
         inkscape:connector-curvature="0" /></clipPath><clipPath
       id="clipPath148"
       clipPathUnits="userSpaceOnUse"><path
         id="path146"
         d="m 220.8,210.8 h 96.5 v 73.5 h -96.5 z"
         inkscape:connector-curvature="0" /></clipPath><clipPath
       id="clipPath218"
       clipPathUnits="userSpaceOnUse"><path
         id="path216"
         d="m 419.9,210.8 h 96.5 v 73.5 h -96.5 z"
         inkscape:connector-curvature="0" /></clipPath><clipPath
       id="clipPath282"
       clipPathUnits="userSpaceOnUse"><path
         id="path280"
         d="m 559.7,210.8 h 96.5 v 73.5 h -96.5 z"
         inkscape:connector-curvature="0" /></clipPath><clipPath
       id="clipPath346"
       clipPathUnits="userSpaceOnUse"><path
         id="path344"
         d="m 143.9,287 h 142.7 v 89.5 H 143.9 Z"
         inkscape:connector-curvature="0" /></clipPath><clipPath
       id="clipPath370"
       clipPathUnits="userSpaceOnUse"><path
         id="path368"
         d="m 281.5,281 h 50.7 v 40.8 h -50.7 z"
         inkscape:connector-curvature="0" /></clipPath><clipPath
       id="clipPath400"
       clipPathUnits="userSpaceOnUse"><path
         id="path398"
         d="M 155.2,279.7 H 279.6 V 359 H 155.2 Z"
         inkscape:connector-curvature="0" /></clipPath><clipPath
       id="clipPath430"
       clipPathUnits="userSpaceOnUse"><path
         id="path428"
         d="m 291.1,275.8 h 54.8 v 42.8 h -54.8 z"
         inkscape:connector-curvature="0" /></clipPath><clipPath
       id="clipPath454"
       clipPathUnits="userSpaceOnUse"><path
         id="path452"
         d="m 407.3,278.6 h 38.8 V 324 h -38.8 z"
         inkscape:connector-curvature="0" /></clipPath><clipPath
       id="clipPath478"
       clipPathUnits="userSpaceOnUse"><path
         id="path476"
         d="m 422.4,281.3 h 35.8 v 40.8 h -35.8 z"
         inkscape:connector-curvature="0" /></clipPath><clipPath
       id="clipPath502"
       clipPathUnits="userSpaceOnUse"><path
         id="path500"
         d="m 483.3,288.6 h 124.5 v 89.5 H 483.3 Z"
         inkscape:connector-curvature="0" /></clipPath><clipPath
       id="clipPath526"
       clipPathUnits="userSpaceOnUse"><path
         id="path524"
         d="m 491.2,282.8 h 107.6 v 74.1 H 491.2 Z"
         inkscape:connector-curvature="0" /></clipPath></defs><g
     transform="matrix(1.3333333,0,0,-1.3333333,-116.66047,506.93952)"
     id="g10"><g
       id="g12"><g
         clip-path="url(#clipPath18)"
         id="g14"><g
           id="g22" /><g
           id="g24" /><g
           id="g26"><g
             id="g28" /><g
             id="g56"><g
               style="opacity:0.35"
               id="g54"
               clip-path="url(#clipPath32)"><path
                 id="path34"
                 style="fill:#000000;fill-opacity:1;fill-rule:evenodd;stroke:none"
                 d="m 285.1,370.7 v 0 0.4 0.3 0.4 l 0.1,0.3 0.1,0.4 0.1,0.3 0.1,0.3 0.1,0.3 0.2,0.3 0.1,0.3 0.2,0.3 0.2,0.3 0.2,0.3 0.3,0.3 0.2,0.2 0.2,0.3 0.3,0.2 0.3,0.2 0.3,0.2 0.3,0.2 0.3,0.1 0.3,0.2 0.3,0.1 0.3,0.1 0.4,0.1 0.3,0.1 0.3,0.1 h 0.4 l 0.3,0.1 h 0.4 186.8 v 0 h 0.3 l 0.4,-0.1 h 0.3 l 0.4,-0.1 0.3,-0.1 0.3,-0.1 0.4,-0.1 0.3,-0.1 0.3,-0.2 0.3,-0.1 0.3,-0.2 0.3,-0.2 0.3,-0.2 0.2,-0.2 0.3,-0.3 0.2,-0.2 0.2,-0.3 0.2,-0.3 0.2,-0.3 0.2,-0.3 0.2,-0.3 0.2,-0.3 0.1,-0.3 0.1,-0.3 0.1,-0.3 0.1,-0.4 v -0.3 l 0.1,-0.4 v -0.3 -0.4 -26.6 0 -0.3 -0.4 l -0.1,-0.3 v -0.4 l -0.1,-0.3 -0.1,-0.3 -0.1,-0.4 -0.1,-0.3 -0.2,-0.3 -0.2,-0.3 -0.2,-0.3 -0.1,-0.3 -0.3,-0.3 -0.2,-0.2 -0.2,-0.3 -0.3,-0.2 -0.2,-0.2 -0.3,-0.3 -0.3,-0.2 -0.3,-0.1 -0.3,-0.2 -0.3,-0.1 -0.3,-0.2 -0.3,-0.1 -0.4,-0.1 -0.3,-0.1 h -0.4 l -0.3,-0.1 h -0.3 -0.4 l -186.8,-0.1 v 0.1 h -0.4 -0.3 l -0.4,0.1 h -0.3 l -0.3,0.1 -0.4,0.1 -0.3,0.1 -0.3,0.1 -0.3,0.2 -0.3,0.2 -0.3,0.1 -0.3,0.2 -0.3,0.2 -0.2,0.3 -0.3,0.2 -0.2,0.3 -0.2,0.2 -0.3,0.3 -0.2,0.3 -0.1,0.3 -0.2,0.3 -0.2,0.3 -0.1,0.3 -0.1,0.3 -0.1,0.4 -0.1,0.3 -0.1,0.4 v 0.3 0.3 0.4 z m 0,6.7 z m 200,-40 z"
                 inkscape:connector-curvature="0" /><g
                 id="g38"><path
                   id="path36"
                   style="fill:none;stroke:#000000;stroke-width:2.00929999;stroke-linecap:butt;stroke-linejoin:round;stroke-miterlimit:10;stroke-dasharray:none;stroke-opacity:1"
                   d="m 285.1,370.7 v 0 0.4 0.3 0.4 l 0.1,0.3 0.1,0.4 0.1,0.3 0.1,0.3 0.1,0.3 0.2,0.3 0.1,0.3 0.2,0.3 0.2,0.3 0.2,0.3 0.3,0.3 0.2,0.2 0.2,0.3 0.3,0.2 0.3,0.2 0.3,0.2 0.3,0.2 0.3,0.1 0.3,0.2 0.3,0.1 0.3,0.1 0.4,0.1 0.3,0.1 0.3,0.1 h 0.4 l 0.3,0.1 h 0.4 186.8 v 0 h 0.3 l 0.4,-0.1 h 0.3 l 0.4,-0.1 0.3,-0.1 0.3,-0.1 0.4,-0.1 0.3,-0.1 0.3,-0.2 0.3,-0.1 0.3,-0.2 0.3,-0.2 0.3,-0.2 0.2,-0.2 0.3,-0.3 0.2,-0.2 0.2,-0.3 0.2,-0.3 0.2,-0.3 0.2,-0.3 0.2,-0.3 0.2,-0.3 0.1,-0.3 0.1,-0.3 0.1,-0.3 0.1,-0.4 v -0.3 l 0.1,-0.4 v -0.3 -0.4 -26.6 0 -0.3 -0.4 l -0.1,-0.3 v -0.4 l -0.1,-0.3 -0.1,-0.3 -0.1,-0.4 -0.1,-0.3 -0.2,-0.3 -0.2,-0.3 -0.2,-0.3 -0.1,-0.3 -0.3,-0.3 -0.2,-0.2 -0.2,-0.3 -0.3,-0.2 -0.2,-0.2 -0.3,-0.3 -0.3,-0.2 -0.3,-0.1 -0.3,-0.2 -0.3,-0.1 -0.3,-0.2 -0.3,-0.1 -0.4,-0.1 -0.3,-0.1 h -0.4 l -0.3,-0.1 h -0.3 -0.4 l -186.8,-0.1 v 0.1 h -0.4 -0.3 l -0.4,0.1 h -0.3 l -0.3,0.1 -0.4,0.1 -0.3,0.1 -0.3,0.1 -0.3,0.2 -0.3,0.2 -0.3,0.1 -0.3,0.2 -0.3,0.2 -0.2,0.3 -0.3,0.2 -0.2,0.3 -0.2,0.2 -0.3,0.3 -0.2,0.3 -0.1,0.3 -0.2,0.3 -0.2,0.3 -0.1,0.3 -0.1,0.3 -0.1,0.4 -0.1,0.3 -0.1,0.4 v 0.3 0.3 0.4 z"
                   inkscape:connector-curvature="0" /></g><g
                 id="g42"><path
                   id="path40"
                   style="fill:none;stroke:#000000;stroke-width:2.00929999;stroke-linecap:butt;stroke-linejoin:round;stroke-miterlimit:10;stroke-dasharray:none;stroke-opacity:1"
                   d="M 285.1,377.4 Z"
                   inkscape:connector-curvature="0" /></g><g
                 id="g46"><path
                   id="path44"
                   style="fill:none;stroke:#000000;stroke-width:2.00929999;stroke-linecap:butt;stroke-linejoin:round;stroke-miterlimit:10;stroke-dasharray:none;stroke-opacity:1"
                   d="M 485.1,337.4 Z"
                   inkscape:connector-curvature="0" /></g><g
                 id="g52"><text
                   id="text50"
                   style="font-variant:normal;font-weight:normal;font-size:24px;font-family:Carlito;-inkscape-font-specification:Carlito;writing-mode:lr-tb;fill:#000000;fill-opacity:1;fill-rule:nonzero;stroke:none"
                   transform="matrix(1,0,0,-1,308,347.8)"><tspan
                     id="tspan48"
                     y="0"
                     x="0 20.496 31.992001 41.088001 48.888 60.959999 69.264 74.664001 83.952003 89.351997 98.639999 111.312 123.816 131.90401 142.08">Master / source</tspan></text>
</g></g></g></g><path
           id="path58"
           style="fill:#92d050;fill-opacity:1;fill-rule:evenodd;stroke:none"
           d="m 285.1,372.5 v 0 0.4 0.3 0.4 l 0.1,0.3 0.1,0.4 0.1,0.3 0.1,0.3 0.1,0.3 0.2,0.3 0.1,0.4 0.2,0.2 0.2,0.3 0.2,0.3 0.3,0.3 0.2,0.2 0.2,0.3 0.3,0.2 0.3,0.2 0.3,0.2 0.3,0.2 0.3,0.1 0.3,0.2 0.3,0.1 0.3,0.2 h 0.4 l 0.3,0.1 0.3,0.1 h 0.4 l 0.3,0.1 h 0.4 186.8 v 0 h 0.3 l 0.4,-0.1 h 0.3 l 0.4,-0.1 0.3,-0.1 h 0.3 l 0.4,-0.2 0.3,-0.1 0.3,-0.2 0.3,-0.1 0.3,-0.2 0.3,-0.2 0.3,-0.2 0.2,-0.2 0.3,-0.3 0.2,-0.2 0.2,-0.3 0.2,-0.3 0.2,-0.3 0.2,-0.2 0.2,-0.4 0.2,-0.3 0.1,-0.3 0.1,-0.3 0.1,-0.3 0.1,-0.4 v -0.3 l 0.1,-0.4 v -0.3 -0.4 -26.6 0 -0.3 -0.4 l -0.1,-0.3 v -0.4 l -0.1,-0.3 -0.1,-0.3 -0.1,-0.4 -0.1,-0.3 -0.2,-0.3 -0.2,-0.3 -0.2,-0.3 -0.1,-0.3 -0.3,-0.2 -0.2,-0.3 -0.2,-0.3 -0.3,-0.2 -0.2,-0.2 -0.3,-0.2 -0.3,-0.2 -0.3,-0.2 -0.3,-0.2 -0.3,-0.1 -0.3,-0.2 -0.3,-0.1 -0.4,-0.1 -0.3,-0.1 h -0.4 l -0.3,-0.1 h -0.3 -0.4 -186.8 v 0 h -0.4 -0.3 l -0.4,0.1 h -0.3 l -0.3,0.1 -0.4,0.1 -0.3,0.1 -0.3,0.2 -0.3,0.1 -0.3,0.2 -0.3,0.2 -0.3,0.1 -0.3,0.3 -0.2,0.2 -0.3,0.2 -0.2,0.3 -0.2,0.2 -0.3,0.3 -0.2,0.3 -0.1,0.3 -0.2,0.3 -0.2,0.3 -0.1,0.3 -0.1,0.4 -0.1,0.3 -0.1,0.3 -0.1,0.4 v 0.3 0.4 0.3 z m 0,6.7 z m 200,-39.9 z"
           inkscape:connector-curvature="0" /><g
           id="g60"><path
             id="path62"
             style="fill:none;stroke:#525e66;stroke-width:2.00929999;stroke-linecap:butt;stroke-linejoin:round;stroke-miterlimit:10;stroke-dasharray:none;stroke-opacity:1"
             d="m 285.1,372.5 v 0 0.4 0.3 0.4 l 0.1,0.3 0.1,0.4 0.1,0.3 0.1,0.3 0.1,0.3 0.2,0.3 0.1,0.4 0.2,0.2 0.2,0.3 0.2,0.3 0.3,0.3 0.2,0.2 0.2,0.3 0.3,0.2 0.3,0.2 0.3,0.2 0.3,0.2 0.3,0.1 0.3,0.2 0.3,0.1 0.3,0.2 h 0.4 l 0.3,0.1 0.3,0.1 h 0.4 l 0.3,0.1 h 0.4 186.8 v 0 h 0.3 l 0.4,-0.1 h 0.3 l 0.4,-0.1 0.3,-0.1 h 0.3 l 0.4,-0.2 0.3,-0.1 0.3,-0.2 0.3,-0.1 0.3,-0.2 0.3,-0.2 0.3,-0.2 0.2,-0.2 0.3,-0.3 0.2,-0.2 0.2,-0.3 0.2,-0.3 0.2,-0.3 0.2,-0.2 0.2,-0.4 0.2,-0.3 0.1,-0.3 0.1,-0.3 0.1,-0.3 0.1,-0.4 v -0.3 l 0.1,-0.4 v -0.3 -0.4 -26.6 0 -0.3 -0.4 l -0.1,-0.3 v -0.4 l -0.1,-0.3 -0.1,-0.3 -0.1,-0.4 -0.1,-0.3 -0.2,-0.3 -0.2,-0.3 -0.2,-0.3 -0.1,-0.3 -0.3,-0.2 -0.2,-0.3 -0.2,-0.3 -0.3,-0.2 -0.2,-0.2 -0.3,-0.2 -0.3,-0.2 -0.3,-0.2 -0.3,-0.2 -0.3,-0.1 -0.3,-0.2 -0.3,-0.1 -0.4,-0.1 -0.3,-0.1 h -0.4 l -0.3,-0.1 h -0.3 -0.4 -186.8 v 0 h -0.4 -0.3 l -0.4,0.1 h -0.3 l -0.3,0.1 -0.4,0.1 -0.3,0.1 -0.3,0.2 -0.3,0.1 -0.3,0.2 -0.3,0.2 -0.3,0.1 -0.3,0.3 -0.2,0.2 -0.3,0.2 -0.2,0.3 -0.2,0.2 -0.3,0.3 -0.2,0.3 -0.1,0.3 -0.2,0.3 -0.2,0.3 -0.1,0.3 -0.1,0.4 -0.1,0.3 -0.1,0.3 -0.1,0.4 v 0.3 0.4 0.3 z"
             inkscape:connector-curvature="0" /></g><g
           id="g64"><path
             id="path66"
             style="fill:none;stroke:#525e66;stroke-width:2.00929999;stroke-linecap:butt;stroke-linejoin:round;stroke-miterlimit:10;stroke-dasharray:none;stroke-opacity:1"
             d="M 285.1,379.2 Z"
             inkscape:connector-curvature="0" /></g><g
           id="g68"><path
             id="path70"
             style="fill:none;stroke:#525e66;stroke-width:2.00929999;stroke-linecap:butt;stroke-linejoin:round;stroke-miterlimit:10;stroke-dasharray:none;stroke-opacity:1"
             d="M 485.1,339.3 Z"
             inkscape:connector-curvature="0" /></g><g
           id="g72"><text
             id="text76"
             style="font-variant:normal;font-weight:normal;font-size:24px;font-family:Carlito;-inkscape-font-specification:Carlito;writing-mode:lr-tb;fill:#000000;fill-opacity:1;fill-rule:nonzero;stroke:none"
             transform="matrix(1,0,0,-1,308,349.6)"><tspan
               id="tspan74"
               y="0"
               x="0 20.496 31.992001 41.088001 48.888 60.959999 69.264 74.664001 83.952003 89.351997 98.639999 111.312 123.816 131.90401 142.08">Master / source</tspan></text>
</g><g
           id="g78"><g
             id="g80" /><g
             id="g114"><g
               style="opacity:0.35"
               id="g112"
               clip-path="url(#clipPath84)"><path
                 id="path86"
                 style="fill:#000000;fill-opacity:1;fill-rule:evenodd;stroke:none"
                 d="m 88.6,247.6 v 0 1.8 l 0.2,1.8 0.3,1.7 0.4,1.8 0.6,1.8 0.6,1.7 0.8,1.7 0.9,1.7 1,1.7 1.1,1.5 1.2,1.6 1.3,1.5 1.4,1.5 1.5,1.4 1.6,1.3 1.7,1.3 1.8,1.2 1.8,1.1 2,1.1 2,1 2,0.9 2.1,0.9 2.2,0.7 2.2,0.7 2.3,0.6 2.3,0.5 2.4,0.4 2.3,0.3 2.4,0.2 2.4,0.2 h 2.4 v 0 h 2.4 l 2.5,-0.2 2.4,-0.2 2.5,-0.3 2.4,-0.5 2.3,-0.5 2.3,-0.6 2.3,-0.8 2.3,-0.8 2.1,-0.8 2.1,-1 2.1,-1.1 1.9,-1.1 1.9,-1.2 1.8,-1.3 1.7,-1.4 1.6,-1.4 1.5,-1.5 1.4,-1.5 1.3,-1.6 1.2,-1.6 1.1,-1.7 0.9,-1.7 0.8,-1.8 0.7,-1.8 0.6,-1.8 0.5,-1.8 0.3,-1.9 0.2,-1.8 v -1.9 0 -1.9 l -0.2,-1.8 -0.3,-1.9 -0.5,-1.8 -0.6,-1.8 -0.6,-1.8 -0.9,-1.8 -0.9,-1.7 -1.1,-1.7 -1.2,-1.6 -1.3,-1.6 -1.4,-1.6 -1.5,-1.4 -1.6,-1.5 -1.7,-1.3 -1.8,-1.3 -1.8,-1.2 -2,-1.1 -2,-1.1 -2.1,-1 -2.2,-0.9 -2.3,-0.8 -2.2,-0.7 -2.4,-0.6 -2.3,-0.6 -2.4,-0.4 -2.5,-0.3 -2.4,-0.3 -2.5,-0.1 -2.4,-0.1 v 0 l -2.5,0.1 -2.5,0.1 -2.4,0.3 -2.5,0.3 -2.4,0.4 -2.3,0.6 -2.4,0.6 -2.2,0.7 -2.3,0.8 -2.2,0.9 -2.1,1 -2,1 -2,1.2 -1.8,1.2 -1.8,1.3 -1.7,1.3 -1.6,1.4 -1.5,1.5 -1.4,1.5 -1.3,1.6 -1.2,1.7 -1.1,1.7 -0.9,1.7 -0.8,1.7 -0.8,1.8 -0.5,1.9 -0.5,1.8 -0.3,1.8 -0.2,1.9 -0.1,1.9 z m 0,35.6 z M 183,211.9 Z"
                 inkscape:connector-curvature="0" /><g
                 id="g90"><path
                   id="path88"
                   style="fill:none;stroke:#000000;stroke-width:2.00929999;stroke-linecap:butt;stroke-linejoin:round;stroke-miterlimit:10;stroke-dasharray:none;stroke-opacity:1"
                   d="m 88.6,247.6 v 0 1.8 l 0.2,1.8 0.3,1.7 0.4,1.8 0.6,1.8 0.6,1.7 0.8,1.7 0.9,1.7 1,1.7 1.1,1.5 1.2,1.6 1.3,1.5 1.4,1.5 1.5,1.4 1.6,1.3 1.7,1.3 1.8,1.2 1.8,1.1 2,1.1 2,1 2,0.9 2.1,0.9 2.2,0.7 2.2,0.7 2.3,0.6 2.3,0.5 2.4,0.4 2.3,0.3 2.4,0.2 2.4,0.2 h 2.4 v 0 h 2.4 l 2.5,-0.2 2.4,-0.2 2.5,-0.3 2.4,-0.5 2.3,-0.5 2.3,-0.6 2.3,-0.8 2.3,-0.8 2.1,-0.8 2.1,-1 2.1,-1.1 1.9,-1.1 1.9,-1.2 1.8,-1.3 1.7,-1.4 1.6,-1.4 1.5,-1.5 1.4,-1.5 1.3,-1.6 1.2,-1.6 1.1,-1.7 0.9,-1.7 0.8,-1.8 0.7,-1.8 0.6,-1.8 0.5,-1.8 0.3,-1.9 0.2,-1.8 v -1.9 0 -1.9 l -0.2,-1.8 -0.3,-1.9 -0.5,-1.8 -0.6,-1.8 -0.6,-1.8 -0.9,-1.8 -0.9,-1.7 -1.1,-1.7 -1.2,-1.6 -1.3,-1.6 -1.4,-1.6 -1.5,-1.4 -1.6,-1.5 -1.7,-1.3 -1.8,-1.3 -1.8,-1.2 -2,-1.1 -2,-1.1 -2.1,-1 -2.2,-0.9 -2.3,-0.8 -2.2,-0.7 -2.4,-0.6 -2.3,-0.6 -2.4,-0.4 -2.5,-0.3 -2.4,-0.3 -2.5,-0.1 -2.4,-0.1 v 0 l -2.5,0.1 -2.5,0.1 -2.4,0.3 -2.5,0.3 -2.4,0.4 -2.3,0.6 -2.4,0.6 -2.2,0.7 -2.3,0.8 -2.2,0.9 -2.1,1 -2,1 -2,1.2 -1.8,1.2 -1.8,1.3 -1.7,1.3 -1.6,1.4 -1.5,1.5 -1.4,1.5 -1.3,1.6 -1.2,1.7 -1.1,1.7 -0.9,1.7 -0.8,1.7 -0.8,1.8 -0.5,1.9 -0.5,1.8 -0.3,1.8 -0.2,1.9 -0.1,1.9 z"
                   inkscape:connector-curvature="0" /></g><g
                 id="g94"><path
                   id="path92"
                   style="fill:none;stroke:#000000;stroke-width:2.00929999;stroke-linecap:butt;stroke-linejoin:round;stroke-miterlimit:10;stroke-dasharray:none;stroke-opacity:1"
                   d="M 88.6,283.2 Z"
                   inkscape:connector-curvature="0" /></g><g
                 id="g98"><path
                   id="path96"
                   style="fill:none;stroke:#000000;stroke-width:2.00929999;stroke-linecap:butt;stroke-linejoin:round;stroke-miterlimit:10;stroke-dasharray:none;stroke-opacity:1"
                   d="M 183,211.9 Z"
                   inkscape:connector-curvature="0" /></g><g
                 id="g104"><text
                   id="text102"
                   style="font-variant:normal;font-weight:normal;font-size:18px;font-family:Carlito;-inkscape-font-specification:Carlito;writing-mode:lr-tb;fill:#000000;fill-opacity:1;fill-rule:nonzero;stroke:none"
                   transform="matrix(1,0,0,-1,111.5,251.2)"><tspan
                     id="tspan100"
                     y="0"
                     x="0 8.2080002 12.312 20.610001 28.511999 37.493999 41.580002 48.563999">Slave / </tspan></text>
</g><g
                 id="g110"><text
                   id="text108"
                   style="font-variant:normal;font-weight:normal;font-size:18px;font-family:Carlito;-inkscape-font-specification:Carlito;writing-mode:lr-tb;fill:#000000;fill-opacity:1;fill-rule:nonzero;stroke:none"
                   transform="matrix(1,0,0,-1,110.2,229.6)"><tspan
                     id="tspan106"
                     y="0"
                     x="0 12.708 22.104 28.386 35.981998 44.964001">worker</tspan></text>
</g></g></g></g><path
           id="path116"
           style="fill:#c5d0ed;fill-opacity:1;fill-rule:evenodd;stroke:none"
           d="m 88.6,249.4 v 0 1.8 l 0.2,1.8 0.3,1.8 0.4,1.7 0.6,1.8 0.6,1.7 0.8,1.8 0.9,1.6 1,1.7 1.1,1.6 1.2,1.5 1.3,1.5 1.4,1.5 1.5,1.4 1.6,1.3 1.7,1.3 1.8,1.2 1.8,1.1 2,1.1 2,1 2,1 2.1,0.8 2.2,0.7 2.2,0.7 2.3,0.6 2.3,0.5 2.4,0.4 2.3,0.3 2.4,0.2 2.4,0.2 h 2.4 v 0 h 2.4 l 2.5,-0.2 2.4,-0.2 2.5,-0.3 2.4,-0.5 2.3,-0.5 2.3,-0.6 2.3,-0.8 2.3,-0.8 2.1,-0.8 2.1,-1 2.1,-1.1 1.9,-1.1 1.9,-1.2 1.8,-1.3 1.7,-1.4 1.6,-1.4 1.5,-1.5 1.4,-1.5 1.3,-1.6 1.2,-1.6 1.1,-1.7 0.9,-1.7 0.8,-1.8 0.7,-1.8 0.6,-1.8 0.5,-1.8 0.3,-1.9 0.2,-1.8 v -1.9 0 -1.9 l -0.2,-1.8 -0.3,-1.9 -0.5,-1.8 -0.6,-1.8 -0.6,-1.8 -0.9,-1.8 -0.9,-1.7 -1.1,-1.7 -1.2,-1.6 -1.3,-1.6 -1.4,-1.5 -1.5,-1.5 -1.6,-1.5 -1.7,-1.3 -1.8,-1.3 -1.8,-1.2 -2,-1.1 -2,-1.1 -2.1,-1 -2.2,-0.9 -2.3,-0.8 -2.2,-0.7 -2.4,-0.6 -2.3,-0.5 -2.4,-0.5 -2.5,-0.3 -2.4,-0.3 -2.5,-0.1 -2.4,-0.1 v 0 l -2.5,0.1 -2.5,0.1 -2.4,0.3 -2.5,0.3 -2.4,0.5 -2.3,0.5 -2.4,0.6 -2.2,0.7 -2.3,0.8 -2.2,0.9 -2.1,1 -2,1 -2,1.2 -1.8,1.2 -1.8,1.3 -1.7,1.3 -1.6,1.4 -1.5,1.5 -1.4,1.6 -1.3,1.5 -1.2,1.7 -1.1,1.7 -0.9,1.7 -0.8,1.7 -0.8,1.9 -0.5,1.8 -0.5,1.8 -0.3,1.9 -0.2,1.8 -0.1,1.9 z m 0,35.6 z M 183,213.7 Z"
           inkscape:connector-curvature="0" /><g
           id="g118"><path
             id="path120"
             style="fill:none;stroke:#525e66;stroke-width:2.00929999;stroke-linecap:butt;stroke-linejoin:round;stroke-miterlimit:10;stroke-dasharray:none;stroke-opacity:1"
             d="m 88.6,249.4 v 0 1.8 l 0.2,1.8 0.3,1.8 0.4,1.7 0.6,1.8 0.6,1.7 0.8,1.8 0.9,1.6 1,1.7 1.1,1.6 1.2,1.5 1.3,1.5 1.4,1.5 1.5,1.4 1.6,1.3 1.7,1.3 1.8,1.2 1.8,1.1 2,1.1 2,1 2,1 2.1,0.8 2.2,0.7 2.2,0.7 2.3,0.6 2.3,0.5 2.4,0.4 2.3,0.3 2.4,0.2 2.4,0.2 h 2.4 v 0 h 2.4 l 2.5,-0.2 2.4,-0.2 2.5,-0.3 2.4,-0.5 2.3,-0.5 2.3,-0.6 2.3,-0.8 2.3,-0.8 2.1,-0.8 2.1,-1 2.1,-1.1 1.9,-1.1 1.9,-1.2 1.8,-1.3 1.7,-1.4 1.6,-1.4 1.5,-1.5 1.4,-1.5 1.3,-1.6 1.2,-1.6 1.1,-1.7 0.9,-1.7 0.8,-1.8 0.7,-1.8 0.6,-1.8 0.5,-1.8 0.3,-1.9 0.2,-1.8 v -1.9 0 -1.9 l -0.2,-1.8 -0.3,-1.9 -0.5,-1.8 -0.6,-1.8 -0.6,-1.8 -0.9,-1.8 -0.9,-1.7 -1.1,-1.7 -1.2,-1.6 -1.3,-1.6 -1.4,-1.5 -1.5,-1.5 -1.6,-1.5 -1.7,-1.3 -1.8,-1.3 -1.8,-1.2 -2,-1.1 -2,-1.1 -2.1,-1 -2.2,-0.9 -2.3,-0.8 -2.2,-0.7 -2.4,-0.6 -2.3,-0.5 -2.4,-0.5 -2.5,-0.3 -2.4,-0.3 -2.5,-0.1 -2.4,-0.1 v 0 l -2.5,0.1 -2.5,0.1 -2.4,0.3 -2.5,0.3 -2.4,0.5 -2.3,0.5 -2.4,0.6 -2.2,0.7 -2.3,0.8 -2.2,0.9 -2.1,1 -2,1 -2,1.2 -1.8,1.2 -1.8,1.3 -1.7,1.3 -1.6,1.4 -1.5,1.5 -1.4,1.6 -1.3,1.5 -1.2,1.7 -1.1,1.7 -0.9,1.7 -0.8,1.7 -0.8,1.9 -0.5,1.8 -0.5,1.8 -0.3,1.9 -0.2,1.8 -0.1,1.9 z"
             inkscape:connector-curvature="0" /></g><g
           id="g122"><path
             id="path124"
             style="fill:none;stroke:#525e66;stroke-width:2.00929999;stroke-linecap:butt;stroke-linejoin:round;stroke-miterlimit:10;stroke-dasharray:none;stroke-opacity:1"
             d="M 88.6,285 Z"
             inkscape:connector-curvature="0" /></g><g
           id="g126"><path
             id="path128"
             style="fill:none;stroke:#525e66;stroke-width:2.00929999;stroke-linecap:butt;stroke-linejoin:round;stroke-miterlimit:10;stroke-dasharray:none;stroke-opacity:1"
             d="M 183,213.7 Z"
             inkscape:connector-curvature="0" /></g><g
           id="g130"><text
             id="text134"
             style="font-variant:normal;font-weight:normal;font-size:18px;font-family:Carlito;-inkscape-font-specification:Carlito;writing-mode:lr-tb;fill:#000000;fill-opacity:1;fill-rule:nonzero;stroke:none"
             transform="matrix(1,0,0,-1,111.5,253)"><tspan
               id="tspan132"
               y="0"
               x="0 8.2080002 12.312 20.610001 28.511999 37.493999 41.580002 48.563999">Slave / </tspan></text>
</g><g
           id="g136"><text
             id="text140"
             style="font-variant:normal;font-weight:normal;font-size:18px;font-family:Carlito;-inkscape-font-specification:Carlito;writing-mode:lr-tb;fill:#000000;fill-opacity:1;fill-rule:nonzero;stroke:none"
             transform="matrix(1,0,0,-1,110.2,231.4)"><tspan
               id="tspan138"
               y="0"
               x="0 12.708 22.104 28.386 35.981998 44.964001">worker</tspan></text>
</g><g
           id="g142"><g
             id="g144" /><g
             id="g178"><g
               style="opacity:0.35"
               id="g176"
               clip-path="url(#clipPath148)"><path
                 id="path150"
                 style="fill:#000000;fill-opacity:1;fill-rule:evenodd;stroke:none"
                 d="m 221.8,247.6 v 0 1.8 l 0.2,1.8 0.3,1.7 0.4,1.8 0.6,1.8 0.6,1.7 0.8,1.7 0.9,1.7 1,1.7 1.1,1.5 1.2,1.6 1.3,1.5 1.4,1.5 1.5,1.4 1.7,1.3 1.6,1.3 1.8,1.2 1.9,1.1 1.9,1.1 2,1 2.1,0.9 2.1,0.9 2.2,0.7 2.2,0.7 2.2,0.6 2.3,0.5 2.4,0.4 2.3,0.3 2.4,0.2 2.4,0.2 h 2.4 v 0 h 2.4 l 2.5,-0.2 2.4,-0.2 2.5,-0.3 2.4,-0.5 2.3,-0.5 2.4,-0.6 2.3,-0.8 2.2,-0.8 2.2,-0.8 2.1,-1 2,-1.1 2,-1.1 1.9,-1.2 1.7,-1.3 1.7,-1.4 1.6,-1.4 1.6,-1.5 1.4,-1.5 1.2,-1.6 1.2,-1.6 1.1,-1.7 0.9,-1.7 0.9,-1.8 0.7,-1.8 0.5,-1.8 0.5,-1.8 0.3,-1.9 0.2,-1.8 0.1,-1.9 v 0 l -0.1,-1.9 -0.2,-1.8 -0.3,-1.9 -0.4,-1.8 -0.6,-1.8 -0.7,-1.8 -0.9,-1.8 -0.9,-1.7 -1.1,-1.7 -1.1,-1.6 -1.3,-1.6 -1.4,-1.6 -1.5,-1.4 -1.7,-1.5 -1.7,-1.3 -1.7,-1.3 -1.9,-1.2 -2,-1.1 -2,-1.1 -2.1,-1 -2.2,-0.9 -2.2,-0.8 -2.3,-0.7 -2.3,-0.6 -2.4,-0.6 -2.4,-0.4 -2.4,-0.3 -2.5,-0.3 -2.5,-0.1 -2.4,-0.1 v 0 l -2.5,0.1 -2.5,0.1 -2.4,0.3 -2.4,0.3 -2.4,0.4 -2.4,0.6 -2.3,0.6 -2.3,0.7 -2.3,0.8 -2.1,0.9 -2.1,1 -2.1,1 -1.9,1.2 -1.9,1.2 -1.8,1.3 -1.7,1.3 -1.6,1.4 -1.5,1.5 -1.4,1.5 -1.3,1.6 -1.2,1.7 -1.1,1.7 -0.9,1.7 -0.8,1.7 -0.7,1.8 -0.6,1.9 -0.5,1.8 -0.3,1.8 -0.2,1.9 z m 0,35.6 z m 94.4,-71.3 z"
                 inkscape:connector-curvature="0" /><g
                 id="g154"><path
                   id="path152"
                   style="fill:none;stroke:#000000;stroke-width:2.00929999;stroke-linecap:butt;stroke-linejoin:round;stroke-miterlimit:10;stroke-dasharray:none;stroke-opacity:1"
                   d="m 221.8,247.6 v 0 1.8 l 0.2,1.8 0.3,1.7 0.4,1.8 0.6,1.8 0.6,1.7 0.8,1.7 0.9,1.7 1,1.7 1.1,1.5 1.2,1.6 1.3,1.5 1.4,1.5 1.5,1.4 1.7,1.3 1.6,1.3 1.8,1.2 1.9,1.1 1.9,1.1 2,1 2.1,0.9 2.1,0.9 2.2,0.7 2.2,0.7 2.2,0.6 2.3,0.5 2.4,0.4 2.3,0.3 2.4,0.2 2.4,0.2 h 2.4 v 0 h 2.4 l 2.5,-0.2 2.4,-0.2 2.5,-0.3 2.4,-0.5 2.3,-0.5 2.4,-0.6 2.3,-0.8 2.2,-0.8 2.2,-0.8 2.1,-1 2,-1.1 2,-1.1 1.9,-1.2 1.7,-1.3 1.7,-1.4 1.6,-1.4 1.6,-1.5 1.4,-1.5 1.2,-1.6 1.2,-1.6 1.1,-1.7 0.9,-1.7 0.9,-1.8 0.7,-1.8 0.5,-1.8 0.5,-1.8 0.3,-1.9 0.2,-1.8 0.1,-1.9 v 0 l -0.1,-1.9 -0.2,-1.8 -0.3,-1.9 -0.4,-1.8 -0.6,-1.8 -0.7,-1.8 -0.9,-1.8 -0.9,-1.7 -1.1,-1.7 -1.1,-1.6 -1.3,-1.6 -1.4,-1.6 -1.5,-1.4 -1.7,-1.5 -1.7,-1.3 -1.7,-1.3 -1.9,-1.2 -2,-1.1 -2,-1.1 -2.1,-1 -2.2,-0.9 -2.2,-0.8 -2.3,-0.7 -2.3,-0.6 -2.4,-0.6 -2.4,-0.4 -2.4,-0.3 -2.5,-0.3 -2.5,-0.1 -2.4,-0.1 v 0 l -2.5,0.1 -2.5,0.1 -2.4,0.3 -2.4,0.3 -2.4,0.4 -2.4,0.6 -2.3,0.6 -2.3,0.7 -2.3,0.8 -2.1,0.9 -2.1,1 -2.1,1 -1.9,1.2 -1.9,1.2 -1.8,1.3 -1.7,1.3 -1.6,1.4 -1.5,1.5 -1.4,1.5 -1.3,1.6 -1.2,1.7 -1.1,1.7 -0.9,1.7 -0.8,1.7 -0.7,1.8 -0.6,1.9 -0.5,1.8 -0.3,1.8 -0.2,1.9 z"
                   inkscape:connector-curvature="0" /></g><g
                 id="g158"><path
                   id="path156"
                   style="fill:none;stroke:#000000;stroke-width:2.00929999;stroke-linecap:butt;stroke-linejoin:round;stroke-miterlimit:10;stroke-dasharray:none;stroke-opacity:1"
                   d="M 221.8,283.2 Z"
                   inkscape:connector-curvature="0" /></g><g
                 id="g162"><path
                   id="path160"
                   style="fill:none;stroke:#000000;stroke-width:2.00929999;stroke-linecap:butt;stroke-linejoin:round;stroke-miterlimit:10;stroke-dasharray:none;stroke-opacity:1"
                   d="M 316.2,211.9 Z"
                   inkscape:connector-curvature="0" /></g><g
                 id="g168"><text
                   id="text166"
                   style="font-variant:normal;font-weight:normal;font-size:18px;font-family:Carlito;-inkscape-font-specification:Carlito;writing-mode:lr-tb;fill:#000000;fill-opacity:1;fill-rule:nonzero;stroke:none"
                   transform="matrix(1,0,0,-1,244.7,251.2)"><tspan
                     id="tspan164"
                     y="0"
                     x="0 8.2799997 12.276 20.573999 28.566 37.458 41.543999 48.528">Slave / </tspan></text>
</g><g
                 id="g174"><text
                   id="text172"
                   style="font-variant:normal;font-weight:normal;font-size:18px;font-family:Carlito;-inkscape-font-specification:Carlito;writing-mode:lr-tb;fill:#000000;fill-opacity:1;fill-rule:nonzero;stroke:none"
                   transform="matrix(1,0,0,-1,243.4,229.6)"><tspan
                     id="tspan170"
                     y="0"
                     x="0 12.708 22.194 28.386 35.981998 44.964001">worker</tspan></text>
</g></g></g></g><path
           id="path180"
           style="fill:#c5d0ed;fill-opacity:1;fill-rule:evenodd;stroke:none"
           d="m 221.8,249.4 v 0 1.8 l 0.2,1.8 0.3,1.8 0.4,1.7 0.6,1.8 0.6,1.7 0.8,1.8 0.9,1.6 1,1.7 1.1,1.6 1.2,1.5 1.3,1.5 1.4,1.5 1.5,1.4 1.7,1.3 1.6,1.3 1.8,1.2 1.9,1.1 1.9,1.1 2,1 2.1,1 2.1,0.8 2.2,0.7 2.2,0.7 2.2,0.6 2.3,0.5 2.4,0.4 2.3,0.3 2.4,0.2 2.4,0.2 h 2.4 v 0 h 2.4 l 2.5,-0.2 2.4,-0.2 2.5,-0.3 2.4,-0.5 2.3,-0.5 2.4,-0.6 2.3,-0.8 2.2,-0.8 2.2,-0.8 2.1,-1 2,-1.1 2,-1.1 1.9,-1.2 1.7,-1.3 1.7,-1.4 1.6,-1.4 1.6,-1.5 1.4,-1.5 1.2,-1.6 1.2,-1.6 1.1,-1.7 0.9,-1.7 0.9,-1.8 0.7,-1.8 0.5,-1.8 0.5,-1.8 0.3,-1.9 0.2,-1.8 0.1,-1.9 v 0 l -0.1,-1.9 -0.2,-1.8 -0.3,-1.9 -0.4,-1.8 -0.6,-1.8 -0.7,-1.8 -0.9,-1.8 -0.9,-1.7 -1.1,-1.7 -1.1,-1.6 -1.3,-1.6 -1.4,-1.5 -1.5,-1.5 -1.7,-1.5 -1.7,-1.3 -1.7,-1.3 -1.9,-1.2 -2,-1.1 -2,-1.1 -2.1,-1 -2.2,-0.9 -2.2,-0.8 -2.3,-0.7 -2.3,-0.6 -2.4,-0.5 -2.4,-0.5 -2.4,-0.3 -2.5,-0.3 -2.5,-0.1 -2.4,-0.1 v 0 l -2.5,0.1 -2.5,0.1 -2.4,0.3 -2.4,0.3 -2.4,0.5 -2.4,0.5 -2.3,0.6 -2.3,0.7 -2.3,0.8 -2.1,0.9 -2.1,1 -2.1,1 -1.9,1.2 -1.9,1.2 -1.8,1.3 -1.7,1.3 -1.6,1.4 -1.5,1.5 -1.4,1.6 -1.3,1.5 -1.2,1.7 -1.1,1.7 -0.9,1.7 -0.8,1.7 -0.7,1.9 -0.6,1.8 -0.5,1.8 -0.3,1.9 -0.2,1.8 z m 0,35.6 z m 94.4,-71.3 z"
           inkscape:connector-curvature="0" /><g
           id="g182"><path
             id="path184"
             style="fill:none;stroke:#525e66;stroke-width:2.00929999;stroke-linecap:butt;stroke-linejoin:round;stroke-miterlimit:10;stroke-dasharray:none;stroke-opacity:1"
             d="m 221.8,249.4 v 0 1.8 l 0.2,1.8 0.3,1.8 0.4,1.7 0.6,1.8 0.6,1.7 0.8,1.8 0.9,1.6 1,1.7 1.1,1.6 1.2,1.5 1.3,1.5 1.4,1.5 1.5,1.4 1.7,1.3 1.6,1.3 1.8,1.2 1.9,1.1 1.9,1.1 2,1 2.1,1 2.1,0.8 2.2,0.7 2.2,0.7 2.2,0.6 2.3,0.5 2.4,0.4 2.3,0.3 2.4,0.2 2.4,0.2 h 2.4 v 0 h 2.4 l 2.5,-0.2 2.4,-0.2 2.5,-0.3 2.4,-0.5 2.3,-0.5 2.4,-0.6 2.3,-0.8 2.2,-0.8 2.2,-0.8 2.1,-1 2,-1.1 2,-1.1 1.9,-1.2 1.7,-1.3 1.7,-1.4 1.6,-1.4 1.6,-1.5 1.4,-1.5 1.2,-1.6 1.2,-1.6 1.1,-1.7 0.9,-1.7 0.9,-1.8 0.7,-1.8 0.5,-1.8 0.5,-1.8 0.3,-1.9 0.2,-1.8 0.1,-1.9 v 0 l -0.1,-1.9 -0.2,-1.8 -0.3,-1.9 -0.4,-1.8 -0.6,-1.8 -0.7,-1.8 -0.9,-1.8 -0.9,-1.7 -1.1,-1.7 -1.1,-1.6 -1.3,-1.6 -1.4,-1.5 -1.5,-1.5 -1.7,-1.5 -1.7,-1.3 -1.7,-1.3 -1.9,-1.2 -2,-1.1 -2,-1.1 -2.1,-1 -2.2,-0.9 -2.2,-0.8 -2.3,-0.7 -2.3,-0.6 -2.4,-0.5 -2.4,-0.5 -2.4,-0.3 -2.5,-0.3 -2.5,-0.1 -2.4,-0.1 v 0 l -2.5,0.1 -2.5,0.1 -2.4,0.3 -2.4,0.3 -2.4,0.5 -2.4,0.5 -2.3,0.6 -2.3,0.7 -2.3,0.8 -2.1,0.9 -2.1,1 -2.1,1 -1.9,1.2 -1.9,1.2 -1.8,1.3 -1.7,1.3 -1.6,1.4 -1.5,1.5 -1.4,1.6 -1.3,1.5 -1.2,1.7 -1.1,1.7 -0.9,1.7 -0.8,1.7 -0.7,1.9 -0.6,1.8 -0.5,1.8 -0.3,1.9 -0.2,1.8 z"
             inkscape:connector-curvature="0" /></g><g
           id="g186"><path
             id="path188"
             style="fill:none;stroke:#525e66;stroke-width:2.00929999;stroke-linecap:butt;stroke-linejoin:round;stroke-miterlimit:10;stroke-dasharray:none;stroke-opacity:1"
             d="M 221.8,285 Z"
             inkscape:connector-curvature="0" /></g><g
           id="g190"><path
             id="path192"
             style="fill:none;stroke:#525e66;stroke-width:2.00929999;stroke-linecap:butt;stroke-linejoin:round;stroke-miterlimit:10;stroke-dasharray:none;stroke-opacity:1"
             d="M 316.2,213.7 Z"
             inkscape:connector-curvature="0" /></g><g
           id="g194"><text
             id="text198"
             style="font-variant:normal;font-weight:normal;font-size:18px;font-family:Carlito;-inkscape-font-specification:Carlito;writing-mode:lr-tb;fill:#000000;fill-opacity:1;fill-rule:nonzero;stroke:none"
             transform="matrix(1,0,0,-1,244.7,253)"><tspan
               id="tspan196"
               y="0"
               x="0 8.2799997 12.276 20.573999 28.566 37.458 41.543999 48.528">Slave / </tspan></text>
</g><g
           id="g200"><text
             id="text204"
             style="font-variant:normal;font-weight:normal;font-size:18px;font-family:Carlito;-inkscape-font-specification:Carlito;writing-mode:lr-tb;fill:#000000;fill-opacity:1;fill-rule:nonzero;stroke:none"
             transform="matrix(1,0,0,-1,243.4,231.4)"><tspan
               id="tspan202"
               y="0"
               x="0 12.708 22.194 28.386 35.981998 44.964001">worker</tspan></text>
</g><g
           id="g206"><text
             id="text210"
             style="font-variant:normal;font-weight:normal;font-size:48px;font-family:Carlito;-inkscape-font-specification:Carlito;writing-mode:lr-tb;fill:#000000;fill-opacity:1;fill-rule:nonzero;stroke:none"
             transform="matrix(1,0,0,-1,355.3,240.3)"><tspan
               id="tspan208"
               y="0"
               x="0">…</tspan></text>
</g><g
           id="g212"><g
             id="g214" /><g
             id="g248"><g
               style="opacity:0.35"
               id="g246"
               clip-path="url(#clipPath218)"><path
                 id="path220"
                 style="fill:#000000;fill-opacity:1;fill-rule:evenodd;stroke:none"
                 d="m 420.9,247.6 v 0 l 0.1,1.8 0.2,1.8 0.3,1.7 0.4,1.8 0.5,1.8 0.7,1.7 0.8,1.7 0.9,1.7 1,1.7 1.1,1.5 1.2,1.6 1.3,1.5 1.4,1.5 1.5,1.4 1.6,1.3 1.7,1.3 1.8,1.2 1.8,1.1 2,1.1 2,1 2,0.9 2.1,0.9 2.2,0.7 2.2,0.7 2.3,0.6 2.3,0.5 2.3,0.4 2.4,0.3 2.4,0.2 2.4,0.2 h 2.3 v 0 h 2.5 l 2.5,-0.2 2.4,-0.2 2.4,-0.3 2.5,-0.5 2.3,-0.5 2.3,-0.6 2.3,-0.8 2.3,-0.8 2.1,-0.8 2.1,-1 2.1,-1.1 1.9,-1.1 1.9,-1.2 1.8,-1.3 1.7,-1.4 1.6,-1.4 1.5,-1.5 1.4,-1.5 1.3,-1.6 1.2,-1.6 1.1,-1.7 0.9,-1.7 0.8,-1.8 0.7,-1.8 0.6,-1.8 0.4,-1.8 0.4,-1.9 0.2,-1.8 v -1.9 0 -1.9 l -0.2,-1.8 -0.3,-1.9 -0.5,-1.8 -0.6,-1.8 -0.7,-1.8 -0.8,-1.8 -0.9,-1.7 -1.1,-1.7 -1.2,-1.6 -1.3,-1.6 -1.4,-1.6 -1.5,-1.4 -1.6,-1.5 -1.7,-1.3 -1.8,-1.3 -1.9,-1.2 -1.9,-1.1 -2,-1.1 -2.1,-1 -2.2,-0.9 -2.3,-0.8 -2.2,-0.7 -2.4,-0.6 -2.3,-0.6 -2.5,-0.4 -2.4,-0.3 -2.4,-0.3 -2.5,-0.1 -2.5,-0.1 v 0 l -2.4,0.1 -2.5,0.1 -2.4,0.3 -2.5,0.3 -2.4,0.4 -2.4,0.6 -2.3,0.6 -2.2,0.7 -2.3,0.8 -2.2,0.9 -2.1,1 -2,1 -2,1.2 -1.8,1.2 -1.9,1.3 -1.7,1.3 -1.5,1.4 -1.5,1.5 -1.5,1.5 -1.2,1.6 -1.2,1.7 -1.1,1.7 -0.9,1.7 -0.9,1.7 -0.7,1.8 -0.5,1.9 -0.5,1.8 -0.3,1.8 -0.2,1.9 z m 0,35.6 z m 94.5,-71.3 z"
                 inkscape:connector-curvature="0" /><g
                 id="g224"><path
                   id="path222"
                   style="fill:none;stroke:#000000;stroke-width:2.00929999;stroke-linecap:butt;stroke-linejoin:round;stroke-miterlimit:10;stroke-dasharray:none;stroke-opacity:1"
                   d="m 420.9,247.6 v 0 l 0.1,1.8 0.2,1.8 0.3,1.7 0.4,1.8 0.5,1.8 0.7,1.7 0.8,1.7 0.9,1.7 1,1.7 1.1,1.5 1.2,1.6 1.3,1.5 1.4,1.5 1.5,1.4 1.6,1.3 1.7,1.3 1.8,1.2 1.8,1.1 2,1.1 2,1 2,0.9 2.1,0.9 2.2,0.7 2.2,0.7 2.3,0.6 2.3,0.5 2.3,0.4 2.4,0.3 2.4,0.2 2.4,0.2 h 2.3 v 0 h 2.5 l 2.5,-0.2 2.4,-0.2 2.4,-0.3 2.5,-0.5 2.3,-0.5 2.3,-0.6 2.3,-0.8 2.3,-0.8 2.1,-0.8 2.1,-1 2.1,-1.1 1.9,-1.1 1.9,-1.2 1.8,-1.3 1.7,-1.4 1.6,-1.4 1.5,-1.5 1.4,-1.5 1.3,-1.6 1.2,-1.6 1.1,-1.7 0.9,-1.7 0.8,-1.8 0.7,-1.8 0.6,-1.8 0.4,-1.8 0.4,-1.9 0.2,-1.8 v -1.9 0 -1.9 l -0.2,-1.8 -0.3,-1.9 -0.5,-1.8 -0.6,-1.8 -0.7,-1.8 -0.8,-1.8 -0.9,-1.7 -1.1,-1.7 -1.2,-1.6 -1.3,-1.6 -1.4,-1.6 -1.5,-1.4 -1.6,-1.5 -1.7,-1.3 -1.8,-1.3 -1.9,-1.2 -1.9,-1.1 -2,-1.1 -2.1,-1 -2.2,-0.9 -2.3,-0.8 -2.2,-0.7 -2.4,-0.6 -2.3,-0.6 -2.5,-0.4 -2.4,-0.3 -2.4,-0.3 -2.5,-0.1 -2.5,-0.1 v 0 l -2.4,0.1 -2.5,0.1 -2.4,0.3 -2.5,0.3 -2.4,0.4 -2.4,0.6 -2.3,0.6 -2.2,0.7 -2.3,0.8 -2.2,0.9 -2.1,1 -2,1 -2,1.2 -1.8,1.2 -1.9,1.3 -1.7,1.3 -1.5,1.4 -1.5,1.5 -1.5,1.5 -1.2,1.6 -1.2,1.7 -1.1,1.7 -0.9,1.7 -0.9,1.7 -0.7,1.8 -0.5,1.9 -0.5,1.8 -0.3,1.8 -0.2,1.9 z"
                   inkscape:connector-curvature="0" /></g><g
                 id="g228"><path
                   id="path226"
                   style="fill:none;stroke:#000000;stroke-width:2.00929999;stroke-linecap:butt;stroke-linejoin:round;stroke-miterlimit:10;stroke-dasharray:none;stroke-opacity:1"
                   d="M 420.9,283.2 Z"
                   inkscape:connector-curvature="0" /></g><g
                 id="g232"><path
                   id="path230"
                   style="fill:none;stroke:#000000;stroke-width:2.00929999;stroke-linecap:butt;stroke-linejoin:round;stroke-miterlimit:10;stroke-dasharray:none;stroke-opacity:1"
                   d="M 515.4,211.9 Z"
                   inkscape:connector-curvature="0" /></g><g
                 id="g238"><text
                   id="text236"
                   style="font-variant:normal;font-weight:normal;font-size:18px;font-family:Carlito;-inkscape-font-specification:Carlito;writing-mode:lr-tb;fill:#000000;fill-opacity:1;fill-rule:nonzero;stroke:none"
                   transform="matrix(1,0,0,-1,443.8,251.2)"><tspan
                     id="tspan234"
                     y="0"
                     x="0 8.2799997 12.384 20.681999 28.584 37.566002 41.652 48.636002">Slave / </tspan></text>
</g><g
                 id="g244"><text
                   id="text242"
                   style="font-variant:normal;font-weight:normal;font-size:18px;font-family:Carlito;-inkscape-font-specification:Carlito;writing-mode:lr-tb;fill:#000000;fill-opacity:1;fill-rule:nonzero;stroke:none"
                   transform="matrix(1,0,0,-1,442.5,229.6)"><tspan
                     id="tspan240"
                     y="0"
                     x="0 12.798 22.194 28.476 35.981998 45.071999">worker</tspan></text>
</g></g></g></g><path
           id="path250"
           style="fill:#c5d0ed;fill-opacity:1;fill-rule:evenodd;stroke:none"
           d="m 420.9,249.4 v 0 l 0.1,1.8 0.2,1.8 0.3,1.8 0.4,1.7 0.5,1.8 0.7,1.7 0.8,1.8 0.9,1.6 1,1.7 1.1,1.6 1.2,1.5 1.3,1.5 1.4,1.5 1.5,1.4 1.6,1.3 1.7,1.3 1.8,1.2 1.8,1.1 2,1.1 2,1 2,1 2.1,0.8 2.2,0.7 2.2,0.7 2.3,0.6 2.3,0.5 2.3,0.4 2.4,0.3 2.4,0.2 2.4,0.2 h 2.3 v 0 h 2.5 l 2.5,-0.2 2.4,-0.2 2.4,-0.3 2.5,-0.5 2.3,-0.5 2.3,-0.6 2.3,-0.8 2.3,-0.8 2.1,-0.8 2.1,-1 2.1,-1.1 1.9,-1.1 1.9,-1.2 1.8,-1.3 1.7,-1.4 1.6,-1.4 1.5,-1.5 1.4,-1.5 1.3,-1.6 1.2,-1.6 1.1,-1.7 0.9,-1.7 0.8,-1.8 0.7,-1.8 0.6,-1.8 0.4,-1.8 0.4,-1.9 0.2,-1.8 v -1.9 0 -1.9 l -0.2,-1.8 -0.3,-1.9 -0.5,-1.8 -0.6,-1.8 -0.7,-1.8 -0.8,-1.8 -0.9,-1.7 -1.1,-1.7 -1.2,-1.6 -1.3,-1.6 -1.4,-1.5 -1.5,-1.5 -1.6,-1.5 -1.7,-1.3 -1.8,-1.3 -1.9,-1.2 -1.9,-1.1 -2,-1.1 -2.1,-1 -2.2,-0.9 -2.3,-0.8 -2.2,-0.7 -2.4,-0.6 -2.3,-0.5 -2.5,-0.5 -2.4,-0.3 -2.4,-0.3 -2.5,-0.1 -2.5,-0.1 v 0 l -2.4,0.1 -2.5,0.1 -2.4,0.3 -2.5,0.3 -2.4,0.5 -2.4,0.5 -2.3,0.6 -2.2,0.7 -2.3,0.8 -2.2,0.9 -2.1,1 -2,1 -2,1.2 -1.8,1.2 -1.9,1.3 -1.7,1.3 -1.5,1.4 -1.5,1.5 -1.5,1.6 -1.2,1.5 -1.2,1.7 -1.1,1.7 -0.9,1.7 -0.9,1.7 -0.7,1.9 -0.5,1.8 -0.5,1.8 -0.3,1.9 -0.2,1.8 z m 0,35.6 z m 94.5,-71.3 z"
           inkscape:connector-curvature="0" /><g
           id="g252"><path
             id="path254"
             style="fill:none;stroke:#525e66;stroke-width:2.00929999;stroke-linecap:butt;stroke-linejoin:round;stroke-miterlimit:10;stroke-dasharray:none;stroke-opacity:1"
             d="m 420.9,249.4 v 0 l 0.1,1.8 0.2,1.8 0.3,1.8 0.4,1.7 0.5,1.8 0.7,1.7 0.8,1.8 0.9,1.6 1,1.7 1.1,1.6 1.2,1.5 1.3,1.5 1.4,1.5 1.5,1.4 1.6,1.3 1.7,1.3 1.8,1.2 1.8,1.1 2,1.1 2,1 2,1 2.1,0.8 2.2,0.7 2.2,0.7 2.3,0.6 2.3,0.5 2.3,0.4 2.4,0.3 2.4,0.2 2.4,0.2 h 2.3 v 0 h 2.5 l 2.5,-0.2 2.4,-0.2 2.4,-0.3 2.5,-0.5 2.3,-0.5 2.3,-0.6 2.3,-0.8 2.3,-0.8 2.1,-0.8 2.1,-1 2.1,-1.1 1.9,-1.1 1.9,-1.2 1.8,-1.3 1.7,-1.4 1.6,-1.4 1.5,-1.5 1.4,-1.5 1.3,-1.6 1.2,-1.6 1.1,-1.7 0.9,-1.7 0.8,-1.8 0.7,-1.8 0.6,-1.8 0.4,-1.8 0.4,-1.9 0.2,-1.8 v -1.9 0 -1.9 l -0.2,-1.8 -0.3,-1.9 -0.5,-1.8 -0.6,-1.8 -0.7,-1.8 -0.8,-1.8 -0.9,-1.7 -1.1,-1.7 -1.2,-1.6 -1.3,-1.6 -1.4,-1.5 -1.5,-1.5 -1.6,-1.5 -1.7,-1.3 -1.8,-1.3 -1.9,-1.2 -1.9,-1.1 -2,-1.1 -2.1,-1 -2.2,-0.9 -2.3,-0.8 -2.2,-0.7 -2.4,-0.6 -2.3,-0.5 -2.5,-0.5 -2.4,-0.3 -2.4,-0.3 -2.5,-0.1 -2.5,-0.1 v 0 l -2.4,0.1 -2.5,0.1 -2.4,0.3 -2.5,0.3 -2.4,0.5 -2.4,0.5 -2.3,0.6 -2.2,0.7 -2.3,0.8 -2.2,0.9 -2.1,1 -2,1 -2,1.2 -1.8,1.2 -1.9,1.3 -1.7,1.3 -1.5,1.4 -1.5,1.5 -1.5,1.6 -1.2,1.5 -1.2,1.7 -1.1,1.7 -0.9,1.7 -0.9,1.7 -0.7,1.9 -0.5,1.8 -0.5,1.8 -0.3,1.9 -0.2,1.8 z"
             inkscape:connector-curvature="0" /></g><g
           id="g256"><path
             id="path258"
             style="fill:none;stroke:#525e66;stroke-width:2.00929999;stroke-linecap:butt;stroke-linejoin:round;stroke-miterlimit:10;stroke-dasharray:none;stroke-opacity:1"
             d="M 420.9,285 Z"
             inkscape:connector-curvature="0" /></g><g
           id="g260"><path
             id="path262"
             style="fill:none;stroke:#525e66;stroke-width:2.00929999;stroke-linecap:butt;stroke-linejoin:round;stroke-miterlimit:10;stroke-dasharray:none;stroke-opacity:1"
             d="M 515.4,213.7 Z"
             inkscape:connector-curvature="0" /></g><g
           id="g264"><text
             id="text268"
             style="font-variant:normal;font-weight:normal;font-size:18px;font-family:Carlito;-inkscape-font-specification:Carlito;writing-mode:lr-tb;fill:#000000;fill-opacity:1;fill-rule:nonzero;stroke:none"
             transform="matrix(1,0,0,-1,443.8,253)"><tspan
               id="tspan266"
               y="0"
               x="0 8.2799997 12.384 20.681999 28.584 37.566002 41.652 48.636002">Slave / </tspan></text>
</g><g
           id="g270"><text
             id="text274"
             style="font-variant:normal;font-weight:normal;font-size:18px;font-family:Carlito;-inkscape-font-specification:Carlito;writing-mode:lr-tb;fill:#000000;fill-opacity:1;fill-rule:nonzero;stroke:none"
             transform="matrix(1,0,0,-1,442.5,231.4)"><tspan
               id="tspan272"
               y="0"
               x="0 12.798 22.194 28.476 35.981998 45.071999">worker</tspan></text>
</g><g
           id="g276"><g
             id="g278" /><g
             id="g312"><g
               style="opacity:0.35"
               id="g310"
               clip-path="url(#clipPath282)"><path
                 id="path284"
                 style="fill:#000000;fill-opacity:1;fill-rule:evenodd;stroke:none"
                 d="m 560.7,247.6 v 0 l 0.1,1.8 0.2,1.8 0.3,1.7 0.4,1.8 0.6,1.8 0.6,1.7 0.8,1.7 0.9,1.7 1,1.7 1.1,1.5 1.2,1.6 1.3,1.5 1.4,1.5 1.5,1.4 1.6,1.3 1.7,1.3 1.8,1.2 1.8,1.1 2,1.1 2,1 2,0.9 2.1,0.9 2.2,0.7 2.2,0.7 2.3,0.6 2.3,0.5 2.4,0.4 2.3,0.3 2.4,0.2 2.4,0.2 h 2.3 v 0 h 2.5 l 2.5,-0.2 2.4,-0.2 2.5,-0.3 2.4,-0.5 2.3,-0.5 2.3,-0.6 2.3,-0.8 2.3,-0.8 2.1,-0.8 2.1,-1 2.1,-1.1 1.9,-1.1 1.9,-1.2 1.8,-1.3 1.7,-1.4 1.6,-1.4 1.5,-1.5 1.4,-1.5 1.3,-1.6 1.2,-1.6 1.1,-1.7 0.9,-1.7 0.8,-1.8 0.7,-1.8 0.6,-1.8 0.4,-1.8 0.4,-1.9 0.2,-1.8 v -1.9 0 -1.9 l -0.2,-1.8 -0.3,-1.9 -0.5,-1.8 -0.6,-1.8 -0.7,-1.8 -0.8,-1.8 -0.9,-1.7 -1.1,-1.7 -1.2,-1.6 -1.3,-1.6 -1.4,-1.6 -1.5,-1.4 -1.6,-1.5 -1.7,-1.3 -1.8,-1.3 -1.8,-1.2 -2,-1.1 -2,-1.1 -2.1,-1 -2.2,-0.9 -2.3,-0.8 -2.2,-0.7 -2.4,-0.6 -2.3,-0.6 -2.4,-0.4 -2.5,-0.3 -2.4,-0.3 -2.5,-0.1 -2.5,-0.1 v 0 l -2.4,0.1 -2.5,0.1 -2.4,0.3 -2.5,0.3 -2.4,0.4 -2.4,0.6 -2.3,0.6 -2.2,0.7 -2.3,0.8 -2.2,0.9 -2.1,1 -2,1 -2,1.2 -1.8,1.2 -1.8,1.3 -1.7,1.3 -1.6,1.4 -1.5,1.5 -1.5,1.5 -1.2,1.6 -1.2,1.7 -1.1,1.7 -0.9,1.7 -0.9,1.7 -0.7,1.8 -0.5,1.9 -0.5,1.8 -0.3,1.8 -0.2,1.9 z m 0,35.6 z m 94.5,-71.3 z"
                 inkscape:connector-curvature="0" /><g
                 id="g288"><path
                   id="path286"
                   style="fill:none;stroke:#000000;stroke-width:2.00929999;stroke-linecap:butt;stroke-linejoin:round;stroke-miterlimit:10;stroke-dasharray:none;stroke-opacity:1"
                   d="m 560.7,247.6 v 0 l 0.1,1.8 0.2,1.8 0.3,1.7 0.4,1.8 0.6,1.8 0.6,1.7 0.8,1.7 0.9,1.7 1,1.7 1.1,1.5 1.2,1.6 1.3,1.5 1.4,1.5 1.5,1.4 1.6,1.3 1.7,1.3 1.8,1.2 1.8,1.1 2,1.1 2,1 2,0.9 2.1,0.9 2.2,0.7 2.2,0.7 2.3,0.6 2.3,0.5 2.4,0.4 2.3,0.3 2.4,0.2 2.4,0.2 h 2.3 v 0 h 2.5 l 2.5,-0.2 2.4,-0.2 2.5,-0.3 2.4,-0.5 2.3,-0.5 2.3,-0.6 2.3,-0.8 2.3,-0.8 2.1,-0.8 2.1,-1 2.1,-1.1 1.9,-1.1 1.9,-1.2 1.8,-1.3 1.7,-1.4 1.6,-1.4 1.5,-1.5 1.4,-1.5 1.3,-1.6 1.2,-1.6 1.1,-1.7 0.9,-1.7 0.8,-1.8 0.7,-1.8 0.6,-1.8 0.4,-1.8 0.4,-1.9 0.2,-1.8 v -1.9 0 -1.9 l -0.2,-1.8 -0.3,-1.9 -0.5,-1.8 -0.6,-1.8 -0.7,-1.8 -0.8,-1.8 -0.9,-1.7 -1.1,-1.7 -1.2,-1.6 -1.3,-1.6 -1.4,-1.6 -1.5,-1.4 -1.6,-1.5 -1.7,-1.3 -1.8,-1.3 -1.8,-1.2 -2,-1.1 -2,-1.1 -2.1,-1 -2.2,-0.9 -2.3,-0.8 -2.2,-0.7 -2.4,-0.6 -2.3,-0.6 -2.4,-0.4 -2.5,-0.3 -2.4,-0.3 -2.5,-0.1 -2.5,-0.1 v 0 l -2.4,0.1 -2.5,0.1 -2.4,0.3 -2.5,0.3 -2.4,0.4 -2.4,0.6 -2.3,0.6 -2.2,0.7 -2.3,0.8 -2.2,0.9 -2.1,1 -2,1 -2,1.2 -1.8,1.2 -1.8,1.3 -1.7,1.3 -1.6,1.4 -1.5,1.5 -1.5,1.5 -1.2,1.6 -1.2,1.7 -1.1,1.7 -0.9,1.7 -0.9,1.7 -0.7,1.8 -0.5,1.9 -0.5,1.8 -0.3,1.8 -0.2,1.9 z"
                   inkscape:connector-curvature="0" /></g><g
                 id="g292"><path
                   id="path290"
                   style="fill:none;stroke:#000000;stroke-width:2.00929999;stroke-linecap:butt;stroke-linejoin:round;stroke-miterlimit:10;stroke-dasharray:none;stroke-opacity:1"
                   d="M 560.7,283.2 Z"
                   inkscape:connector-curvature="0" /></g><g
                 id="g296"><path
                   id="path294"
                   style="fill:none;stroke:#000000;stroke-width:2.00929999;stroke-linecap:butt;stroke-linejoin:round;stroke-miterlimit:10;stroke-dasharray:none;stroke-opacity:1"
                   d="M 655.2,211.9 Z"
                   inkscape:connector-curvature="0" /></g><g
                 id="g302"><text
                   id="text300"
                   style="font-variant:normal;font-weight:normal;font-size:18px;font-family:Carlito;-inkscape-font-specification:Carlito;writing-mode:lr-tb;fill:#000000;fill-opacity:1;fill-rule:nonzero;stroke:none"
                   transform="matrix(1,0,0,-1,583.7,251.2)"><tspan
                     id="tspan298"
                     y="0"
                     x="0 8.2080002 12.312 20.610001 28.511999 37.493999 41.580002 48.563999">Slave / </tspan></text>
</g><g
                 id="g308"><text
                   id="text306"
                   style="font-variant:normal;font-weight:normal;font-size:18px;font-family:Carlito;-inkscape-font-specification:Carlito;writing-mode:lr-tb;fill:#000000;fill-opacity:1;fill-rule:nonzero;stroke:none"
                   transform="matrix(1,0,0,-1,582.3,229.6)"><tspan
                     id="tspan304"
                     y="0"
                     x="0 12.798 22.194 28.476 35.981998 45.071999">worker</tspan></text>
</g></g></g></g><path
           id="path314"
           style="fill:#c5d0ed;fill-opacity:1;fill-rule:evenodd;stroke:none"
           d="m 560.7,249.4 v 0 l 0.1,1.8 0.2,1.8 0.3,1.8 0.4,1.7 0.6,1.8 0.6,1.7 0.8,1.8 0.9,1.6 1,1.7 1.1,1.6 1.2,1.5 1.3,1.5 1.4,1.5 1.5,1.4 1.6,1.3 1.7,1.3 1.8,1.2 1.8,1.1 2,1.1 2,1 2,1 2.1,0.8 2.2,0.7 2.2,0.7 2.3,0.6 2.3,0.5 2.4,0.4 2.3,0.3 2.4,0.2 2.4,0.2 h 2.3 v 0 h 2.5 l 2.5,-0.2 2.4,-0.2 2.5,-0.3 2.4,-0.5 2.3,-0.5 2.3,-0.6 2.3,-0.8 2.3,-0.8 2.1,-0.8 2.1,-1 2.1,-1.1 1.9,-1.1 1.9,-1.2 1.8,-1.3 1.7,-1.4 1.6,-1.4 1.5,-1.5 1.4,-1.5 1.3,-1.6 1.2,-1.6 1.1,-1.7 0.9,-1.7 0.8,-1.8 0.7,-1.8 0.6,-1.8 0.4,-1.8 0.4,-1.9 0.2,-1.8 v -1.9 0 -1.9 l -0.2,-1.8 -0.3,-1.9 -0.5,-1.8 -0.6,-1.8 -0.7,-1.8 -0.8,-1.8 -0.9,-1.7 -1.1,-1.7 -1.2,-1.6 -1.3,-1.6 -1.4,-1.5 -1.5,-1.5 -1.6,-1.5 -1.7,-1.3 -1.8,-1.3 -1.8,-1.2 -2,-1.1 -2,-1.1 -2.1,-1 -2.2,-0.9 -2.3,-0.8 -2.2,-0.7 -2.4,-0.6 -2.3,-0.5 -2.4,-0.5 -2.5,-0.3 -2.4,-0.3 -2.5,-0.1 -2.5,-0.1 v 0 l -2.4,0.1 -2.5,0.1 -2.4,0.3 -2.5,0.3 -2.4,0.5 -2.4,0.5 -2.3,0.6 -2.2,0.7 -2.3,0.8 -2.2,0.9 -2.1,1 -2,1 -2,1.2 -1.8,1.2 -1.8,1.3 -1.7,1.3 -1.6,1.4 -1.5,1.5 -1.5,1.6 -1.2,1.5 -1.2,1.7 -1.1,1.7 -0.9,1.7 -0.9,1.7 -0.7,1.9 -0.5,1.8 -0.5,1.8 -0.3,1.9 -0.2,1.8 z m 0,35.6 z m 94.5,-71.3 z"
           inkscape:connector-curvature="0" /><g
           id="g316"><path
             id="path318"
             style="fill:none;stroke:#525e66;stroke-width:2.00929999;stroke-linecap:butt;stroke-linejoin:round;stroke-miterlimit:10;stroke-dasharray:none;stroke-opacity:1"
             d="m 560.7,249.4 v 0 l 0.1,1.8 0.2,1.8 0.3,1.8 0.4,1.7 0.6,1.8 0.6,1.7 0.8,1.8 0.9,1.6 1,1.7 1.1,1.6 1.2,1.5 1.3,1.5 1.4,1.5 1.5,1.4 1.6,1.3 1.7,1.3 1.8,1.2 1.8,1.1 2,1.1 2,1 2,1 2.1,0.8 2.2,0.7 2.2,0.7 2.3,0.6 2.3,0.5 2.4,0.4 2.3,0.3 2.4,0.2 2.4,0.2 h 2.3 v 0 h 2.5 l 2.5,-0.2 2.4,-0.2 2.5,-0.3 2.4,-0.5 2.3,-0.5 2.3,-0.6 2.3,-0.8 2.3,-0.8 2.1,-0.8 2.1,-1 2.1,-1.1 1.9,-1.1 1.9,-1.2 1.8,-1.3 1.7,-1.4 1.6,-1.4 1.5,-1.5 1.4,-1.5 1.3,-1.6 1.2,-1.6 1.1,-1.7 0.9,-1.7 0.8,-1.8 0.7,-1.8 0.6,-1.8 0.4,-1.8 0.4,-1.9 0.2,-1.8 v -1.9 0 -1.9 l -0.2,-1.8 -0.3,-1.9 -0.5,-1.8 -0.6,-1.8 -0.7,-1.8 -0.8,-1.8 -0.9,-1.7 -1.1,-1.7 -1.2,-1.6 -1.3,-1.6 -1.4,-1.5 -1.5,-1.5 -1.6,-1.5 -1.7,-1.3 -1.8,-1.3 -1.8,-1.2 -2,-1.1 -2,-1.1 -2.1,-1 -2.2,-0.9 -2.3,-0.8 -2.2,-0.7 -2.4,-0.6 -2.3,-0.5 -2.4,-0.5 -2.5,-0.3 -2.4,-0.3 -2.5,-0.1 -2.5,-0.1 v 0 l -2.4,0.1 -2.5,0.1 -2.4,0.3 -2.5,0.3 -2.4,0.5 -2.4,0.5 -2.3,0.6 -2.2,0.7 -2.3,0.8 -2.2,0.9 -2.1,1 -2,1 -2,1.2 -1.8,1.2 -1.8,1.3 -1.7,1.3 -1.6,1.4 -1.5,1.5 -1.5,1.6 -1.2,1.5 -1.2,1.7 -1.1,1.7 -0.9,1.7 -0.9,1.7 -0.7,1.9 -0.5,1.8 -0.5,1.8 -0.3,1.9 -0.2,1.8 z"
             inkscape:connector-curvature="0" /></g><g
           id="g320"><path
             id="path322"
             style="fill:none;stroke:#525e66;stroke-width:2.00929999;stroke-linecap:butt;stroke-linejoin:round;stroke-miterlimit:10;stroke-dasharray:none;stroke-opacity:1"
             d="M 560.7,285 Z"
             inkscape:connector-curvature="0" /></g><g
           id="g324"><path
             id="path326"
             style="fill:none;stroke:#525e66;stroke-width:2.00929999;stroke-linecap:butt;stroke-linejoin:round;stroke-miterlimit:10;stroke-dasharray:none;stroke-opacity:1"
             d="M 655.2,213.7 Z"
             inkscape:connector-curvature="0" /></g><g
           id="g328"><text
             id="text332"
             style="font-variant:normal;font-weight:normal;font-size:18px;font-family:Carlito;-inkscape-font-specification:Carlito;writing-mode:lr-tb;fill:#000000;fill-opacity:1;fill-rule:nonzero;stroke:none"
             transform="matrix(1,0,0,-1,583.7,253)"><tspan
               id="tspan330"
               y="0"
               x="0 8.2080002 12.312 20.610001 28.511999 37.493999 41.580002 48.563999">Slave / </tspan></text>
</g><g
           id="g334"><text
             id="text338"
             style="font-variant:normal;font-weight:normal;font-size:18px;font-family:Carlito;-inkscape-font-specification:Carlito;writing-mode:lr-tb;fill:#000000;fill-opacity:1;fill-rule:nonzero;stroke:none"
             transform="matrix(1,0,0,-1,582.3,231.4)"><tspan
               id="tspan336"
               y="0"
               x="0 12.798 22.194 28.476 35.981998 45.071999">worker</tspan></text>
</g><g
           id="g340"><g
             id="g342" /><g
             id="g356"><g
               style="opacity:0.35"
               id="g354"
               clip-path="url(#clipPath346)"><g
                 id="g350"><path
                   id="path348"
                   style="fill:none;stroke:#000000;stroke-width:2.99979997;stroke-linecap:butt;stroke-linejoin:round;stroke-miterlimit:10;stroke-dasharray:none;stroke-opacity:1"
                   d="M 285,374.9 152.5,293"
                   inkscape:connector-curvature="0" /></g><path
                 id="path352"
                 style="fill:#000000;fill-opacity:1;fill-rule:evenodd;stroke:none"
                 d="m 145.4,288.6 5.3,8.5 4.7,-7.6 z"
                 inkscape:connector-curvature="0" /></g></g></g><g
           id="g358"><path
             id="path360"
             style="fill:none;stroke:#000000;stroke-width:2.99979997;stroke-linecap:butt;stroke-linejoin:round;stroke-miterlimit:10;stroke-dasharray:none;stroke-opacity:1"
             d="M 285,376.7 152.5,294.8"
             inkscape:connector-curvature="0" /></g><path
           id="path362"
           style="fill:#000000;fill-opacity:1;fill-rule:evenodd;stroke:none"
           d="m 145.4,290.4 5.3,8.5 4.7,-7.6 z"
           inkscape:connector-curvature="0" /><g
           id="g364"><g
             id="g366" /><g
             id="g380"><g
               style="opacity:0.35"
               id="g378"
               clip-path="url(#clipPath370)"><g
                 id="g374"><path
                   id="path372"
                   style="fill:none;stroke:#000000;stroke-width:2.99979997;stroke-linecap:butt;stroke-linejoin:round;stroke-miterlimit:10;stroke-dasharray:none;stroke-opacity:1"
                   d="M 330.7,320.2 289.6,287.7"
                   inkscape:connector-curvature="0" /></g><path
                 id="path376"
                 style="fill:#000000;fill-opacity:1;fill-rule:evenodd;stroke:none"
                 d="m 283,282.5 4.3,9.1 5.6,-7.1 z"
                 inkscape:connector-curvature="0" /></g></g></g><g
           id="g382"><path
             id="path384"
             style="fill:none;stroke:#000000;stroke-width:2.99979997;stroke-linecap:butt;stroke-linejoin:round;stroke-miterlimit:10;stroke-dasharray:none;stroke-opacity:1"
             d="M 330.7,322 289.6,289.5"
             inkscape:connector-curvature="0" /></g><path
           id="path386"
           style="fill:#000000;fill-opacity:1;fill-rule:evenodd;stroke:none"
           d="m 283,284.3 4.3,9.2 5.6,-7.1 z"
           inkscape:connector-curvature="0" /><g
           id="g388"><text
             id="text392"
             style="font-variant:normal;font-weight:normal;font-size:20px;font-family:Carlito;-inkscape-font-specification:Carlito;writing-mode:lr-tb;fill:#000000;fill-opacity:1;fill-rule:nonzero;stroke:none"
             transform="matrix(1,0,0,-1,192.3,347.8)"><tspan
               id="tspan390"
               y="0"
               x="0 6.5 16 23.799999">task</tspan></text>
</g><g
           id="g394"><g
             id="g396" /><g
             id="g410"><g
               style="opacity:0.35"
               id="g408"
               clip-path="url(#clipPath400)"><g
                 id="g404"><path
                   id="path402"
                   style="fill:none;stroke:#000000;stroke-width:2.99979997;stroke-linecap:butt;stroke-linejoin:round;stroke-miterlimit:10;stroke-dasharray:none;stroke-opacity:1"
                   d="M 156.7,281.2 271,352.9"
                   inkscape:connector-curvature="0" /></g><path
                 id="path406"
                 style="fill:#000000;fill-opacity:1;fill-rule:evenodd;stroke:none"
                 d="m 278.1,357.4 -5.3,-8.6 -4.8,7.6 z"
                 inkscape:connector-curvature="0" /></g></g></g><g
           id="g412"><path
             id="path414"
             style="fill:none;stroke:#000000;stroke-width:2.99979997;stroke-linecap:butt;stroke-linejoin:round;stroke-miterlimit:10;stroke-dasharray:none;stroke-opacity:1"
             d="M 156.7,283 271,354.7"
             inkscape:connector-curvature="0" /></g><path
           id="path416"
           style="fill:#000000;fill-opacity:1;fill-rule:evenodd;stroke:none"
           d="m 278.1,359.2 -5.3,-8.6 -4.8,7.7 z"
           inkscape:connector-curvature="0" /><g
           id="g418"><text
             id="text422"
             style="font-variant:normal;font-weight:normal;font-size:20px;font-family:Carlito;-inkscape-font-specification:Carlito;writing-mode:lr-tb;fill:#000000;fill-opacity:1;fill-rule:nonzero;stroke:none"
             transform="matrix(1,0,0,-1,229.4,311.4)"><tspan
               id="tspan420"
               y="0"
               x="0 6.6999998 16.68 24.48 34.98 39.560001">result</tspan></text>
</g><g
           id="g424"><g
             id="g426" /><g
             id="g440"><g
               style="opacity:0.35"
               id="g438"
               clip-path="url(#clipPath430)"><g
                 id="g434"><path
                   id="path432"
                   style="fill:none;stroke:#000000;stroke-width:2.99979997;stroke-linecap:butt;stroke-linejoin:round;stroke-miterlimit:10;stroke-dasharray:none;stroke-opacity:1"
                   d="m 292.6,277.3 45,34.5"
                   inkscape:connector-curvature="0" /></g><path
                 id="path436"
                 style="fill:#000000;fill-opacity:1;fill-rule:evenodd;stroke:none"
                 d="m 344.3,316.9 -4.4,-9 -5.5,7.2 z"
                 inkscape:connector-curvature="0" /></g></g></g><g
           id="g442"><path
             id="path444"
             style="fill:none;stroke:#000000;stroke-width:2.99979997;stroke-linecap:butt;stroke-linejoin:round;stroke-miterlimit:10;stroke-dasharray:none;stroke-opacity:1"
             d="m 292.6,279.1 45,34.5"
             inkscape:connector-curvature="0" /></g><path
           id="path446"
           style="fill:#000000;fill-opacity:1;fill-rule:evenodd;stroke:none"
           d="m 344.3,318.8 -4.4,-9.1 -5.5,7.2 z"
           inkscape:connector-curvature="0" /><g
           id="g448"><g
             id="g450" /><g
             id="g464"><g
               style="opacity:0.35"
               id="g462"
               clip-path="url(#clipPath454)"><g
                 id="g458"><path
                   id="path456"
                   style="fill:none;stroke:#000000;stroke-width:2.99979997;stroke-linecap:butt;stroke-linejoin:round;stroke-miterlimit:10;stroke-dasharray:none;stroke-opacity:1"
                   d="m 408.8,322.4 30.3,-35.8"
                   inkscape:connector-curvature="0" /></g><path
                 id="path460"
                 style="fill:#000000;fill-opacity:1;fill-rule:evenodd;stroke:none"
                 d="m 444.6,280.2 -9.3,3.9 6.9,5.8 z"
                 inkscape:connector-curvature="0" /></g></g></g><g
           id="g466"><path
             id="path468"
             style="fill:none;stroke:#000000;stroke-width:2.99979997;stroke-linecap:butt;stroke-linejoin:round;stroke-miterlimit:10;stroke-dasharray:none;stroke-opacity:1"
             d="m 408.8,324.2 30.3,-35.8"
             inkscape:connector-curvature="0" /></g><path
           id="path470"
           style="fill:#000000;fill-opacity:1;fill-rule:evenodd;stroke:none"
           d="m 444.6,282 -9.3,3.9 6.9,5.8 z"
           inkscape:connector-curvature="0" /><g
           id="g472"><g
             id="g474" /><g
             id="g488"><g
               style="opacity:0.35"
               id="g486"
               clip-path="url(#clipPath478)"><g
                 id="g482"><path
                   id="path480"
                   style="fill:none;stroke:#000000;stroke-width:2.99979997;stroke-linecap:butt;stroke-linejoin:round;stroke-miterlimit:10;stroke-dasharray:none;stroke-opacity:1"
                   d="m 456.7,282.9 -27.3,31.3"
                   inkscape:connector-curvature="0" /></g><path
                 id="path484"
                 style="fill:#000000;fill-opacity:1;fill-rule:evenodd;stroke:none"
                 d="m 423.9,320.5 9.3,-3.8 -6.8,-5.9 z"
                 inkscape:connector-curvature="0" /></g></g></g><g
           id="g490"><path
             id="path492"
             style="fill:none;stroke:#000000;stroke-width:2.99979997;stroke-linecap:butt;stroke-linejoin:round;stroke-miterlimit:10;stroke-dasharray:none;stroke-opacity:1"
             d="M 456.7,284.7 429.4,316"
             inkscape:connector-curvature="0" /></g><path
           id="path494"
           style="fill:#000000;fill-opacity:1;fill-rule:evenodd;stroke:none"
           d="m 423.9,322.4 9.3,-3.9 -6.8,-5.9 z"
           inkscape:connector-curvature="0" /><g
           id="g496"><g
             id="g498" /><g
             id="g512"><g
               style="opacity:0.35"
               id="g510"
               clip-path="url(#clipPath502)"><g
                 id="g506"><path
                   id="path504"
                   style="fill:none;stroke:#000000;stroke-width:2.99979997;stroke-linecap:butt;stroke-linejoin:round;stroke-miterlimit:10;stroke-dasharray:none;stroke-opacity:1"
                   d="M 484.8,376.5 599.4,295"
                   inkscape:connector-curvature="0" /></g><path
                 id="path508"
                 style="fill:#000000;fill-opacity:1;fill-rule:evenodd;stroke:none"
                 d="m 606.3,290.1 -9.9,1.6 5.2,7.3 z"
                 inkscape:connector-curvature="0" /></g></g></g><g
           id="g514"><path
             id="path516"
             style="fill:none;stroke:#000000;stroke-width:2.99979997;stroke-linecap:butt;stroke-linejoin:round;stroke-miterlimit:10;stroke-dasharray:none;stroke-opacity:1"
             d="M 484.8,378.3 599.4,296.8"
             inkscape:connector-curvature="0" /></g><path
           id="path518"
           style="fill:#000000;fill-opacity:1;fill-rule:evenodd;stroke:none"
           d="m 606.3,291.9 -9.9,1.6 5.2,7.3 z"
           inkscape:connector-curvature="0" /><g
           id="g520"><g
             id="g522" /><g
             id="g536"><g
               style="opacity:0.35"
               id="g534"
               clip-path="url(#clipPath526)"><g
                 id="g530"><path
                   id="path528"
                   style="fill:none;stroke:#000000;stroke-width:2.99979997;stroke-linecap:butt;stroke-linejoin:round;stroke-miterlimit:10;stroke-dasharray:none;stroke-opacity:1"
                   d="m 597.2,284.4 -97.6,66.3"
                   inkscape:connector-curvature="0" /></g><path
                 id="path532"
                 style="fill:#000000;fill-opacity:1;fill-rule:evenodd;stroke:none"
                 d="m 492.7,355.4 9.9,-1.3 -5,-7.5 z"
                 inkscape:connector-curvature="0" /></g></g></g><g
           id="g538"><path
             id="path540"
             style="fill:none;stroke:#000000;stroke-width:2.99979997;stroke-linecap:butt;stroke-linejoin:round;stroke-miterlimit:10;stroke-dasharray:none;stroke-opacity:1"
             d="m 597.2,286.2 -97.6,66.3"
             inkscape:connector-curvature="0" /></g><path
           id="path542"
           style="fill:#000000;fill-opacity:1;fill-rule:evenodd;stroke:none"
           d="m 492.7,357.2 9.9,-1.3 -5,-7.5 z"
           inkscape:connector-curvature="0" /></g></g></g></svg>